<svg width="210" height="210" viewBox="0 0 210 210" fill="none" xmlns="http://www.w3.org/2000/svg">
<path d="M0 105C0 47.0101 47.0101 0 105 0V0C162.99 0 210 47.0101 210 105V105C210 162.99 162.99 210 105 210V210C47.0101 210 0 162.99 0 105V105Z" fill="#EAF0F7"/>
<mask id="mask0_479_1737" style="mask-type:alpha" maskUnits="userSpaceOnUse" x="0" y="0" width="210" height="210">
<circle cx="105" cy="105" r="105" fill="#F3F4F6"/>
</mask>
<g mask="url(#mask0_479_1737)">
<path d="M210 183.697V210.008H0V183.793C12.2146 167.47 28.0692 154.221 46.3032 145.101C64.5371 135.981 84.6475 131.241 105.035 131.258C147.945 131.258 186.06 151.856 210 183.697ZM140.018 78.7497C140.018 88.0323 136.33 96.9347 129.766 103.498C123.202 110.062 114.3 113.75 105.017 113.75C95.7349 113.75 86.8325 110.062 80.2688 103.498C73.705 96.9347 70.0175 88.0323 70.0175 78.7497C70.0175 69.4672 73.705 60.5648 80.2688 54.001C86.8325 47.4372 95.7349 43.7498 105.017 43.7498C114.3 43.7498 123.202 47.4372 129.766 54.001C136.33 60.5648 140.018 69.4672 140.018 78.7497Z" fill="#2160E8"/>
</g>
</svg>
