<svg
  width="179"
  height="193"
  viewBox="0 0 179 193"
  fill="none"
  xmlns="http://www.w3.org/2000/svg"
>
<path
    d="M90.1758 163.85C88.7762 163.85 87.5165 162.66 87.5165 161.26C87.5165 159.861 88.7062 158.671 90.1058 158.671C91.5055 158.671 92.6952 159.791 92.6952 161.19C92.6952 162.66 91.5755 163.85 90.1758 163.85ZM90.1058 153.492C88.7062 153.492 87.5165 152.233 87.5165 150.833C87.5864 149.433 88.7762 148.314 90.1758 148.314C91.5755 148.314 92.7652 149.503 92.6952 150.973C92.6952 152.303 91.5055 153.492 90.1058 153.492ZM90.1058 143.065C88.7062 143.065 87.4465 141.875 87.5165 140.405C87.5165 139.006 88.7062 137.886 90.1058 137.886C91.5055 137.886 92.6952 139.076 92.6952 140.475C92.6952 141.875 91.5055 143.065 90.1058 143.065ZM90.1058 132.707C88.7062 132.707 87.4465 131.448 87.5165 130.048C87.5165 128.648 88.7062 127.529 90.1758 127.529C91.5755 127.529 92.7652 128.718 92.6952 130.118C92.6952 131.518 91.5055 132.707 90.1058 132.707Z"
    fill="#5C75AC"
  />
<path
    d="M177.161 65.7332C176.181 61.6042 174.782 57.6152 172.752 53.9061C170.093 48.9373 163.724 47.1877 159.875 48.2374C156.796 49.0772 154.626 50.8268 152.667 53.1362C150.847 55.3057 148.958 57.3352 146.928 59.6447C147.348 51.4567 145.949 43.4086 142.729 35.5705C131.042 7.78727 101.929 -6.3493 71.5566 2.74849C67.0777 4.07817 62.9487 6.66754 58.6798 8.76703C57.0002 9.60682 56.5803 11.3564 57.63 12.966C58.6098 14.5056 60.1494 14.6456 61.759 13.7358C62.3189 13.4559 62.8088 13.106 63.3686 12.826C76.0355 5.54781 89.4023 3.79824 103.469 7.6473C123.694 13.176 139.16 31.4415 140.91 53.4862C142.309 71.3318 133.911 86.3782 117.326 92.9566C99.6198 99.9549 81.5642 99.8849 63.6485 93.7964C55.6005 91.067 48.7422 86.3082 44.0533 78.96C36.4252 66.9229 36.5651 54.046 40.6241 40.9592C42.6536 34.3108 46.2228 28.5022 50.7017 23.1835C51.5415 22.2038 52.1014 20.4542 51.8214 19.2645C51.1916 16.8851 48.4622 16.8151 46.5027 19.1245C36.2852 31.1616 31.4564 44.7383 32.2262 59.7846C30.1267 57.4752 28.2372 55.3057 26.3476 53.1362C24.3881 50.8268 22.2186 49.0772 19.1394 48.2374C15.2203 47.1877 8.85186 48.9373 6.26249 53.9061C4.23299 57.6851 2.83333 61.6742 1.85356 65.7332C-2.62535 84.9085 1.08375 102.474 12.211 118.5C14.9404 122.489 17.9497 126.338 21.9387 129.208C22.4985 129.558 25.0879 131.377 29.007 132.917C30.2667 133.407 33.5559 134.666 38.0348 135.226C40.9741 135.576 44.4732 135.716 48.3223 135.086C49.442 134.876 50.4917 134.736 51.4015 134.526C51.6115 134.456 51.8214 134.456 52.0314 134.387C54.2708 139.705 56.8602 144.954 59.5895 150.063C66.4479 162.94 73.8661 175.467 82.8939 186.734C84.3635 188.553 86.0431 190.233 87.7227 191.773C89.4023 193.312 90.592 193.172 92.3416 191.773C93.1114 191.143 93.8812 190.373 94.581 189.603C98.0102 185.964 100.949 181.905 103.819 177.706C109.977 168.608 115.646 159.16 120.755 149.363C123.274 144.534 125.653 139.705 127.823 134.666C128.663 134.806 129.573 135.016 130.552 135.156C133.142 135.576 135.591 135.646 137.831 135.506C143.849 135.226 148.328 133.547 149.868 132.917C153.787 131.377 156.446 129.558 156.936 129.208C160.925 126.338 163.934 122.489 166.664 118.5C177.861 102.474 181.64 84.9085 177.161 65.7332ZM90.662 180.995C90.2421 181.135 89.8922 181.135 89.4723 180.995C86.533 175.606 83.4537 170.288 80.7944 164.759C76.5954 156.151 74.076 146.983 72.8163 137.396C72.4664 134.386 72.2565 131.307 71.9765 128.298C71.9765 128.088 71.9765 127.878 71.9765 127.668C73.7261 127.528 75.4057 127.458 77.0853 127.178C80.2345 126.758 83.1738 125.779 85.4133 123.399C86.1831 122.559 86.9529 122.279 88.0026 122.349C89.7522 122.419 91.4318 122.349 93.1814 122.349C93.4613 122.349 93.8812 122.419 94.0212 122.629C96.4006 125.569 99.6898 126.688 103.259 127.178C104.869 127.388 106.548 127.458 108.158 127.598C107.878 147.263 100.949 164.689 90.662 180.995ZM71.9765 106.813C75.1258 107.093 78.205 107.653 81.0743 109.123C81.9841 109.613 82.404 110.172 82.334 111.292C82.264 113.672 82.334 116.051 82.264 118.36C82.264 118.78 82.0541 119.41 81.7741 119.62C80.8644 120.32 79.8846 121.02 78.7649 121.44C76.5954 122.279 74.286 122.279 71.9765 122.349C71.9765 117.101 71.9765 111.992 71.9765 106.813ZM87.5827 117.101C87.5827 115.421 87.5827 113.742 87.5827 111.992C89.2623 111.992 90.9419 111.992 92.6915 111.992C92.6915 113.672 92.6915 115.351 92.6915 117.101C90.9419 117.101 89.2623 117.101 87.5827 117.101ZM100.949 121.3C100.39 121.09 99.8997 120.81 99.4099 120.53C98.3601 119.9 97.8002 119.06 97.8702 117.731C98.0102 115.491 97.9402 113.252 97.8702 111.012C97.8702 110.242 98.2201 109.822 98.78 109.403C100.6 108.283 102.699 107.723 104.799 107.303C105.918 107.093 107.038 106.953 108.228 106.813C108.228 112.062 108.228 117.171 108.228 122.349C105.708 122.279 103.259 122.209 100.949 121.3ZM8.92185 65.1733C9.69166 62.444 10.7414 59.7146 12.0711 57.1953C13.6107 54.186 17.5298 53.5561 19.8392 55.9356C22.3586 58.455 24.5281 61.3243 27.0474 64.1936C22.7785 68.6725 19.2793 73.5713 16.41 78.82C13.6107 84.0687 11.0913 89.4574 8.43196 94.9161C5.84259 84.9085 6.05254 75.0409 8.92185 65.1733ZM18.0196 115.701C15.7802 111.922 13.8906 108.703 12.0011 105.554C14.3805 97.7854 17.3898 90.7871 21.0289 84.0687C23.6183 79.2399 26.4876 74.551 30.2667 70.492C30.6866 70.0721 31.1764 69.7222 31.5963 69.3723C33.2759 70.702 34.6056 72.1716 35.5154 73.9212C35.9353 75.0409 36.2852 76.0207 36.5651 76.9305C36.6351 77.1404 36.7051 77.3504 36.7051 77.6303C27.8872 88.6876 22.6385 101.704 18.0196 115.701ZM38.9445 128.508C36.985 128.368 34.8855 127.948 32.5761 127.178C28.2372 125.709 25.1579 123.399 23.3383 121.86C23.5483 120.88 23.6883 119.97 23.9682 119.13C25.1579 115.491 26.2776 111.782 27.6073 108.143C30.4066 100.445 33.9058 93.0965 38.4547 86.2382C38.6646 85.9583 38.8746 85.6084 39.1545 85.3284C39.4344 84.9785 39.7144 84.6986 39.9943 84.4186C42.2337 87.2879 44.4732 90.2272 46.7127 93.0965C45.8729 96.5257 45.383 99.8849 45.243 103.244C44.8231 105.554 44.4732 108.073 44.3332 110.802C44.1233 114.791 44.4032 118.43 44.8931 121.51C45.243 124.029 45.7329 126.268 46.2228 128.088C44.6832 128.438 42.0938 128.788 38.9445 128.508ZM58.9597 132.917C56.9302 128.158 55.0406 123.329 53.7809 118.29C52.8012 114.511 52.8712 110.732 53.361 106.953C53.7809 103.454 54.6207 100.165 55.8105 97.0856C56.6502 97.4355 57.49 97.7854 58.3298 98.1353C62.0389 99.605 65.6781 100.795 69.3872 101.704H69.3172C67.7775 101.704 66.7978 102.824 66.7278 104.364C66.7278 105.344 66.6578 106.323 66.7278 107.303C66.7278 107.513 66.7278 107.653 66.6578 107.793V114.371C66.6578 114.371 66.6578 114.371 66.7278 114.371C66.7278 114.791 66.7278 115.141 66.7278 115.421C66.7978 120.32 66.6578 125.219 66.8678 130.118C67.2877 140.475 69.3872 150.413 72.9563 159.93C72.6764 159.44 72.3264 158.951 72.0465 158.461C67.2877 150.133 62.8088 141.735 58.9597 132.917ZM117.116 141.595C114.106 147.543 110.957 153.422 107.528 159.09C110.187 151.742 112.007 144.184 112.847 136.346C113.266 132.357 113.336 128.368 113.476 124.379V106.533C113.476 106.463 113.476 106.393 113.476 106.323C113.476 105.763 113.546 105.204 113.546 104.644C113.546 102.684 112.497 101.564 110.607 101.704C110.187 101.704 109.697 101.774 109.277 101.774C113.476 100.725 117.675 99.395 121.874 97.6454L124.254 96.5957C126.353 101.844 127.403 107.583 127.123 113.672C127.053 116.191 126.353 118.71 125.653 121.16C123.484 128.228 120.405 134.946 117.116 141.595ZM146.368 127.178C143.289 128.228 140.35 128.578 137.97 128.578C135.731 128.578 133.911 128.368 132.722 128.158C133.562 125.009 134.471 120.6 134.611 115.351C134.681 113.951 134.681 112.412 134.611 110.872C134.471 108.423 134.191 106.113 133.841 104.014C133.702 100.305 133.142 96.6657 132.302 92.9566C132.302 92.9566 132.302 92.8866 132.372 92.8866C134.541 90.0173 136.781 87.218 138.95 84.3487C139.37 84.8385 140 85.4684 140.42 86.0982C144.969 92.9566 148.468 100.305 151.267 108.003C152.597 111.642 153.717 115.281 154.906 118.99C155.186 119.83 155.326 120.74 155.536 121.72C153.787 123.399 150.777 125.639 146.368 127.178ZM160.995 115.701C156.446 101.914 151.267 89.0375 142.589 78.0502C142.799 77.6303 143.009 77.2804 143.149 76.9305C143.989 75.0409 144.899 72.5215 144.829 72.4516C144.899 72.1716 144.969 71.8917 144.969 71.6817C145.669 70.9119 146.438 70.1421 147.348 69.3723C147.768 69.7222 148.258 70.0721 148.678 70.492C152.457 74.551 155.326 79.2399 157.916 84.0687C161.555 90.7871 164.564 97.7854 166.943 105.554C165.124 108.703 163.164 111.922 160.995 115.701ZM170.583 94.9161C167.923 89.5274 165.404 84.1387 162.604 78.82C159.805 73.5013 156.306 68.6725 151.967 64.1936C154.486 61.3243 156.656 58.455 159.175 55.9356C161.485 53.5561 165.404 54.186 166.943 57.1953C168.273 59.7146 169.253 62.444 170.093 65.1733C172.962 75.0409 173.102 84.9085 170.583 94.9161Z"
    fill="#5C75AC"
  />
<path
    d="M93.1818 73.0115C99.3403 69.0925 102.629 63.4939 102.839 56.8455C102.839 49.2873 98.2905 43.4787 91.9221 42.359C85.4137 41.1693 79.3951 44.6684 77.0857 50.8969C74.1464 58.945 78.8353 70.0023 86.6734 73.4314C88.9128 74.4112 91.1523 74.2712 93.1818 73.0115ZM82.1245 56.3556C82.0545 51.4568 85.2037 47.8876 89.5427 47.9576C93.8816 48.0276 97.0309 51.6667 96.8909 56.4956C96.7509 61.1844 94.5815 64.8235 90.8024 67.4129C90.2425 67.8328 88.9128 67.8328 88.353 67.4829C84.5039 64.8235 82.1945 61.1844 82.1245 56.3556Z"
    fill="#5C75AC"
  />
<path
    d="M113.972 46.1385C114.252 44.179 115.022 42.8493 117.121 42.7794C119.36 42.7094 120.27 44.179 120.55 46.1385C120.83 48.0981 122.02 49.0778 123.979 48.7979C125.869 48.518 126.429 47.1183 126.359 45.3687C126.219 40.7499 122.02 36.8308 117.261 36.8308C112.572 36.8308 108.513 40.5399 108.163 45.1588C108.023 47.0483 108.653 48.448 110.613 48.7979C112.502 49.0778 113.692 48.0281 113.972 46.1385Z"
    fill="#5C75AC"
  />
<path
    d="M55.1804 48.7973C57.1399 49.0773 58.2596 48.0275 58.5395 46.068C58.8195 44.1785 59.6593 42.7788 61.7588 42.7788C63.8582 42.7788 64.768 44.0385 65.048 45.998C65.2579 47.8876 66.3776 48.9373 68.3372 48.7973C70.0867 48.6574 71.0665 47.1177 70.9265 45.0183C70.4366 40.3294 66.4476 36.7603 61.7588 36.7603C57.0699 36.8302 53.0109 40.5393 52.7309 45.1582C52.661 47.0478 53.1508 48.5174 55.1804 48.7973Z"
    fill="#5C75AC"
  />
<path
    d="M90.1694 137.886C88.7698 137.886 87.5801 139.005 87.5801 140.405C87.5801 141.805 88.7698 143.064 90.1694 143.064C91.5691 143.064 92.7588 141.875 92.7588 140.475C92.6888 139.075 91.5691 137.956 90.1694 137.886Z"
    fill="#5C75AC"
  />
<path
    d="M90.176 148.313C88.7763 148.313 87.5866 149.433 87.5166 150.833C87.4466 152.233 88.6363 153.492 90.106 153.492C91.5056 153.492 92.6954 152.372 92.6954 150.903C92.7653 149.503 91.5756 148.313 90.176 148.313Z"
    fill="#5C75AC"
  />
<path
    d="M90.1031 158.671C88.7034 158.671 87.5137 159.861 87.5137 161.261C87.5137 162.66 88.7034 163.92 90.173 163.85C91.5727 163.85 92.6924 162.59 92.6924 161.191C92.6924 159.791 91.5027 158.671 90.1031 158.671Z"
    fill="#5C75AC"
  />
<path
    d="M90.173 127.528C88.7734 127.528 87.5837 128.648 87.5137 130.047C87.5137 131.447 88.7034 132.707 90.1031 132.707C91.5027 132.707 92.6924 131.517 92.6924 130.117C92.6924 128.718 91.5727 127.528 90.173 127.528Z"
    fill="#5C75AC"
  />
</svg>
