<svg width="403" height="483" viewBox="0 0 403 483" fill="none" xmlns="http://www.w3.org/2000/svg">
<path d="M160.084 172.65L201.245 158.71L245.279 173.734L203.04 212.3L160.084 172.65Z" fill="#A0D4FF"/>
<path d="M86.6455 432.081L97.6081 315.607L23.3599 310.482C23.3599 310.482 39.9194 261.571 51.909 235.566C63.8986 209.56 76.7611 203.846 165.361 171.077C168.493 188.755 191.548 192.394 201.997 192.394C212.447 192.394 234.757 188.755 237.94 171.077C326.54 203.846 339.403 209.509 351.393 235.566C363.382 261.622 379.942 310.482 379.942 310.482L305.693 315.607L316.63 432.158L86.6455 432.081Z" fill="white"/>
<path d="M218.484 164.923C218.484 164.923 218.484 180.009 201.307 180.009C184.131 180.009 184.131 164.923 184.131 164.923V131.915H218.484V164.923Z" fill="#A0D4FF"/>
<path d="M218.484 136.724H184.131V149.778H218.484V136.724Z" fill="#090929"/>
<path d="M201.307 143.595C231.663 143.595 256.272 118.986 256.272 88.6301C256.272 58.2741 231.663 33.6657 201.307 33.6657C170.951 33.6657 146.343 58.2741 146.343 88.6301C146.343 118.986 170.951 143.595 201.307 143.595Z" fill="#A0D4FF"/>
<path d="M167.029 68.6789C166.685 68.7177 166.34 68.6149 166.069 68.393C165.799 68.1712 165.626 67.8485 165.588 67.4959C165.551 67.1434 165.651 66.7899 165.868 66.5132C166.084 66.2365 166.399 66.0593 166.743 66.0205C167.262 66.0205 179.305 63.3621 187.22 65.2761C187.564 65.3572 187.863 65.575 188.05 65.8816C188.238 66.1883 188.299 66.5585 188.22 66.9111C188.14 67.2636 187.928 67.5695 187.628 67.7614C187.329 67.9534 186.968 68.0157 186.623 67.9346C179.253 66.18 167.392 68.6789 167.288 68.7055L167.029 68.6789Z" fill="#090929"/>
<path d="M237.832 68.0185H237.603C237.603 68.0185 225.827 66.0246 218.695 67.8461C218.372 67.9292 218.029 67.8853 217.739 67.724C217.449 67.5627 217.236 67.297 217.147 66.9846C217.067 66.6683 217.115 66.3345 217.28 66.0509C217.445 65.7674 217.715 65.5555 218.036 65.4584C225.649 63.4892 237.552 65.4584 238.06 65.4584C238.389 65.5183 238.681 65.7019 238.871 65.9694C239.061 66.2368 239.134 66.5664 239.075 66.8861C239.056 67.1931 238.916 67.4812 238.685 67.6917C238.454 67.9021 238.149 68.019 237.832 68.0185V68.0185Z" fill="#090929"/>
<path d="M184.112 87.942C183.935 87.9353 183.763 87.8948 183.603 87.8228C183.443 87.7508 183.299 87.6488 183.179 87.5226C183.06 87.3964 182.967 87.2484 182.906 87.0872C182.845 86.9259 182.818 86.7546 182.825 86.5829C182.846 86.0899 182.768 85.5976 182.593 85.1344C182.418 84.6712 182.152 84.2463 181.808 83.8843C181.464 83.5222 181.05 83.2302 180.59 83.025C180.129 82.8197 179.632 82.7054 179.126 82.6886C178.621 82.6676 178.116 82.7445 177.641 82.9147C177.166 83.085 176.73 83.3453 176.359 83.6806C175.987 84.016 175.688 84.4197 175.477 84.8685C175.267 85.3173 175.15 85.8022 175.133 86.2954C175.133 86.4693 175.097 86.6415 175.025 86.801C174.954 86.9604 174.85 87.1037 174.719 87.2216C174.588 87.3396 174.433 87.4297 174.264 87.4862C174.095 87.5428 173.917 87.5645 173.739 87.55C173.563 87.5432 173.39 87.5027 173.23 87.4308C173.07 87.3588 172.926 87.2568 172.807 87.1305C172.687 87.0043 172.594 86.8563 172.534 86.6951C172.473 86.5339 172.445 86.3625 172.452 86.1909C172.603 84.5622 173.389 83.052 174.649 81.9725C175.908 80.893 177.545 80.3266 179.221 80.3904C180.897 80.4541 182.483 81.1431 183.653 82.3151C184.822 83.487 185.485 85.0523 185.505 86.6875C185.498 86.8591 185.457 87.0278 185.383 87.1838C185.309 87.3398 185.205 87.48 185.075 87.5965C184.946 87.7131 184.794 87.8036 184.629 87.8628C184.463 87.9221 184.288 87.949 184.112 87.942Z" fill="#090929"/>
<path d="M208.158 105.806C206.61 105.816 205.116 105.235 203.979 104.182C203.082 103.35 202.45 102.27 202.165 101.079C201.88 99.8875 201.953 98.6381 202.376 97.4885C202.799 96.339 203.552 95.341 204.541 94.6207C205.529 93.9004 206.709 93.4902 207.93 93.4419C208.097 93.4316 208.265 93.4553 208.422 93.5116C208.58 93.5679 208.725 93.6556 208.848 93.7695C208.971 93.8834 209.07 94.021 209.138 94.1741C209.207 94.3273 209.244 94.4928 209.247 94.6606C209.254 94.8273 209.228 94.9938 209.17 95.1504C209.113 95.307 209.025 95.4508 208.912 95.5734C208.799 95.696 208.663 95.7951 208.512 95.865C208.361 95.935 208.198 95.9743 208.031 95.9808C207.067 96.024 206.159 96.4431 205.499 97.1487C204.858 97.8355 204.512 98.7475 204.536 99.6877C204.574 100.655 204.993 101.568 205.701 102.227C206.039 102.547 206.437 102.797 206.871 102.963C207.306 103.129 207.769 103.206 208.234 103.191C208.568 103.184 208.892 103.307 209.137 103.534C209.383 103.762 209.531 104.076 209.551 104.41C209.557 104.577 209.531 104.743 209.474 104.9C209.417 105.057 209.329 105.2 209.216 105.323C209.103 105.445 208.967 105.545 208.816 105.615C208.665 105.684 208.501 105.724 208.335 105.73L208.158 105.806Z" fill="#090929"/>
<path d="M232.174 90.0009C231.998 89.9937 231.825 89.9506 231.665 89.874C231.505 89.7974 231.362 89.6888 231.242 89.5544C231.123 89.4201 231.03 89.2626 230.969 89.0909C230.908 88.9193 230.881 88.7369 230.888 88.5542C230.902 88.0281 230.817 87.5042 230.636 87.0124C230.455 86.5207 230.182 86.0708 229.834 85.6884C229.486 85.306 229.068 84.9986 228.605 84.7839C228.142 84.5691 227.643 84.4512 227.137 84.4368C226.148 84.4326 225.193 84.8093 224.457 85.4939C224.084 85.8492 223.782 86.2782 223.571 86.7559C223.359 87.2337 223.241 87.7504 223.224 88.276C223.224 88.6449 223.083 88.9987 222.832 89.2596C222.581 89.5205 222.24 89.667 221.885 89.667C221.529 89.667 221.189 89.5205 220.937 89.2596C220.686 88.9987 220.545 88.6449 220.545 88.276C220.571 87.3867 220.77 86.5121 221.129 85.7042C221.488 84.8964 222 84.172 222.635 83.5743C223.261 82.963 223.998 82.488 224.803 82.1774C225.609 81.8668 226.466 81.7269 227.324 81.766C229.054 81.8384 230.685 82.62 231.861 83.9395C233.036 85.2589 233.66 87.0086 233.594 88.8046C233.548 89.1537 233.375 89.4714 233.111 89.6934C232.848 89.9155 232.513 90.0254 232.174 90.0009Z" fill="#090929"/>
<path d="M199.159 128.448H198.952C189.056 126.745 187.638 119.339 187.587 119.03C187.556 118.86 187.559 118.686 187.596 118.518C187.633 118.35 187.702 118.191 187.8 118.049C187.898 117.908 188.023 117.787 188.168 117.694C188.312 117.601 188.474 117.538 188.643 117.507C188.813 117.477 188.986 117.48 189.154 117.517C189.322 117.553 189.481 117.623 189.622 117.721C189.764 117.819 189.884 117.944 189.977 118.089C190.07 118.234 190.133 118.396 190.164 118.565C190.164 118.823 191.401 124.5 199.442 125.894C199.784 125.925 200.099 126.09 200.319 126.354C200.539 126.617 200.646 126.958 200.615 127.3C200.584 127.642 200.419 127.958 200.155 128.178C199.892 128.399 199.552 128.505 199.21 128.474L199.159 128.448Z" fill="#090929"/>
<path d="M184.001 119.539C183.831 119.533 183.664 119.496 183.509 119.43C183.355 119.365 183.216 119.272 183.1 119.156C182.985 119.041 182.895 118.907 182.836 118.76C182.778 118.613 182.751 118.456 182.758 118.3C182.765 117.353 183.001 116.419 183.449 115.566C183.896 114.713 184.545 113.962 185.347 113.368C187.318 112.181 189.71 111.737 192.027 112.129C192.193 112.161 192.352 112.222 192.493 112.309C192.634 112.397 192.754 112.509 192.848 112.64C192.942 112.77 193.007 112.916 193.039 113.07C193.071 113.224 193.07 113.382 193.036 113.535C193.009 113.689 192.947 113.836 192.856 113.967C192.764 114.098 192.644 114.211 192.504 114.298C192.363 114.385 192.205 114.445 192.038 114.473C191.871 114.502 191.7 114.499 191.535 114.464C189.946 114.201 188.307 114.481 186.926 115.25C186.444 115.649 186.061 116.138 185.802 116.685C185.543 117.231 185.414 117.823 185.425 118.419C185.419 118.581 185.376 118.74 185.3 118.886C185.224 119.033 185.115 119.162 184.981 119.268C184.847 119.373 184.691 119.452 184.522 119.498C184.353 119.545 184.176 119.559 184.001 119.539V119.539Z" fill="#090929"/>
<path d="M201.32 191.688C211.689 191.688 233.757 188.086 237.034 170.685L226.256 167.031L226 168.462C224.259 178.274 207.593 180.42 201.32 180.42C195.048 180.42 178.279 178.274 176.64 168.462L176.384 166.954L165.581 170.608C168.806 188.086 190.952 191.688 201.32 191.688Z" fill="white"/>
<path d="M201.256 193.063C197.878 193.063 167.988 192.444 164.227 170.557C164.166 170.215 164.242 169.863 164.439 169.578C164.635 169.293 164.936 169.098 165.276 169.036C165.615 168.975 165.965 169.052 166.248 169.25C166.531 169.448 166.725 169.751 166.786 170.093C169.601 186.205 189.817 190.485 201.307 190.485C212.797 190.485 233.013 186.205 235.828 170.093C235.89 169.751 236.083 169.448 236.366 169.25C236.649 169.052 236.999 168.975 237.338 169.036C237.678 169.098 237.979 169.293 238.176 169.578C238.372 169.863 238.449 170.215 238.387 170.557C234.447 192.444 204.634 193.063 201.256 193.063Z" fill="#090929"/>
<path d="M295.434 204.066C283.226 192.154 235.519 182.715 221.776 181.491C208.032 180.267 189.246 189.628 187.813 198.633C186.38 207.638 191.499 196.949 194.903 196.72C198.306 196.49 192.343 205.852 197.82 202.791C203.297 199.73 239.358 230.851 239.358 230.851L295.434 204.066Z" fill="#0088FF"/>
<path d="M188.94 202.067C188.94 202.067 193.557 199.782 195.044 200.347C210.637 206.38 239.591 239.782 239.591 239.782L270.7 226.945L234.796 196.829L199.327 191.001L188.94 202.067Z" fill="#090929"/>
<path d="M295.434 204.066C283.226 192.154 235.519 182.715 221.776 181.491C208.032 180.267 189.246 189.628 187.813 198.633C186.38 207.638 191.499 196.949 194.903 196.72C198.306 196.49 192.343 205.852 197.82 202.791C203.297 199.73 239.358 230.851 239.358 230.851L295.434 204.066Z" fill="#0088FF"/>
<path d="M218.453 192.787C216.964 196.637 210.906 199.742 204.925 199.742C198.944 199.742 195.299 196.637 196.813 192.787C198.328 188.938 204.36 185.807 210.341 185.807C216.323 185.807 219.942 188.938 218.453 192.787Z" fill="#2C2BCA"/>
<path d="M260.501 188.296C259.012 192.146 252.954 195.251 246.973 195.251C240.992 195.251 237.372 192.146 238.861 188.296C240.35 184.447 246.408 181.316 252.389 181.316C258.37 181.316 261.99 184.447 260.501 188.296Z" fill="#2C2BCA"/>
<path d="M263.017 221.452C261.528 225.302 255.47 228.407 249.489 228.407C243.508 228.407 239.888 225.302 241.377 221.452C242.866 217.603 248.924 214.472 254.905 214.472C260.886 214.472 264.506 217.603 263.017 221.452Z" fill="#2C2BCA"/>
<path d="M239.092 205.465C238.274 206.752 237.132 207.802 235.781 208.509C234.429 209.216 232.915 209.556 231.391 209.494C227.925 209.494 225.846 207.672 226.693 205.465C227.517 204.151 228.677 203.082 230.054 202.369C231.431 201.656 232.974 201.325 234.523 201.41C237.757 201.41 239.965 203.232 239.092 205.465Z" fill="#2C2BCA"/>
<path d="M270.923 201.41C270.101 202.725 268.941 203.796 267.564 204.509C266.186 205.223 264.642 205.553 263.094 205.465C259.654 205.465 257.549 203.643 258.396 201.41C259.217 200.126 260.36 199.079 261.711 198.372C263.062 197.666 264.573 197.324 266.097 197.381C269.691 197.458 271.796 199.203 270.923 201.41Z" fill="#2C2BCA"/>
<path d="M257.646 237.034C257.646 239.072 257.041 241.065 255.909 242.76C254.777 244.455 253.167 245.775 251.284 246.555C249.401 247.335 247.329 247.54 245.329 247.142C243.33 246.744 241.494 245.763 240.053 244.321C238.611 242.88 237.63 241.044 237.232 239.045C236.835 237.046 237.039 234.973 237.819 233.09C238.599 231.207 239.92 229.598 241.614 228.465C243.309 227.333 245.302 226.728 247.34 226.728C250.073 226.728 252.695 227.814 254.627 229.747C256.56 231.68 257.646 234.301 257.646 237.034Z" fill="#FF705B"/>
<path d="M310.549 212.878C310.549 210.173 309.467 207.58 307.542 205.668C305.617 203.756 303.005 202.681 300.282 202.681C299.244 202.693 298.213 202.865 297.228 203.191V203.191L296.843 203.344C296.337 203.523 295.848 203.745 295.38 204.007L242.531 227.79L249.769 246.653L304.338 222.284L304.697 222.131C306.456 221.299 307.94 219.987 308.977 218.349C310.013 216.71 310.558 214.813 310.549 212.878V212.878Z" fill="#FF705B"/>
<path d="M247.89 248.714C247.562 248.714 247.247 248.577 247.015 248.334C246.783 248.091 246.653 247.76 246.653 247.416C246.653 247.072 246.783 246.742 247.015 246.499C247.247 246.255 247.562 246.119 247.89 246.119C250.185 246.119 252.387 245.161 254.011 243.458C255.634 241.754 256.546 239.443 256.546 237.034C256.546 234.625 255.634 232.314 254.011 230.61C252.387 228.907 250.185 227.95 247.89 227.95C247.562 227.95 247.247 227.813 247.015 227.57C246.783 227.326 246.653 226.996 246.653 226.652C246.653 226.308 246.783 225.978 247.015 225.734C247.247 225.491 247.562 225.354 247.89 225.354C250.841 225.354 253.672 226.585 255.76 228.775C257.847 230.966 259.02 233.936 259.02 237.034C259.02 240.132 257.847 243.103 255.76 245.293C253.672 247.484 250.841 248.714 247.89 248.714Z" fill="#090929"/>
<path d="M25.8847 309.175C25.8847 309.175 -20.3629 412.864 10.7771 439.159C53.2479 475.144 87.06 424.559 87.06 424.559L96.8748 315.19L25.8847 309.175Z" fill="#A0D4FF"/>
<path d="M376.73 309.175C376.73 309.175 422.977 412.864 391.837 439.159C349.367 475.144 315.555 424.559 315.555 424.559L305.74 315.19L376.73 309.175Z" fill="#A0D4FF"/>
<path d="M99.4677 260.181C67.7947 236.281 71.1653 196.84 81.0197 186.223C90.8741 175.607 92.0319 191.506 88.0438 199.686C84.0558 207.867 92.2892 218.381 92.2892 218.381C92.2892 218.381 92.6237 196.25 98.6959 188.172C104.768 180.094 113.851 175.53 119.691 179.274C121.981 180.761 120.489 183.71 120.489 183.71C121.789 182.689 123.373 182.092 125.026 182C126.679 181.908 128.32 182.326 129.726 183.197C134.872 186.685 132.17 193.686 132.17 193.686C132.17 193.686 141.253 191.685 140.969 198.815C140.712 205.508 135.206 210.816 130.292 217.33C124.22 225.407 126.715 236.127 130.935 237.204C135.155 238.281 151.519 244.897 154.683 260.283C160.575 289.133 120.489 390.248 120.489 390.248H23.3599L99.4677 260.181Z" fill="#A0D4FF"/>
<path d="M102.594 215.735C102.29 215.739 101.995 215.63 101.765 215.429C101.534 215.228 101.383 214.95 101.34 214.645C100.389 207.673 101.428 200.572 104.334 194.181C106.56 189.871 118.281 183.015 119.689 182.236C119.984 182.068 120.333 182.025 120.659 182.118C120.986 182.21 121.262 182.43 121.429 182.729C121.516 182.875 121.573 183.037 121.596 183.206C121.62 183.375 121.61 183.546 121.567 183.711C121.524 183.876 121.449 184.03 121.346 184.165C121.243 184.299 121.115 184.412 120.968 184.495C117.514 186.495 108.173 192.286 106.663 195.376C104.018 201.246 103.043 207.749 103.848 214.151C103.893 214.494 103.806 214.842 103.606 215.122C103.406 215.402 103.108 215.594 102.773 215.657L102.594 215.735Z" fill="#090929"/>
<path d="M114.24 224.667C113.939 224.665 113.647 224.556 113.418 224.36C113.189 224.164 113.037 223.894 112.989 223.596C112.085 216.759 113.157 209.806 116.079 203.557C118.3 199.324 129.995 192.593 131.4 191.854C131.544 191.772 131.703 191.719 131.867 191.698C132.032 191.678 132.199 191.69 132.359 191.733C132.519 191.777 132.669 191.852 132.8 191.954C132.931 192.055 133.041 192.182 133.123 192.326C133.205 192.47 133.258 192.628 133.279 192.793C133.3 192.957 133.288 193.124 133.244 193.284C133.2 193.444 133.125 193.593 133.023 193.724C132.922 193.855 132.795 193.965 132.651 194.047C129.229 196.01 119.883 201.695 118.402 204.729C115.767 210.502 114.786 216.892 115.568 223.188C115.62 223.519 115.539 223.857 115.343 224.129C115.147 224.401 114.852 224.585 114.521 224.642L114.24 224.667Z" fill="#090929"/>
<path d="M23.285 391.621C23.0485 391.626 22.8154 391.564 22.6134 391.442C22.3252 391.266 22.1163 390.987 22.0297 390.662C21.9432 390.337 21.9857 389.992 22.1485 389.697L98.5777 259.666C98.749 259.37 99.0316 259.153 99.3634 259.064C99.6952 258.975 100.049 259.021 100.347 259.191C100.645 259.361 100.863 259.642 100.952 259.972C101.042 260.301 100.996 260.653 100.825 260.949L24.3956 390.98C24.283 391.174 24.1212 391.335 23.9263 391.448C23.7315 391.56 23.5104 391.62 23.285 391.621Z" fill="#090929"/>
<path d="M304.495 260.26C336.168 236.337 332.797 196.858 322.969 186.231C313.14 175.604 311.931 191.519 315.919 199.707C319.907 207.896 311.699 218.42 311.699 218.42C311.699 218.42 311.365 196.268 305.267 188.182C299.169 180.096 290.112 175.527 284.297 179.275C281.982 180.764 283.5 183.716 283.5 183.716C282.2 182.693 280.615 182.096 278.962 182.004C277.31 181.912 275.669 182.33 274.263 183.202C268.962 186.693 271.818 193.701 271.818 193.701C271.818 193.701 262.736 191.699 262.993 198.835C263.251 205.534 268.782 210.848 273.697 217.368C279.769 225.453 277.247 236.183 273.053 237.261C268.859 238.339 252.47 244.962 249.305 260.363C243.413 289.138 283.5 390.248 283.5 390.248H380.629L304.495 260.26Z" fill="#A0D4FF"/>
<path d="M301.361 215.734H301.157C300.99 215.705 300.831 215.644 300.689 215.552C300.546 215.461 300.422 215.341 300.325 215.201C300.228 215.061 300.159 214.902 300.122 214.734C300.085 214.566 300.081 214.393 300.11 214.224C300.919 207.802 299.937 201.279 297.278 195.401C295.695 192.329 286.457 186.497 283.038 184.492C282.889 184.411 282.759 184.3 282.654 184.166C282.549 184.032 282.471 183.878 282.426 183.712C282.381 183.547 282.369 183.374 282.39 183.204C282.412 183.034 282.467 182.87 282.553 182.722C282.724 182.427 282.999 182.211 283.323 182.119C283.646 182.027 283.992 182.065 284.288 182.227C285.615 183.008 297.329 189.881 299.6 194.203C302.506 200.58 303.576 207.667 302.688 214.64C302.638 214.957 302.475 215.244 302.23 215.446C301.985 215.648 301.675 215.751 301.361 215.734Z" fill="#090929"/>
<path d="M289.673 224.666H289.468C289.138 224.61 288.843 224.426 288.647 224.154C288.451 223.882 288.37 223.544 288.422 223.212C289.233 216.914 288.251 210.514 285.589 204.747C284.007 201.738 274.768 196.025 271.348 194.061C271.054 193.895 270.838 193.619 270.747 193.294C270.656 192.969 270.698 192.621 270.863 192.327C270.945 192.181 271.055 192.053 271.188 191.95C271.32 191.848 271.472 191.773 271.634 191.73C271.795 191.687 271.964 191.677 272.13 191.701C272.296 191.725 272.455 191.781 272.599 191.867C273.926 192.607 285.64 199.34 287.912 203.574C290.832 209.825 291.903 216.781 291 223.62C290.939 223.924 290.772 224.196 290.529 224.388C290.286 224.579 289.982 224.678 289.673 224.666Z" fill="#090929"/>
<path d="M380.731 391.622C380.507 391.62 380.288 391.56 380.094 391.448C379.901 391.335 379.74 391.174 379.629 390.98L303.792 260.833C303.662 260.543 303.643 260.215 303.74 259.912C303.836 259.61 304.042 259.354 304.316 259.194C304.59 259.034 304.914 258.982 305.224 259.047C305.535 259.113 305.81 259.292 305.997 259.549L381.833 389.696C382.001 389.989 382.047 390.337 381.96 390.664C381.874 390.991 381.662 391.27 381.371 391.442C381.179 391.561 380.957 391.623 380.731 391.622V391.622Z" fill="#090929"/>
<path d="M263.726 75.0603C270.224 73.7359 275.999 70.0447 279.928 64.7032C283.858 59.3618 285.662 52.7512 284.99 46.1548C284.319 39.5584 281.219 33.4468 276.294 29.0065C271.368 24.5662 264.968 22.1139 258.336 22.1258C254.811 22.1183 251.32 22.8162 248.069 24.1785C247.578 19.0221 245.598 14.1196 242.37 10.0682C239.141 6.01669 234.804 2.991 229.887 1.35953C224.969 -0.271946 219.683 -0.438817 214.673 0.879233C209.662 2.19728 205.143 4.94339 201.665 8.78316C198.188 4.94339 193.668 2.19728 188.658 0.879233C183.647 -0.438817 178.361 -0.271946 173.443 1.35953C168.526 2.991 164.189 6.01669 160.961 10.0682C157.732 14.1196 155.752 19.0221 155.261 24.1785C152.01 22.8162 148.519 22.1183 144.994 22.1258C141.476 22.1157 137.99 22.7998 134.736 24.1389C131.483 25.478 128.525 27.4458 126.034 29.9295C123.542 32.4133 121.565 35.3641 120.216 38.613C118.868 41.8618 118.173 45.3449 118.173 48.8625C118.322 54.3343 119.927 59.6676 122.824 64.313C125.72 68.9583 129.802 72.7479 134.651 75.2912C135.447 75.2912 141.196 96.6651 143.326 93.0215C146.842 87.043 150.282 69.2613 150.282 69.2613C150.282 69.2613 193.401 60.3064 194.248 42.1911C194.248 42.1911 202.538 53.9173 212.394 52.4547C218.3 51.6471 223.818 49.0502 228.204 45.0136C228.204 45.0136 239.805 67.0547 250.251 68.9534C258.746 80.9362 255.179 93.0729 257.283 92.2774C261.57 90.7379 261.955 75.3938 263.726 75.0603Z" fill="#2C2BCA"/>
<path d="M146.816 83.5194C146.816 83.5194 134.765 74.2458 126.689 80.4789C118.613 86.712 123.955 108.097 140.563 101.965C149.474 98.6713 149.778 93.7812 149.778 93.7812L146.816 83.5194Z" fill="#A0D4FF"/>
<path d="M142.3 90.6913H142.04L130.242 88.4508C129.898 88.3867 129.593 88.191 129.396 87.9069C129.198 87.6228 129.124 87.2735 129.19 86.9359C129.255 86.5983 129.455 86.2999 129.745 86.1066C130.035 85.9132 130.391 85.8406 130.736 85.9047L142.534 88.1198C142.873 88.1876 143.172 88.3827 143.366 88.6635C143.561 88.9442 143.635 89.2882 143.574 89.622C143.525 89.9189 143.37 90.1892 143.137 90.3849C142.904 90.5807 142.607 90.6892 142.3 90.6913Z" fill="#090929"/>
<path d="M255.798 83.5194C255.798 83.5194 267.849 74.2458 275.925 80.4789C284.001 86.712 278.659 108.097 262.052 101.965C253.14 98.6713 252.836 93.7812 252.836 93.7812L255.798 83.5194Z" fill="#A0D4FF"/>
<path d="M260.314 90.6404C260.015 90.6405 259.724 90.5391 259.492 90.3535C259.26 90.168 259.101 89.9095 259.041 89.622C258.98 89.2882 259.054 88.9442 259.248 88.6634C259.443 88.3827 259.741 88.1876 260.08 88.1198L271.879 85.9047C272.223 85.8406 272.58 85.9132 272.87 86.1066C273.16 86.3 273.359 86.5983 273.425 86.9359C273.49 87.2735 273.416 87.6228 273.219 87.9069C273.022 88.191 272.717 88.3866 272.372 88.4508L260.574 90.6913L260.314 90.6404Z" fill="#090929"/>
<path d="M352.46 467.198H50.1553L109.043 360.704H293.572L352.46 467.198Z" fill="#0088FF"/>
<path d="M66.6445 467.198L112.334 374.445H289.62L335.283 467.198H66.6445Z" fill="#2C2BCA"/>
<path d="M251.694 392.693C267.101 399.168 276.883 408.459 276.883 418.748C276.883 438.301 241.963 454.144 198.903 454.144C155.842 454.144 120.922 438.301 120.922 418.748C120.922 399.194 155.842 383.377 198.903 383.377L199.339 411.837L251.694 392.693Z" fill="#0088FF"/>
<path d="M188.94 391.965C188.94 394.774 185.565 397.118 181.383 397.118C177.201 397.118 173.825 394.851 173.825 391.965C173.825 389.08 177.201 386.812 181.383 386.812C185.565 386.812 188.94 389.157 188.94 391.965Z" fill="#2C2BCA"/>
<path d="M174.512 422.196C174.512 425.004 171.136 427.348 166.955 427.348C162.773 427.348 159.397 425.081 159.397 422.196C159.397 419.31 162.773 417.043 166.955 417.043C171.136 417.043 174.512 419.413 174.512 422.196Z" fill="#2C2BCA"/>
<path d="M233.599 444.181C233.599 446.964 230.043 449.334 225.698 449.334C221.352 449.334 217.796 447.067 217.796 444.181C217.796 441.296 221.326 439.028 225.698 439.028C230.069 439.028 233.599 441.373 233.599 444.181Z" fill="#2C2BCA"/>
<path d="M261.768 428.379C261.768 431.187 258.392 433.532 254.21 433.532C250.029 433.532 246.653 431.265 246.653 428.379C246.653 425.493 250.029 423.226 254.21 423.226C258.392 423.226 261.768 425.597 261.768 428.379Z" fill="#2C2BCA"/>
<path d="M166.955 442.12C166.955 444.929 163.579 447.273 159.397 447.273C155.215 447.273 151.839 445.006 151.839 442.12C151.839 439.235 155.24 436.967 159.397 436.967C163.554 436.967 166.955 439.312 166.955 442.12Z" fill="#2C2BCA"/>
<path d="M151.839 403.302C151.839 405.185 149.348 406.737 146.261 406.737C143.175 406.737 140.846 405.185 140.846 403.302C140.846 401.419 143.337 399.866 146.261 399.866C149.186 399.866 151.839 401.393 151.839 403.302Z" fill="#2C2BCA"/>
<path d="M144.282 418.747C144.282 420.078 142.729 421.165 140.846 421.165C138.963 421.165 137.411 420.078 137.411 418.747C137.411 417.415 138.938 416.356 140.846 416.356C142.755 416.356 144.282 417.415 144.282 418.747Z" fill="#2C2BCA"/>
<path d="M208.865 436.956C208.865 438.097 207.185 439.028 205.086 439.028C202.987 439.028 201.307 438.097 201.307 436.956C201.307 435.814 203.015 434.906 205.086 434.906C207.157 434.906 208.865 435.838 208.865 436.956Z" fill="#2C2BCA"/>
<path d="M246.653 403.302C246.653 405.185 244.192 406.737 241.17 406.737C238.148 406.737 235.66 405.185 235.66 403.302C235.66 401.419 238.121 399.866 241.17 399.866C244.219 399.866 246.653 401.393 246.653 403.302Z" fill="#2C2BCA"/>
<path d="M197.185 414.969C197.185 416.884 194.878 418.417 192.019 418.417C189.161 418.417 186.879 416.884 186.879 414.969C186.879 413.053 189.186 411.546 192.019 411.546C194.853 411.546 197.185 413.079 197.185 414.969Z" fill="#2C2BCA"/>
<path d="M230.164 418.417C230.164 420.325 227.828 421.852 225.087 421.852C222.346 421.852 219.858 420.325 219.858 418.417C219.858 416.508 222.193 414.982 225.087 414.982C227.981 414.982 230.164 416.534 230.164 418.417Z" fill="#2C2BCA"/>
<path d="M256.576 389.595C273.716 396.762 284.441 407.026 284.441 418.417C284.441 440.046 245.953 457.579 198.229 457.579C150.504 457.579 111.99 440.046 111.99 418.417C111.99 396.788 150.606 379.255 198.229 379.255C201.692 379.255 201.282 390.082 198.382 390.082H187.837C147.656 392.385 122.536 407.641 122.536 418.417C122.536 430.089 152.018 447.059 198.229 447.059C244.44 447.059 273.895 430.089 273.895 418.417C273.895 412.76 267.199 406.233 256.191 400.96C250.803 398.401 243.362 396.327 240.796 395.355C237.076 393.281 243.926 384.092 256.576 389.595Z" fill="#FF705B"/>
<path d="M352.46 467.198H50.1553V483H352.46V467.198Z" fill="white"/>
<path d="M113.283 375.819C112.988 375.818 112.701 375.725 112.467 375.557C112.233 375.388 112.065 375.152 111.988 374.885L107.913 360.964C107.866 360.798 107.856 360.625 107.881 360.455C107.906 360.286 107.967 360.122 108.06 359.974C108.152 359.826 108.275 359.697 108.421 359.594C108.567 359.491 108.734 359.415 108.911 359.372C109.088 359.329 109.273 359.319 109.454 359.342C109.636 359.366 109.81 359.423 109.968 359.51C110.126 359.597 110.264 359.712 110.374 359.848C110.485 359.985 110.565 360.141 110.612 360.307L114.687 374.228C114.736 374.387 114.75 374.554 114.729 374.718C114.707 374.883 114.651 375.042 114.563 375.185C114.475 375.329 114.357 375.455 114.216 375.555C114.075 375.655 113.914 375.728 113.742 375.769L113.283 375.819Z" fill="#090929"/>
<path d="M289.794 375.819H289.473C289.317 375.778 289.169 375.705 289.041 375.604C288.912 375.503 288.804 375.377 288.724 375.232C288.643 375.088 288.592 374.928 288.572 374.763C288.553 374.597 288.566 374.429 288.61 374.269L292.309 360.268C292.351 360.106 292.425 359.954 292.525 359.821C292.625 359.688 292.75 359.577 292.892 359.494C293.035 359.411 293.191 359.359 293.354 359.339C293.516 359.319 293.68 359.333 293.837 359.379C293.994 359.42 294.141 359.493 294.27 359.594C294.398 359.695 294.506 359.821 294.587 359.966C294.667 360.11 294.719 360.27 294.738 360.436C294.758 360.601 294.745 360.769 294.7 360.929L290.977 374.93C290.898 375.189 290.741 375.415 290.528 375.575C290.315 375.735 290.057 375.821 289.794 375.819Z" fill="#090929"/>
<path d="M351.973 468.572H50.0566C49.8355 468.571 49.6184 468.514 49.4254 468.406C49.2323 468.298 49.0697 468.143 48.9527 467.955C48.8401 467.76 48.7808 467.538 48.7808 467.313C48.7808 467.087 48.8401 466.866 48.9527 466.67L107.739 359.998C107.852 359.797 108.016 359.63 108.214 359.512C108.413 359.395 108.638 359.332 108.869 359.33H293.187C293.417 359.332 293.643 359.395 293.841 359.512C294.039 359.63 294.203 359.797 294.316 359.998L352.974 466.67C353.087 466.866 353.146 467.087 353.146 467.313C353.146 467.538 353.087 467.76 352.974 467.955C352.867 468.129 352.721 468.275 352.547 468.382C352.373 468.489 352.177 468.554 351.973 468.572V468.572ZM52.2129 466.002H349.791L292.391 361.9H109.613L52.2129 466.002Z" fill="#090929"/>
</svg>
