<?xml version="1.0" encoding="utf-8"?>
<!-- Generator: Adobe Illustrator 25.4.0, SVG Export Plug-In . SVG Version: 6.00 Build 0)  -->
<svg version="1.1" id="Layer_1" xmlns="http://www.w3.org/2000/svg" xmlns:xlink="http://www.w3.org/1999/xlink" x="0px" y="0px"
	 viewBox="0 0 911.7 300" style="enable-background:new 0 0 911.7 300;" xml:space="preserve">
<style type="text/css">
	.st0{fill:#2160E8;}
</style>
<g>
	<path class="st0" d="M145.2,244.7c-2,0-3.8-1.7-3.8-3.7s1.7-3.7,3.7-3.7s3.7,1.6,3.7,3.6C148.8,243,147.2,244.7,145.2,244.7z
		 M145.1,229.9c-2,0-3.7-1.8-3.7-3.8c0.1-2,1.8-3.6,3.8-3.6s3.7,1.7,3.6,3.8C148.8,228.2,147.1,229.9,145.1,229.9z M145.1,215
		c-2,0-3.8-1.7-3.7-3.8c0-2,1.7-3.6,3.7-3.6s3.7,1.7,3.7,3.7C148.8,213.3,147.1,215,145.1,215z M145.1,200.2c-2,0-3.8-1.8-3.7-3.8
		c0-2,1.7-3.6,3.8-3.6c2,0,3.7,1.7,3.6,3.7C148.8,198.5,147.1,200.2,145.1,200.2z"/>
</g>
<g>
	<path class="st0" d="M269.5,104.5c-1.4-5.9-3.4-11.6-6.3-16.9c-3.8-7.1-12.9-9.6-18.4-8.1c-4.4,1.2-7.5,3.7-10.3,7
		c-2.6,3.1-5.3,6-8.2,9.3c0.6-11.7-1.4-23.2-6-34.4C203.6,21.7,162,1.5,118.6,14.5c-6.4,1.9-12.3,5.6-18.4,8.6c-2.4,1.2-3,3.7-1.5,6
		c1.4,2.2,3.6,2.4,5.9,1.1c0.8-0.4,1.5-0.9,2.3-1.3c18.1-10.4,37.2-12.9,57.3-7.4c28.9,7.9,51,34,53.5,65.5c2,25.5-10,47-33.7,56.4
		c-25.3,10-51.1,9.9-76.7,1.2c-11.5-3.9-21.3-10.7-28-21.2c-10.9-17.2-10.7-35.6-4.9-54.3c2.9-9.5,8-17.8,14.4-25.4
		c1.2-1.4,2-3.9,1.6-5.6c-0.9-3.4-4.8-3.5-7.6-0.2C68.2,55.1,61.3,74.5,62.4,96c-3-3.3-5.7-6.4-8.4-9.5c-2.8-3.3-5.9-5.8-10.3-7
		c-5.6-1.5-14.7,1-18.4,8.1c-2.9,5.4-4.9,11.1-6.3,16.9c-6.4,27.4-1.1,52.5,14.8,75.4c3.9,5.7,8.2,11.2,13.9,15.3
		c0.8,0.5,4.5,3.1,10.1,5.3c1.8,0.7,6.5,2.5,12.9,3.3c4.2,0.5,9.2,0.7,14.7-0.2c1.6-0.3,3.1-0.5,4.4-0.8c0.3-0.1,0.6-0.1,0.9-0.2
		c3.2,7.6,6.9,15.1,10.8,22.4c9.8,18.4,20.4,36.3,33.3,52.4c2.1,2.6,4.5,5,6.9,7.2s4.1,2,6.6,0c1.1-0.9,2.2-2,3.2-3.1
		c4.9-5.2,9.1-11,13.2-17c8.8-13,16.9-26.5,24.2-40.5c3.6-6.9,7-13.8,10.1-21c1.2,0.2,2.5,0.5,3.9,0.7c3.7,0.6,7.2,0.7,10.4,0.5
		c8.6-0.4,15-2.8,17.2-3.7c5.6-2.2,9.4-4.8,10.1-5.3c5.7-4.1,10-9.6,13.9-15.3C270.5,157,275.9,131.9,269.5,104.5z M145.9,269.2
		c-0.6,0.2-1.1,0.2-1.7,0c-4.2-7.7-8.6-15.3-12.4-23.2c-6-12.3-9.6-25.4-11.4-39.1c-0.5-4.3-0.8-8.7-1.2-13c0-0.3,0-0.6,0-0.9
		c2.5-0.2,4.9-0.3,7.3-0.7c4.5-0.6,8.7-2,11.9-5.4c1.1-1.2,2.2-1.6,3.7-1.5c2.5,0.1,4.9,0,7.4,0c0.4,0,1,0.1,1.2,0.4
		c3.4,4.2,8.1,5.8,13.2,6.5c2.3,0.3,4.7,0.4,7,0.6C170.5,221,160.6,245.9,145.9,269.2z M119.2,163.2c4.5,0.4,8.9,1.2,13,3.3
		c1.3,0.7,1.9,1.5,1.8,3.1c-0.1,3.4,0,6.8-0.1,10.1c0,0.6-0.3,1.5-0.7,1.8c-1.3,1-2.7,2-4.3,2.6c-3.1,1.2-6.4,1.2-9.7,1.3
		C119.2,177.9,119.2,170.6,119.2,163.2z M141.5,177.9c0-2.4,0-4.8,0-7.3c2.4,0,4.8,0,7.3,0c0,2.4,0,4.8,0,7.3
		C146.3,177.9,143.9,177.9,141.5,177.9z M160.6,183.9c-0.8-0.3-1.5-0.7-2.2-1.1c-1.5-0.9-2.3-2.1-2.2-4c0.2-3.2,0.1-6.4,0-9.6
		c0-1.1,0.5-1.7,1.3-2.3c2.6-1.6,5.6-2.4,8.6-3c1.6-0.3,3.2-0.5,4.9-0.7c0,7.5,0,14.8,0,22.2C167.4,185.3,163.9,185.2,160.6,183.9z
		 M29.1,103.7c1.1-3.9,2.6-7.8,4.5-11.4c2.2-4.3,7.8-5.2,11.1-1.8c3.6,3.6,6.7,7.7,10.3,11.8c-6.1,6.4-11.1,13.4-15.2,20.9
		c-4,7.5-7.6,15.2-11.4,23C24.7,131.9,25,117.8,29.1,103.7z M42.1,175.9c-3.2-5.4-5.9-10-8.6-14.5c3.4-11.1,7.7-21.1,12.9-30.7
		c3.7-6.9,7.8-13.6,13.2-19.4c0.6-0.6,1.3-1.1,1.9-1.6c2.4,1.9,4.3,4,5.6,6.5c0.6,1.6,1.1,3,1.5,4.3c0.1,0.3,0.2,0.6,0.2,1
		C56.2,137.3,48.7,155.9,42.1,175.9z M72,194.2c-2.8-0.2-5.8-0.8-9.1-1.9c-6.2-2.1-10.6-5.4-13.2-7.6c0.3-1.4,0.5-2.7,0.9-3.9
		c1.7-5.2,3.3-10.5,5.2-15.7c4-11,9-21.5,15.5-31.3c0.3-0.4,0.6-0.9,1-1.3c0.4-0.5,0.8-0.9,1.2-1.3c3.2,4.1,6.4,8.3,9.6,12.4l0,0
		c-1.2,4.9-1.9,9.7-2.1,14.5c-0.6,3.3-1.1,6.9-1.3,10.8c-0.3,5.7,0.1,10.9,0.8,15.3c0.5,3.6,1.2,6.8,1.9,9.4
		C80.2,194.1,76.5,194.6,72,194.2z M100.6,200.5c-2.9-6.8-5.6-13.7-7.4-20.9c-1.4-5.4-1.3-10.8-0.6-16.2c0.6-5,1.8-9.7,3.5-14.1
		c1.2,0.5,2.4,1,3.6,1.5c5.3,2.1,10.5,3.8,15.8,5.1h-0.1c-2.2,0-3.6,1.6-3.7,3.8c0,1.4-0.1,2.8,0,4.2c0,0.3,0,0.5-0.1,0.7v9.4
		c0,0,0,0,0.1,0c0,0.6,0,1.1,0,1.5c0.1,7-0.1,14,0.2,21c0.6,14.8,3.6,29,8.7,42.6c-0.4-0.7-0.9-1.4-1.3-2.1
		C112.5,225.1,106.1,213.1,100.6,200.5z M183.7,212.9c-4.3,8.5-8.8,16.9-13.7,25c3.8-10.5,6.4-21.3,7.6-32.5
		c0.6-5.7,0.7-11.4,0.9-17.1v-25.5c0-0.1,0-0.2,0-0.3l0,0c0-0.8,0.1-1.6,0.1-2.4c0-2.8-1.5-4.4-4.2-4.2c-0.6,0-1.3,0.1-1.9,0.1
		c6-1.5,12-3.4,18-5.9l3.4-1.5c3,7.5,4.5,15.7,4.1,24.4c-0.1,3.6-1.1,7.2-2.1,10.7C192.8,193.8,188.4,203.4,183.7,212.9z
		 M225.5,192.3c-4.4,1.5-8.6,2-12,2c-3.2,0-5.8-0.3-7.5-0.6c1.2-4.5,2.5-10.8,2.7-18.3c0.1-2,0.1-4.2,0-6.4
		c-0.2-3.5-0.6-6.8-1.1-9.8c-0.2-5.3-1-10.5-2.2-15.8c0,0,0-0.1,0.1-0.1c3.1-4.1,6.3-8.1,9.4-12.2l0,0c0.6,0.7,1.5,1.6,2.1,2.5
		c6.5,9.8,11.5,20.3,15.5,31.3c1.9,5.2,3.5,10.4,5.2,15.7c0.4,1.2,0.6,2.5,0.9,3.9C236.1,186.9,231.8,190.1,225.5,192.3z
		 M246.4,175.9c-6.5-19.7-13.9-38.1-26.3-53.8c0.3-0.6,0.6-1.1,0.8-1.6c1.2-2.7,2.5-6.3,2.4-6.4l0,0c0.1-0.4,0.2-0.8,0.2-1.1
		c1-1.1,2.1-2.2,3.4-3.3c0.6,0.5,1.3,1,1.9,1.6c5.4,5.8,9.5,12.5,13.2,19.4c5.2,9.6,9.5,19.6,12.9,30.7
		C252.3,165.9,249.5,170.5,246.4,175.9z M260.1,146.2c-3.8-7.7-7.4-15.4-11.4-23c-4-7.6-9-14.5-15.2-20.9c3.6-4.1,6.7-8.2,10.3-11.8
		c3.3-3.4,8.9-2.5,11.1,1.8c1.9,3.6,3.3,7.5,4.5,11.4C263.5,117.8,263.7,131.9,260.1,146.2z"/>
</g>
<g>
	<path class="st0" d="M149.5,114.9c8.8-5.6,13.5-13.6,13.8-23.1c0-10.8-6.5-19.1-15.6-20.7c-9.3-1.7-17.9,3.3-21.2,12.2
		c-4.2,11.5,2.5,27.3,13.7,32.2C143.4,116.9,146.6,116.7,149.5,114.9z M133.7,91.1c-0.1-7,4.4-12.1,10.6-12
		c6.2,0.1,10.7,5.3,10.5,12.2c-0.2,6.7-3.3,11.9-8.7,15.6c-0.8,0.6-2.7,0.6-3.5,0.1C137.1,103.2,133.8,98,133.7,91.1z"/>
</g>
<g>
	<path class="st0" d="M179.2,76.5c0.4-2.8,1.5-4.7,4.5-4.8c3.2-0.1,4.5,2,4.9,4.8s2.1,4.2,4.9,3.8c2.7-0.4,3.5-2.4,3.4-4.9
		c-0.2-6.6-6.2-12.2-13-12.2c-6.7,0-12.5,5.3-13,11.9c-0.2,2.7,0.7,4.7,3.5,5.2C177.1,80.7,178.8,79.2,179.2,76.5z"/>
</g>
<g>
	<path class="st0" d="M95.2,80.3c2.8,0.4,4.4-1.1,4.8-3.9c0.4-2.7,1.6-4.7,4.6-4.7s4.3,1.8,4.7,4.6c0.3,2.7,1.9,4.2,4.7,4
		c2.5-0.2,3.9-2.4,3.7-5.4c-0.7-6.7-6.4-11.8-13.1-11.8c-6.7,0.1-12.5,5.4-12.9,12C91.6,77.8,92.3,79.9,95.2,80.3z"/>
</g>
<g>
	<path class="st0" d="M145.2,207.6c-2,0-3.7,1.6-3.7,3.6s1.7,3.8,3.7,3.8s3.7-1.7,3.7-3.7C148.8,209.3,147.2,207.7,145.2,207.6z"/>
</g>
<g>
	<path class="st0" d="M145.2,222.5c-2,0-3.7,1.6-3.8,3.6s1.6,3.8,3.7,3.8c2,0,3.7-1.6,3.7-3.7C148.9,224.2,147.2,222.5,145.2,222.5z
		"/>
</g>
<g>
	<path class="st0" d="M145.1,237.3c-2,0-3.7,1.7-3.7,3.7s1.7,3.8,3.8,3.7c2,0,3.6-1.8,3.6-3.8C148.8,238.9,147.1,237.3,145.1,237.3z
		"/>
</g>
<g>
	<path class="st0" d="M145.2,192.8c-2,0-3.7,1.6-3.8,3.6c0,2,1.7,3.8,3.7,3.8s3.7-1.7,3.7-3.7C148.8,194.5,147.2,192.8,145.2,192.8z
		"/>
</g>
<path class="st0" d="M327.9,222.5V78.3h67.3c14.9,0,26.9,3.1,36.1,9.3c9.2,6.2,13.8,15.8,13.8,28.7c0,14.3-6.8,24.7-20.4,31.2
	c16.4,6.1,24.6,17.7,24.6,34.8c0,13.6-4.9,23.7-14.8,30.3c-9.8,6.6-22.5,9.9-38.1,9.9H327.9z M361.7,135.9h31.2
	c12.3,0,18.5-4.7,18.5-14c0-9.5-6.2-14.2-18.5-14.2h-31.2V135.9z M361.7,193.2h33.1c13.9,0,20.8-5.1,20.8-15.3c0-5-1.9-8.7-5.6-11.1
	c-3.8-2.5-8.5-3.7-14.3-3.7h-34V193.2z"/>
<path class="st0" d="M520.3,225.7c-18.7,0-33.5-5.4-44.4-16.1c-10.9-10.8-16.3-25.4-16.3-43.9c0-17.7,5.4-32.1,16.1-43.2
	c10.8-11.1,24.9-16.7,42.5-16.7c16.7,0,29.6,5.5,38.9,16.3c9.2,10.9,13.8,25.2,13.8,42.9c0,4.8-0.3,8.6-0.8,11.3h-76.2
	c0.7,6.8,4,11.9,10,15.4c5.9,3.5,13,5.2,21,5.2c15.6,0,28.9-3.5,40.1-10.4h1.9v29.9C553.4,222.5,537.9,225.7,520.3,225.7z
	 M493.5,153.3h45c0-6.5-1.8-11.5-5.4-15.1c-3.6-3.5-8.6-5.3-15-5.3c-7.1,0-12.8,1.7-17.1,5.1C496.7,141.4,494.2,146.5,493.5,153.3z"
	/>
<path class="st0" d="M585.9,222.5V108.7H619v13.8c7.1-11.2,18.1-16.8,33.1-16.8c11.6,0,21.1,3.6,28.6,10.7
	c7.4,7.1,11.1,16.4,11.1,27.7v78.3h-33.3v-66.7c0-6.5-1.6-11.6-4.8-15.2c-3.2-3.6-7.9-5.4-14.1-5.4c-6.4,0-11.4,1.9-15.1,5.6
	c-3.7,3.8-5.5,8.7-5.5,15v66.7L585.9,222.5L585.9,222.5z"/>
<path class="st0" d="M720.7,222.5v-86h-21v-27.8h21V81.5H754v27.2h25.9v27.8H754v86H720.7z"/>
<path class="st0" d="M827.9,225.7c-15.3,0-29.2-3.1-41.6-9.3v-29.9h1.9c11.5,7.1,24.7,10.6,39.7,10.6c3.7,0,6.9-0.7,9.8-2
	c2.8-1.3,4.2-3.4,4.2-6.3c0-4-3.3-6.7-9.8-8.1l-16.6-4.2c-9.2-2.4-16.7-6.4-22.5-12s-8.7-12.6-8.7-20.9c0-12.2,4.4-21.5,13.1-28
	c8.7-6.5,19.7-9.8,33-9.8c14.7,0,27.6,3.1,38.6,9.3v29.7h-1.7c-10.9-6.9-23.2-10.4-36.9-10.4c-9.1,0-13.6,2.7-13.6,8.1
	c0,3.8,3.3,6.5,9.8,8.1l16.6,4c9.2,2.4,16.7,6.4,22.5,12.1c5.8,5.7,8.7,12.7,8.7,21c0,12.7-4.2,22.3-12.7,28.6
	C853.1,222.5,841.9,225.7,827.9,225.7z"/>
</svg>
