<?xml version="1.0" encoding="utf-8"?>
<!-- Generator: Adobe Illustrator 25.4.0, SVG Export Plug-In . SVG Version: 6.00 Build 0)  -->
<svg version="1.1" xmlns="http://www.w3.org/2000/svg" xmlns:xlink="http://www.w3.org/1999/xlink" x="0px" y="0px"
	 viewBox="0 0 600 750" style="enable-background:new 0 0 600 750;" xml:space="preserve">
<style type="text/css">
	.st0{fill:none;}
	.st1{fill:#5D95F9;}
	.st2{fill:#A0D4FF;}
	.st3{fill:#384987;}
	.st4{fill:#C5D6F9;}
	.st5{fill:#CFDFFB;}
	.st6{fill:#020225;}
	.st7{fill:#84D4FF;}
	.st8{fill:#2827CE;}
	.st9{fill:#FFFFFF;}
</style>
<g id="Layer_2">
</g>
<g id="Layer_1">
	<g>
		<path class="st0" d="M495.6,60.8c-1.8,1.2-3,3.3-3,5.7v54c0,0,0,0,0,0v-54C492.6,64.1,493.8,62,495.6,60.8z"/>
		<path class="st0" d="M504.1,203.9c0-0.1,0.1-0.1,0.1-0.2c0,0,0,0,0,0c2-2,4.1-3.8,6.5-5c3-1.6,6.3-4.9,9.8-9.1h35.4
			c1.7,0,3.1-1,3.7-2.5c-0.6,1.4-2,2.4-3.7,2.4h-35.4c1.1-1.3,2.2-2.7,3.3-4.2h25.8c3.8,0,6.8-3.1,6.8-6.9v-44v-9.2l3.5-1v0l-3.5,1
			v-1.5c0,0,0,0,0,0v1.5l-1.3,0.3c-1.9,0.5-3.1,2.3-3,4.2c-0.1-1.9,1.1-3.7,3-4.2l1.3-0.3v9.2v0v44c0,3.8-3.1,6.9-6.9,6.9h-25.7
			c-1.1,1.5-2.2,2.9-3.3,4.2h-27.4c-2.2,0-4-1.8-4-4v0c0,2.2,1.8,4,4,4h27.4c-3.4,4.2-6.8,7.5-9.8,9.1c-2.4,1.3-4.6,3-6.5,5.1
			c-11.3-7-29.8-20-43.5-29.1c0.5-13.4,1.8-37.3,4.3-42.6c5.2-10.8,7.8-32.6,9.8-36.9c1.5-3.2,5.8-19.8,6.2-21.1
			c0.2-0.5,1.6-1.3,3.4-1.3c0.4,0,0.8,0.1,1.3,0.3c-0.5-0.2-0.9-0.3-1.3-0.3c-1.8,0-3.3,0.8-3.4,1.3c-0.4,1.2-4.7,17.8-6.2,21.1
			c-2,4.3-4.5,26.1-9.8,36.9c-2.6,5.3-3.8,29.2-4.3,42.6c13.7,9.1,32.2,22,43.5,29.1C504.2,203.7,504.1,203.8,504.1,203.9z"/>
		<path class="st0" d="M522,83.4c0,0,0.1,0,0.1,0C522,83.4,522,83.4,522,83.4c-2.7,0.7-21,27-29.4,37.1v0
			C500.9,110.4,519.3,84.1,522,83.4z"/>
		<polygon class="st0" points="538,59.6 538,59.6 538,59.6 538,59.6 510.9,59.6 510.9,59.6 		"/>
		<path class="st0" d="M568.9,119.3l-1.4,0.5l-7.6,2.9v0v0l7.6-2.9L568.9,119.3c2-0.7,3.4-2.5,3.9-4.4
			C572.3,116.8,570.9,118.5,568.9,119.3z"/>
		<path class="st0" d="M556.3,67.7L556.3,67.7l-11.2,13.5c-1.3,1.6-1.7,3.6-1.4,5.4c-0.3-1.8,0.1-3.8,1.4-5.4L556.3,67.7l2.7-3.2
			l0.8-1v0l3.3-4c0.9-1,2-1.7,3.2-2.1c-1.2,0.4-2.3,1.1-3.2,2.1l-3.3,4l-0.8,1L556.3,67.7z"/>
		<polygon class="st0" points="559.9,87.9 560,87.7 559.9,87.9 		"/>
		<path class="st0" d="M568.5,105.6l-8.6,2.2v0L568.5,105.6c0,0,0.1,0,0.1,0c0.7-0.2,1.4-0.6,1.9-1c-0.6,0.4-1.2,0.7-1.9,1
			C568.6,105.6,568.5,105.6,568.5,105.6z"/>
		<path class="st0" d="M532,104.2L532,104.2c6.1,15.5,12.9,34.8,14.8,40.3C544.9,139,538.1,119.7,532,104.2L532,104.2
			C532,104.2,532,104.2,532,104.2z"/>
		<path class="st0" d="M553.2,95.7C553.2,95.7,553.2,95.7,553.2,95.7C553.2,95.7,553.2,95.7,553.2,95.7
			C553.2,95.7,553.2,95.7,553.2,95.7z"/>
		<path class="st0" d="M553.1,92.8c0.3-0.1,0.6-0.3,1-0.4l2.3-0.6v1.2l-1.2,1.8c0,0,0,0,0,0l1.2-1.8v-1.2l-2.3,0.6
			C553.7,92.5,553.4,92.6,553.1,92.8z"/>
		<path class="st0" d="M564.6,132.3l-4.8,1.3v0v0L564.6,132.3c1.1-0.3,2-1,2.5-1.9C566.6,131.3,565.7,132,564.6,132.3z"/>
		<path class="st0" d="M489.1,99.8L489.1,99.8c0.3-1.2,0.6-2.9,0.9-4.9C489.7,96.9,489.4,98.5,489.1,99.8z"/>
		<path class="st0" d="M556.4,134.4c0.4,0,0.7,0,1.1-0.1C557.1,134.4,556.7,134.4,556.4,134.4z"/>
		<path class="st0" d="M549,101.1l0.6,1.9c0,0,0,0,0,0L549,101.1c-0.7-2.3,0-4.8,1.7-6.5c0,0,0,0,0,0c0,0,0,0,0,0c0,0,0,0,0,0
			C549.1,96.3,548.3,98.7,549,101.1z"/>
		<path class="st0" d="M553.5,111.1c-3.3,1.2-4.9,4.9-3.7,8.2l0.1,0.4c0.1,0.3,0.3,0.7,0.5,0.9c-0.2-0.3-0.3-0.6-0.4-0.9l-0.1-0.4
			C548.6,116,550.3,112.4,553.5,111.1l2.8-1v0v-1.8c0,0,0,0,0,0v1.8L553.5,111.1z"/>
		<path class="st0" d="M510.9,58.3c0-0.3,0.1-0.6,0.4-0.9C511,57.6,510.9,58,510.9,58.3l0,1.3h0V58.3z"/>
		<path class="st0" d="M489.1,124.2c-0.2,0.1-0.3,0.1-0.4,0.1C488.7,124.3,488.9,124.3,489.1,124.2L489.1,124.2
			C489.1,124.2,489.1,124.2,489.1,124.2z"/>
		<path class="st1" d="M489.1,124.2C489.1,124.2,489.1,124.2,489.1,124.2l0-24.3c-0.3,1.4-0.6,2.2-0.6,2.3
			c1.1,11.4-2.3,19.9,0.1,22.1c0,0,0,0,0,0C488.7,124.3,488.9,124.3,489.1,124.2z"/>
		<path class="st2" d="M481,74.1c-0.4,1.2-4.7,17.9-6.2,21.1c-2,4.3-4.5,26.1-9.8,36.9c-2.6,5.3-3.8,29.2-4.3,42.6
			c13.7,9.1,32.2,22,43.5,29.1c1.9-2,4.1-3.8,6.5-5.1c3-1.6,6.3-4.9,9.8-9.1h-27.4c-2.2,0-4-1.8-4-4v0v-61.4c0,0,0,0,0,0
			c-0.2,0.1-0.3,0.2-0.4,0.1c0,0,0,0,0,0c-2.4-2.2,1-10.7-0.1-22.1c0-0.1,0.3-0.9,0.6-2.3v0c0,0,0,0,0,0v0c0,0,0,0,0,0V77.2
			c0,0,0,0,0-0.1v0V77c-0.5-2.2-2-3.5-3.3-4c-0.5-0.2-0.9-0.3-1.3-0.3C482.6,72.7,481.2,73.6,481,74.1z"/>
		<path class="st2" d="M563.2,59.4l-3.3,4v0v24.5l0.2-0.2l4.2-6.1l9.3-13.6c2.3-2.8,1.9-6.9-0.9-9.2l-0.2-0.2c-1.7-1.4-4-1.8-6-1.2
			C565.2,57.7,564,58.4,563.2,59.4z"/>
		<path class="st3" d="M489.1,77.1C489.1,77.1,489.1,77.1,489.1,77.1l0,22.7c0,0,0,0,0,0c0.3-1.2,0.6-2.9,0.9-4.9
			c-0.3,2-0.6,3.7-0.9,4.9c0,0,0,0,0,0v0v24.3v0c0,0,0,0,0,0v61.4c0,2.2,1.8,4,4,4h27.4c1.1-1.3,2.2-2.7,3.3-4.2h0h-23.7h0h-0.6
			c-3.8,0-6.9-3.1-6.8-6.9v0v-58v0c0,0,0,0,0,0v-54c0-2.4,1.2-4.5,3-5.7c1.1-0.8,2.4-1.2,3.8-1.2h11.5v-1.3c0-0.3,0.1-0.6,0.4-0.9
			c-0.2,0.2-0.4,0.5-0.4,0.9v1.3H538v0h0v0h11.5l0,0c3.8,0,6.9,3.1,6.9,6.9v1.2l0,0v0l2.7-3.2l0.8-1v-3.1c0-2.2-1.8-4-4-4h-62.8
			c-2.2,0-4,1.8-4,4V77.1L489.1,77.1L489.1,77.1z"/>
		<path class="st3" d="M557.5,134.3c-0.4,0.1-0.7,0.1-1.1,0.1v44c0,3.8-3.1,6.9-6.8,6.9h-25.8c-1.1,1.5-2.2,2.9-3.3,4.2h35.4
			c1.6,0,3.1-1,3.7-2.4c0.2-0.5,0.3-1,0.3-1.6v-51.9v0L557.5,134.3z"/>
		<path class="st3" d="M559.1,108c-0.9,0.2-1.8,0.3-2.7,0.2v1.8l3.5-1.3v0l0,0v-0.9v0L559.1,108z"/>
		<path class="st3" d="M558.2,123.3c-0.2,0.1-0.4,0.2-0.7,0.2c-0.4,0.1-0.8,0.2-1.2,0.2v0v1.5l3.5-1l0,0v-1.5v0L558.2,123.3z"/>
		<polygon class="st3" points="559.9,63.4 559.1,64.4 556.4,67.7 556.4,91.8 557.2,91.6 557.4,91.5 559.9,90.9 559.9,87.9 
			559.9,87.9 559.9,87.9 		"/>
		<path class="st4" d="M550.5,120.6c-0.2-0.3-0.3-0.6-0.5-0.9l-0.1-0.4c-1.2-3.2,0.4-6.9,3.7-8.2l2.8-1.1v-1.8
			c-3.1-0.2-5.9-2.2-6.8-5.2l0,0c0,0,0,0,0,0l-0.6-1.9c-0.7-2.4,0-4.8,1.7-6.5c0,0,0,0,0,0c0.7-0.7,1.5-1.3,2.4-1.7
			c0.3-0.1,0.6-0.3,1-0.4l2.3-0.6V67.7l-11.2,13.6c-1.3,1.6-1.7,3.5-1.4,5.4c-0.4-1.9,0.1-3.9,1.4-5.4l11.2-13.5l0,0v-1.2
			c0-3.8-3.1-6.9-6.9-6.9l0,0h0L532,104.2c6.1,15.5,12.9,34.8,14.8,40.3c-1.9-5.5-8.7-24.8-14.8-40.3l-31.9,81.2h23.7h0h25.7
			c3.8,0,6.9-3.1,6.9-6.9v-44c-1.8,0-3.4-1.2-3.9-3l-0.2-0.8c-0.1-0.3-0.1-0.5-0.1-0.8c-0.1-1.9,1.1-3.7,3-4.2l1.3-0.3v-1.5
			C554,123.9,551.7,122.7,550.5,120.6z"/>
		<path class="st5" d="M532,104.2C532,104.2,532,104.2,532,104.2L532,104.2l17.5-44.6h0H538v0v0v2.9v0c0,0.7-0.5,1.2-1.2,1.2h-24.7
			c-0.7,0-1.2-0.5-1.2-1.2v0v-2.9v0h0h-11.5c-1.4,0-2.7,0.4-3.8,1.2c-1.8,1.2-3,3.3-3,5.7v54c8.3-10.1,26.7-36.4,29.4-37.1
			c0,0,0.1,0,0.1,0c0,0-0.1,0-0.1,0c-2.6,0.7-21,27-29.4,37.1v58v0c0,3.8,3.1,6.9,6.8,6.9h0.6h0L532,104.2L532,104.2z"/>
		<path class="st3" d="M510.9,62.5L510.9,62.5c0,0.7,0.5,1.2,1.2,1.2h24.7c0.7,0,1.2-0.5,1.2-1.2v0v-2.9h-27.1V62.5z"/>
		<path class="st2" d="M559.9,108.7l-3.5,1.3v0l-2.8,1.1c-3.3,1.2-4.9,4.9-3.7,8.2l0.1,0.4c0.1,0.3,0.3,0.6,0.4,0.9
			c1.2,2.1,3.5,3.3,5.9,3.1c0,0,0,0,0,0v0c0.4,0,0.8-0.1,1.2-0.2c0.2,0,0.4-0.1,0.7-0.2l1.7-0.6v0l7.6-2.9l1.4-0.5
			c2-0.8,3.4-2.5,3.9-4.4c0.3-1.2,0.2-2.5-0.2-3.7l-0.1-0.4c-1.2-3.2-4.9-4.9-8.2-3.7l-1.4,0.5l-0.6,0.2L559.9,108.7L559.9,108.7
			L559.9,108.7z"/>
		<path class="st2" d="M556.4,134.4c0.4,0,0.7,0,1.1-0.1l2.4-0.7v0l4.8-1.3c1.1-0.3,1.9-1,2.5-1.9c0.5-0.9,0.7-2,0.4-3.1l-0.2-0.8
			c-0.6-2.2-2.9-3.5-5-2.9l-2.4,0.6v0l0,0l-3.5,1V134.4z"/>
		<path class="st2" d="M552.4,131.4c0.5,1.8,2.1,3,3.9,3v0v-9.2l-1.3,0.3c-1.9,0.5-3.1,2.3-3,4.2c0,0.3,0.1,0.5,0.1,0.8L552.4,131.4
			z"/>
		<path class="st2" d="M557.2,91.6l-0.8,0.2V93l-1.2,1.8c0,0,0,0,0,0l1.2-1.8v-1.2l-2.3,0.6c-0.3,0.1-0.7,0.2-1,0.4
			c-0.9,0.4-1.7,1-2.4,1.7c0,0,0,0,0,0c0,0,0,0,0,0c-1.6,1.8-2.3,4.2-1.7,6.5l0.6,1.9l0,0c0.8,3,3.6,5,6.8,5.2c0,0,0,0,0,0
			c0.9,0.1,1.8,0,2.7-0.2l0.8-0.2l8.6-2.2c0,0,0.1,0,0.1,0c0.7-0.2,1.3-0.6,1.9-1c2.5-1.7,3.8-4.7,3-7.7L573,95
			c-1.1-3.8-5.4-6-9.5-5l-3.6,0.9v0l-2.5,0.6L557.2,91.6z M553.2,95.7C553.2,95.7,553.2,95.7,553.2,95.7
			C553.2,95.7,553.2,95.7,553.2,95.7C553.2,95.7,553.2,95.7,553.2,95.7z"/>
		<g>
			<g>
				<path class="st6" d="M335,183c-0.3-0.4-0.6-0.8-1-1.2c-4.9-5.7-6-13.9-2.6-21c13.7-28.8-5.6-65.6-36.2-69
					c-7.9-0.9-14.4-6.6-15.7-14.6c-5.1-30-40.5-48.1-68.3-33.6c-5.2,2.7-11.2,3-16.4,0.7c-27.8-12.2-63.2,9.1-68.3,39.5
					c-1.3,8-7.8,14.4-15.7,16c-30.6,6.1-49.9,44.5-36.2,72.2c3.4,6.8,2.3,15.1-2.6,21.2c-0.3,0.4-0.7,0.8-1,1.2
					c-9.7,12.7-0.2,30.6,15.3,29.9l233.4-10.2C335.2,213.6,344.7,194.9,335,183z"/>
			</g>
			<g>
				<g>
					<path class="st7" d="M43.7,535c9.7-61.8,31.1-155.3,31.2-156c0-4.9-0.6-120.5,35.6-153.8c7.2-6.6,15.4-9.6,24.5-8.8
						c8.7,0.8,19.2,24.6,20.4,27.3l0.1,0.3l-13.9,128.9c-0.2,1.3-24.5,125.7-39.5,174.2c-8.4,27-12.8,28.4-23.8,29.6l-1.2,0.1
						c-4.9,5.9-7.5,17.7-9.7,28.2c-2.5,11.6-4.1,18.2-7.7,19.3c-2.8,0.9-5.4,0.1-7.2-2.1c-1.1,2.6-2.4,4.3-3.9,5.3
						c-2.6,1.7-4.7,2-6.4,1c-1.2-0.7-1.9-2-2.3-3.4c-0.9,1.9-2.1,3.7-3.5,4.5c-0.6,0.3-1.2,0.5-1.8,0.5c-0.5,0-0.9-0.1-1.4-0.3
						c-10-4-6.9-30.5-6.2-35.7C15.3,578.5,41.1,538.9,43.7,535z"/>
				</g>
				<g>
					<path class="st6" d="M52.6,624.3c-0.5,0-1.1-0.2-1.5-0.6c-0.8-0.8-0.8-2.1,0-2.9c0.8-1,1.4-6.7,2-11.7
						c1.3-11.5,3-27.2,9.7-37.6c0.6-1,1.9-1.2,2.8-0.6c1,0.6,1.2,1.9,0.6,2.8c-6.2,9.7-7.9,24.8-9.1,35.9c-1,8.6-1.5,12.5-3.2,14.2
						C53.6,624.1,53.1,624.3,52.6,624.3z"/>
				</g>
				<g>
					<path class="st6" d="M40,627.2c-0.2,0-0.5,0-0.7-0.1c-1.1-0.4-1.6-1.6-1.2-2.6c0.8-2.1,1.3-7.1,1.8-12.9
						c1.2-12.2,2.9-28.8,8.7-39.2c0.6-1,1.8-1.3,2.8-0.8c1,0.5,1.3,1.8,0.8,2.8c-5.4,9.6-7,25.8-8.2,37.6
						c-0.6,6.3-1.1,11.3-2.1,13.9C41.6,626.7,40.8,627.2,40,627.2z"/>
				</g>
				<g>
					<path class="st6" d="M28,596.4c-0.5,0-0.9-0.1-1.4-0.2c-1.1-0.2-1.8-1.3-1.5-2.5c0.2-1.1,1.3-1.8,2.4-1.5
						c5.1,1.1,11.9-15,14.9-26.2c0.2-0.7,0.8-1.3,1.6-1.5c26.8-5.6,26.2-23.9,26.2-24.7c-0.1-1.1,0.8-2.1,1.9-2.1
						c1.2,0,2.1,0.8,2.2,1.9c0,0.2,0.9,22-28.2,28.6C44,575.1,37.3,596.3,28,596.4z"/>
				</g>
				<g>
					<path class="st8" d="M149.5,210.4c-37.8,2.2-68.6,7.6-77.3,163.8c-14.6,60.8-26.1,134.8-26.1,134.8s-7.9,11.3-5.8,15.3
						c2.1,3.9,60,19.9,67.1,14.4c7-5.5,1.8-16.2,1.8-16.2s32.3-136.7,34.1-147.1C145.2,364.8,191.7,207.9,149.5,210.4z"/>
				</g>
			</g>
			<g>
				<g>
					<g>
						<path class="st7" d="M96.5,1032.3l6.7,68.1c-28.3,12.4-30.2,32.6-30.2,32.6s87.8,0.8,142.1,0.3c0,0,0.2-35.5-7.3-110.4
							L96.5,1032.3z"/>
					</g>
					<g>
						<g>
							<path class="st8" d="M79.3,1105.3c-38.7,5.3-38.8,34.9-38.8,34.9s122.5,0.9,184.7,0.4v-43l-94,1.5c0,0-7-33.6-32.7-28.8
								C72.9,1075.2,79.3,1105.3,79.3,1105.3z"/>
						</g>
						<g>
							<path class="st9" d="M52,1150.6h164.3c5.6,0,9.6-4.5,8.9-10l0,0H40.6l0,0C41.3,1146.1,46.4,1150.6,52,1150.6z"/>
						</g>
					</g>
					<g>
						<path class="st6" d="M94.2,1121.4c-0.5,0-1-0.2-1.4-0.6c-12.4-12.1-31.1-7-31.3-6.9c-1.1,0.3-2.2-0.3-2.5-1.4
							c-0.3-1.1,0.3-2.2,1.4-2.5c0.8-0.2,21.1-5.9,35.3,7.9c0.8,0.8,0.8,2.1,0,2.9C95.3,1121.2,94.8,1121.4,94.2,1121.4z"/>
					</g>
					<g>
						<path class="st6" d="M75.1,1131.5c-0.6,0-1.1-0.2-1.5-0.7c-8.4-9.2-26.3-7.6-26.5-7.5c-1.1,0.1-2.1-0.7-2.2-1.8
							c-0.1-1.1,0.7-2.1,1.8-2.2c0.8-0.1,20.2-1.9,29.9,8.9c0.8,0.8,0.7,2.1-0.1,2.9C76.1,1131.3,75.6,1131.5,75.1,1131.5z"/>
					</g>
					<g>
						<path class="st6" d="M84,1111.5c-0.4,0-0.8-0.1-1.1-0.3c-2.3-1.6-22.6-15.4-22.1-25c0.1-1.7,0.9-4.2,4.1-5.9
							c2.7-1.5,5.5-1.6,8-0.3c4.1,2.1,6.9,7.6,8.8,13c0.9-4.4,2.7-8.8,6.1-11.4c3.4-2.6,7.7-3.1,12.9-1.3c4.5,1.5,7,4,7.3,7.2
							c0.9,9.5-18.9,21.4-22.9,23.7C84.7,1111.4,84.3,1111.5,84,1111.5z M94.8,1083.3c-1.8,0-3.3,0.5-4.6,1.5
							c-5.5,4.3-5.7,17.1-5.4,21.7c8.7-5.3,19.5-13.9,19-18.7c-0.1-1.5-1.7-2.8-4.6-3.8C97.6,1083.6,96.1,1083.3,94.8,1083.3z
							 M69.2,1083.2c-0.8,0-1.6,0.2-2.4,0.7c-1.7,0.9-1.9,1.9-1.9,2.5c-0.2,4.4,8.1,12.3,15.5,17.9c-1.3-6.7-4.4-18.2-9.3-20.7
							C70.4,1083.3,69.8,1083.2,69.2,1083.2z"/>
					</g>
				</g>
				<g>
					<g>
						<path class="st7" d="M425.1,1032.3l23.3,68.1c28.3,12.4,30.2,32.6,30.2,32.6s-87.8,0.8-142.1,0.3l-22.8-103.4L425.1,1032.3z"
							/>
					</g>
					<g>
						<g>
							<path class="st8" d="M472.4,1105.3c38.7,5.3,38.8,34.9,38.8,34.9s-122.5,0.9-184.7,0.4l-6.1-43l100.1,1.5
								c0,0,7-33.6,32.7-28.8C478.9,1075.2,472.4,1105.3,472.4,1105.3z"/>
						</g>
						<g>
							<path class="st9" d="M499.8,1150.6H335.5c-5.6,0-9.6-4.5-8.9-10l0,0h184.6l0,0C510.5,1146.1,505.4,1150.6,499.8,1150.6z"/>
						</g>
					</g>
					<g>
						<path class="st6" d="M457.5,1121.4c-0.5,0-1.1-0.2-1.5-0.6c-0.8-0.8-0.8-2.1,0-2.9c14.2-13.8,34.4-8.2,35.3-7.9
							c1.1,0.3,1.7,1.4,1.4,2.5c-0.3,1.1-1.4,1.7-2.5,1.4c-0.2-0.1-18.8-5.2-31.3,6.9C458.6,1121.2,458,1121.4,457.5,1121.4z"/>
					</g>
					<g>
						<path class="st6" d="M476.6,1131.5c-0.5,0-1-0.2-1.4-0.5c-0.8-0.8-0.9-2.1-0.1-2.9c9.8-10.8,29.1-8.9,29.9-8.9
							c1.1,0.1,1.9,1.1,1.8,2.2c-0.1,1.1-1.1,1.9-2.2,1.8c-0.2,0-18.1-1.7-26.5,7.5C477.7,1131.3,477.2,1131.5,476.6,1131.5z"/>
					</g>
					<g>
						<path class="st6" d="M467.8,1111.5c-0.4,0-0.7-0.1-1-0.3c-4-2.3-23.8-14.2-22.9-23.7c0.3-3.3,2.8-5.7,7.3-7.2
							c5.2-1.8,9.5-1.3,12.9,1.3c3.3,2.6,5.1,7,6.1,11.4c1.9-5.5,4.7-11,8.8-13c2.5-1.3,5.3-1.2,8,0.3c3.2,1.7,4,4.2,4.1,5.9
							c0.5,9.5-19.8,23.4-22.1,25C468.6,1111.4,468.2,1111.5,467.8,1111.5z M457,1083.3c-1.3,0-2.8,0.3-4.5,0.8
							c-2.9,1-4.4,2.2-4.6,3.7c-0.5,4.7,10.3,13.3,19,18.7c0.4-4.7,0.1-17.5-5.4-21.7C460.3,1083.8,458.8,1083.3,457,1083.3z
							 M482.5,1083.2c-0.6,0-1.2,0.1-1.8,0.4c-4.9,2.5-8,14-9.3,20.7c7.4-5.6,15.7-13.5,15.5-17.9c0-0.6-0.3-1.6-1.9-2.5
							C484.1,1083.4,483.3,1083.2,482.5,1083.2z"/>
					</g>
				</g>
				<g>
					<g>
						<path class="st9" d="M87.9,1053.8C76.6,941.3,52.6,694.7,55.3,657.4c3.5-48.5,2.3-127.6,80.2-196.8h138.4
							c50.3,37.1,86.5,148.8,94.5,196.8c5.7,34.4,55.4,283.2,78,396.4l-137-0.3L204.2,600l12.6,453.8H87.9z"/>
					</g>
					<g>
						<path class="st6" d="M434.5,1061.8c-1,0-1.8-0.7-2-1.6c-12.3-61.7-22.9-114.9-32-161c-53.9-271.4-58.3-293.6-82-351.1
							c-12.5-30.4-56.6-85-57.1-85.6c-0.7-0.9-0.6-2.2,0.3-2.9c0.9-0.7,2.2-0.6,2.9,0.3c1.8,2.3,44.9,55.6,57.7,86.6
							c23.8,57.9,28.2,80.1,82.2,351.9c9.1,46,19.7,99.2,32,161c0.2,1.1-0.5,2.2-1.6,2.4C434.8,1061.8,434.7,1061.8,434.5,1061.8z"
							/>
					</g>
					<g>
						<polygon class="st9" points="135.8,443.2 274.2,443.3 274.2,460.6 135.8,460.6 						"/>
					</g>
					<g>
						<path class="st6" d="M267.3,518.3c-18.9,0-45-29.7-46.1-31.1c-0.5-0.5-0.6-1.3-0.4-2l4.1-12.3c0.2-0.7,0.8-1.2,1.5-1.4
							c0.7-0.2,1.5,0.1,1.9,0.7c0.3,0.3,28.7,32.7,45.4,29.4c0.7-0.1,1.5,0.1,1.9,0.7c0.5,0.5,0.6,1.3,0.4,2l-4.1,12.3
							c-0.2,0.7-0.8,1.2-1.5,1.4C269.4,518.2,268.4,518.3,267.3,518.3z M225,485.4c4.6,5,28.2,30.3,43.5,28.7l2.7-8.2
							c-15.9-0.1-36.6-20.9-43.6-28.4L225,485.4z"/>
					</g>
					<g>
						<path class="st6" d="M111.4,518.3c-1.1,0-2.2-0.1-3.2-0.3c-0.7-0.1-1.3-0.7-1.5-1.4l-4.1-12.3c-0.2-0.7-0.1-1.5,0.4-2
							c0.5-0.5,1.2-0.8,1.9-0.7c16.7,3.4,45.1-29.1,45.4-29.4c0.5-0.6,1.2-0.8,1.9-0.7c0.7,0.1,1.3,0.7,1.5,1.4l4.1,12.3
							c0.2,0.7,0.1,1.4-0.4,2C156.3,488.6,130.3,518.3,111.4,518.3z M110.1,514.2c13.5,1.3,35.1-19.4,43.5-28.7l-2.6-7.9
							c-7,7.5-27.7,28.3-43.6,28.4L110.1,514.2z"/>
					</g>
				</g>
			</g>
			<g>
				<path class="st6" d="M175.3,535.8c-0.5,0-1-0.2-1.4-0.5c-0.4-0.4-0.7-0.9-0.7-1.5l-1.9-73.1c0-1.1,0.9-2.1,2-2.1
					c1,0.1,2.1,0.9,2.1,2l1.9,70.7c22.7-6.1,17.4-68.6,17.4-69.2c-0.1-1.1,0.7-2.1,1.9-2.2c1.2-0.1,2.1,0.7,2.2,1.9
					c0.3,2.9,6,71.1-23.2,74.1C175.5,535.8,175.4,535.8,175.3,535.8z"/>
			</g>
			<g>
				<path class="st6" d="M270.1,462.7H138.7c-1.1,0-2-0.9-2-2c0-1.1,0.9-2,2-2h131.3c1.1,0,2,0.9,2,2
					C272.1,461.8,271.2,462.7,270.1,462.7z"/>
			</g>
			<g>
				<g>
					<path class="st9" d="M265.7,135.5c0,4.8-3.9,8.7-8.7,8.7c-4.8,0-8.7-3.9-8.7-8.7c0-4.8,3.9-8.7,8.7-8.7
						C261.8,126.8,265.7,130.7,265.7,135.5z"/>
				</g>
				<g>
					<path class="st7" d="M164.1,205.7l12.6-66.8l48.6,11.1l-11.2,48.2C214.1,198.2,180.6,226.4,164.1,205.7z"/>
				</g>
				<g>
					<path class="st6" d="M172.4,153.8c0,0,19.4,32.7,45.5,28.5l3.3-14.3L172.4,153.8z"/>
				</g>
				<g>
					
						<ellipse transform="matrix(0.2298 -0.9732 0.9732 0.2298 46.9598 287.4159)" class="st7" cx="205.1" cy="114" rx="57.7" ry="57.7"/>
				</g>
				<g>
					<path class="st6" d="M183.4,88.4c-0.9,0-1.8-0.6-2-1.6c-0.3-1.1,0.4-2.2,1.5-2.5c0.5-0.1,11.6-2.9,19.1-1.4
						c1.1,0.2,1.8,1.3,1.6,2.4c-0.2,1.1-1.3,1.8-2.4,1.6c-6.6-1.3-17.3,1.3-17.4,1.4C183.7,88.4,183.6,88.4,183.4,88.4z"/>
				</g>
				<g>
					<path class="st6" d="M230.8,86.3c-0.9,0-1.7-0.6-2-1.4c-0.3-1.1,0.3-2.2,1.4-2.6c7.3-2.3,18.7-0.7,19.2-0.6
						c1.1,0.2,1.9,1.2,1.7,2.3c-0.2,1.1-1.2,1.9-2.3,1.7c-0.1,0-11-1.5-17.4,0.5C231.2,86.2,231,86.3,230.8,86.3z"/>
				</g>
				<g>
					<path class="st6" d="M199.8,103.7c0,2.6-2.1,4.6-4.6,4.6c-2.6,0-4.6-2.1-4.6-4.6c0-2.6,2.1-4.6,4.6-4.6
						C197.7,99.1,199.8,101.2,199.8,103.7z"/>
				</g>
				<g>
					<path class="st6" d="M218.4,125.3c-1.1,0-2-0.9-2-2c0-1.1,0.9-2,2-2c1.4,0,2.6-1.2,2.6-2.6c0-1.4-1.2-2.6-2.6-2.6
						c-1.1,0-2-0.9-2-2c0-1.1,0.9-2,2-2c3.7,0,6.7,3,6.7,6.7C225,122.3,222.1,125.3,218.4,125.3z"/>
				</g>
				<g>
					<path class="st6" d="M244.5,103.7c0,2.6-2.1,4.6-4.6,4.6c-2.6,0-4.6-2.1-4.6-4.6c0-2.6,2.1-4.6,4.6-4.6
						C242.4,99.1,244.5,101.2,244.5,103.7z"/>
				</g>
				<g>
					<path class="st6" d="M217,140.9c-0.1,0-0.2,0-0.3,0c-9.8-1.3-11.5-8.6-11.6-8.9c-0.2-1.1,0.5-2.2,1.6-2.4
						c1.1-0.2,2.2,0.4,2.4,1.5c0.1,0.2,1.3,4.9,8.1,5.8c1.1,0.1,1.9,1.2,1.8,2.3C218.9,140.2,218,140.9,217,140.9z"/>
				</g>
				<g>
					<path class="st6" d="M205.1,56.4c0,0-17.6,49-56.8,47.4C148.3,103.7,145.5,51.5,205.1,56.4z"/>
				</g>
				<g>
					<path class="st6" d="M205.1,56.4c0,0,17.5,34.9,51.9,30C257,86.4,246.5,49.3,205.1,56.4z"/>
				</g>
				<g>
					<path class="st7" d="M157.6,116.2c0,0-8.8-21-23.9-18.9c-15.1,2.1-24.1,33.8,2.1,38.2c14,2.4,18.1-3.8,18.1-3.8"/>
				</g>
				<g>
					<path class="st6" d="M147.4,122.5c-0.5,0-0.9-0.2-1.3-0.5l-13.3-11.4c-0.9-0.7-1-2-0.2-2.9c0.7-0.9,2-1,2.9-0.2l13.3,11.4
						c0.9,0.7,1,2,0.2,2.9C148.5,122.3,148,122.5,147.4,122.5z"/>
				</g>
				<g>
					<path class="st9" d="M144.4,135.5c0,4.8-3.9,8.7-8.7,8.7c-4.8,0-8.7-3.9-8.7-8.7c0-4.8,3.9-8.7,8.7-8.7
						C140.5,126.8,144.4,130.7,144.4,135.5z"/>
				</g>
			</g>
			<g>
				<path class="st8" d="M107.8,271.4c6.7-22.5,23.1-54.8,23.1-54.8s24.2-9.3,54.3-14.7c28.9-5.2,61.9-4.4,67.3-4.3c0,0,0,0,0.1,0
					c45.6-8,136.7,46,136.7,46s31.1-63.5,49-71c0,0-1-12.6,3.6-13.1c4.6-0.5,62.6,42.5,70.9,44.7c7.7,2.1-1.7,16.6-1.7,16.6
					s-60.4,108.8-108.5,119.4c-48.1,10.6-102.8-25.9-102.8-25.9c2.8,29.8-3.8,125.1-27.2,127.8c-34.4,4.1-110.5,4.4-146.9,0.9
					c-15-1.4-29.5-90.7-30-111.4C95.1,303.9,101.2,293.5,107.8,271.4z"/>
			</g>
			<g>
				<path class="st8" d="M218.4,200.9c0,0,6.4-13.1,2.3-13.1c-4.1,0-57.8-0.6-58.2,5.2c-0.5,5.8,0,19.4,0,19.4L218.4,200.9z"/>
			</g>
			<g>
				<path class="st6" d="M209.8,203.7c-0.1,0-0.3,0-0.4,0c-1.1-0.2-1.8-1.3-1.6-2.4l2.2-11.1c0.2-1.1,1.3-1.8,2.4-1.6
					c1.1,0.2,1.8,1.3,1.6,2.4l-2.2,11.1C211.6,203.1,210.8,203.7,209.8,203.7z"/>
			</g>
			<g>
				<path class="st6" d="M197.6,206c-0.1,0-0.3,0-0.4,0c-1.1-0.2-1.8-1.3-1.6-2.4l2.2-11.1c0.2-1.1,1.3-1.8,2.4-1.6
					c1.1,0.2,1.8,1.3,1.6,2.4l-2.2,11.1C199.4,205.3,198.6,206,197.6,206z"/>
			</g>
			<g>
				<path class="st6" d="M183.7,206.7c-0.1,0-0.3,0-0.4,0c-1.1-0.2-1.8-1.3-1.6-2.4l2.2-11.1c0.2-1.1,1.3-1.9,2.4-1.6
					c1.1,0.2,1.8,1.3,1.6,2.4l-2.2,11.1C185.5,206,184.6,206.7,183.7,206.7z"/>
			</g>
			<g>
				<path class="st6" d="M169,207.6c-0.1,0-0.3,0-0.4,0c-1.1-0.2-1.8-1.3-1.6-2.4l2.2-11.1c0.2-1.1,1.3-1.8,2.4-1.6
					c1.1,0.2,1.8,1.3,1.6,2.4L171,206C170.8,207,169.9,207.6,169,207.6z"/>
			</g>
			<g>
				<path class="st6" d="M125.7,445.3c-0.1,0-0.1,0-0.2,0c-18.2-1.7-31.5-98.6-31.8-113.4c-0.5-22.3,3.3-33.8,8.1-48.3
					c1.3-3.9,2.7-8.1,4-12.7c0.3-1.1,1.5-1.7,2.5-1.4c1.1,0.3,1.7,1.5,1.4,2.5c-1.4,4.7-2.8,8.9-4.1,12.9
					c-4.8,14.7-8.4,25.4-7.9,46.9c0.6,26,16.1,108.3,28.1,109.4c1.1,0.1,2,1.1,1.8,2.2C127.6,444.5,126.7,445.3,125.7,445.3z"/>
			</g>
			<g>
				<path class="st6" d="M298.4,315.7c-0.4,0-0.8-0.1-1.1-0.3c-0.2-0.1-17.1-10.9-25.4-16.9c-0.9-0.7-1.1-1.9-0.4-2.9
					c0.7-0.9,1.9-1.1,2.9-0.4c8.2,5.9,25,16.6,25.1,16.8c1,0.6,1.2,1.9,0.6,2.8C299.7,315.3,299,315.7,298.4,315.7z"/>
			</g>
			<g>
				<path class="st6" d="M376.2,262.4c-0.4,0-0.8-0.1-1.2-0.4c-0.9-0.6-1.2-1.9-0.5-2.9c6.2-9,13.1-16.9,13.2-17
					c0.7-0.9,2-0.9,2.9-0.2c0.8,0.7,0.9,2,0.2,2.9c-0.1,0.1-6.8,7.8-12.9,16.6C377.5,262.1,376.9,262.4,376.2,262.4z"/>
			</g>
			<g>
				<path class="st6" d="M262.5,440c0,0-0.1,0-0.1,0c-1.4,0-2.6-0.7-3.5-1.8c-2.3-3.1-1-9.2-0.7-10.5c0.3-1.1,1.4-1.8,2.5-1.5
					c1.1,0.3,1.8,1.4,1.5,2.5c-0.5,2.2-0.8,5.9,0,7c1.4-0.3,2.2-5.3,1.8-10.6c-0.1-1,0.6-2,1.6-2.2c1-0.2,2,0.4,2.3,1.3
					c1.2,3.4,3.3,6.8,4.3,6.9c0.1,0,0.4-0.2,0.8-0.7c0.6-0.7,0.7-1.4,0.6-2.2c-0.6-2.7-4.9-5.7-6.4-6.5c-0.5-0.3-0.9-0.8-1-1.3
					c-0.1-0.6,0-1.2,0.3-1.6c14.7-20.4,14.1-92.2,13.5-113.8c0-1.1,0.9-2.1,2-2.1c1.1-0.1,2.1,0.9,2.1,2
					c0.7,27.2,0.7,91.7-13.1,114.5c2.3,1.6,5.8,4.5,6.5,8.1c0.4,1.9-0.1,3.8-1.3,5.5c-1.7,2.2-3.5,2.4-4.7,2.2
					c-1.4-0.2-2.7-1.2-3.7-2.5c-0.3,2.3-1,4.5-2.2,5.8C264.7,439.5,263.6,440,262.5,440z"/>
			</g>
			<g>
				<path class="st6" d="M140.7,335.6c-0.9,0-1.7-0.6-2-1.4c-0.3-1.1,0.3-2.2,1.4-2.6l39.8-12.3c1.1-0.3,2.2,0.3,2.6,1.4
					c0.3,1.1-0.3,2.2-1.4,2.6l-39.8,12.3C141.1,335.5,140.9,335.6,140.7,335.6z"/>
			</g>
			<g>
				<path class="st6" d="M165.3,337.7c-0.9,0-1.7-0.6-2-1.4c-0.3-1.1,0.3-2.2,1.4-2.6l39.8-12.3c1.1-0.3,2.2,0.3,2.6,1.4
					c0.3,1.1-0.3,2.2-1.4,2.6l-39.8,12.3C165.7,337.7,165.5,337.7,165.3,337.7z"/>
			</g>
			<g>
				<path class="st6" d="M174.8,219.9c-3.8,0-7.3-0.5-10.3-1.8c-1-0.4-1.5-1.6-1.1-2.7c0.4-1,1.6-1.5,2.7-1.1
					c16.2,6.9,53.7-12.1,54.1-12.3c1-0.5,2.2-0.1,2.8,0.9c0.5,1,0.1,2.2-0.9,2.8C220.7,206.4,194,219.9,174.8,219.9z"/>
			</g>
		</g>
	</g>
</g>
<g id="Layer_3">
</g>
</svg>
