<svg viewBox="0 0 363 309" fill="none" xmlns="http://www.w3.org/2000/svg">
<rect width="363" height="309" rx="35" fill="#E9EFFD"/>
<path d="M42 0H322V269C322 285.569 308.569 299 292 299H72C55.4315 299 42 285.569 42 269V0Z" fill="#2160E8"/>
<path d="M53 0H311V266C311 277.046 302.046 286 291 286H73C61.9543 286 53 277.046 53 266V0Z" fill="white"/>
<g filter="url(#filter0_d_189_315)">
<rect x="65" y="196" width="170" height="60" rx="20" fill="#2160E8"/>
</g>
<path d="M112.63 226.7C112.63 225.464 112.906 224.36 113.458 223.388C114.022 222.404 114.784 221.642 115.744 221.102C116.716 220.55 117.802 220.274 119.002 220.274C120.406 220.274 121.636 220.634 122.692 221.354C123.748 222.074 124.486 223.07 124.906 224.342H122.008C121.72 223.742 121.312 223.292 120.784 222.992C120.268 222.692 119.668 222.542 118.984 222.542C118.252 222.542 117.598 222.716 117.022 223.064C116.458 223.4 116.014 223.88 115.69 224.504C115.378 225.128 115.222 225.86 115.222 226.7C115.222 227.528 115.378 228.26 115.69 228.896C116.014 229.52 116.458 230.006 117.022 230.354C117.598 230.69 118.252 230.858 118.984 230.858C119.668 230.858 120.268 230.708 120.784 230.408C121.312 230.096 121.72 229.64 122.008 229.04H124.906C124.486 230.324 123.748 231.326 122.692 232.046C121.648 232.754 120.418 233.108 119.002 233.108C117.802 233.108 116.716 232.838 115.744 232.298C114.784 231.746 114.022 230.984 113.458 230.012C112.906 229.04 112.63 227.936 112.63 226.7ZM131.666 233.162C130.706 233.162 129.842 232.952 129.074 232.532C128.306 232.1 127.7 231.494 127.256 230.714C126.824 229.934 126.608 229.034 126.608 228.014C126.608 226.994 126.83 226.094 127.274 225.314C127.73 224.534 128.348 223.934 129.128 223.514C129.908 223.082 130.778 222.866 131.738 222.866C132.698 222.866 133.568 223.082 134.348 223.514C135.128 223.934 135.74 224.534 136.184 225.314C136.64 226.094 136.868 226.994 136.868 228.014C136.868 229.034 136.634 229.934 136.166 230.714C135.71 231.494 135.086 232.1 134.294 232.532C133.514 232.952 132.638 233.162 131.666 233.162ZM131.666 230.966C132.122 230.966 132.548 230.858 132.944 230.642C133.352 230.414 133.676 230.078 133.916 229.634C134.156 229.19 134.276 228.65 134.276 228.014C134.276 227.066 134.024 226.34 133.52 225.836C133.028 225.32 132.422 225.062 131.702 225.062C130.982 225.062 130.376 225.32 129.884 225.836C129.404 226.34 129.164 227.066 129.164 228.014C129.164 228.962 129.398 229.694 129.866 230.21C130.346 230.714 130.946 230.966 131.666 230.966ZM144.423 222.884C145.611 222.884 146.571 223.262 147.303 224.018C148.035 224.762 148.401 225.806 148.401 227.15V233H145.881V227.492C145.881 226.7 145.683 226.094 145.287 225.674C144.891 225.242 144.351 225.026 143.667 225.026C142.971 225.026 142.419 225.242 142.011 225.674C141.615 226.094 141.417 226.7 141.417 227.492V233H138.897V223.028H141.417V224.27C141.753 223.838 142.179 223.502 142.695 223.262C143.223 223.01 143.799 222.884 144.423 222.884ZM150.329 228.014C150.329 226.982 150.539 226.082 150.959 225.314C151.379 224.534 151.961 223.934 152.705 223.514C153.449 223.082 154.301 222.866 155.261 222.866C156.497 222.866 157.517 223.178 158.321 223.802C159.137 224.414 159.683 225.278 159.959 226.394H157.241C157.097 225.962 156.851 225.626 156.503 225.386C156.167 225.134 155.747 225.008 155.243 225.008C154.523 225.008 153.953 225.272 153.533 225.8C153.113 226.316 152.903 227.054 152.903 228.014C152.903 228.962 153.113 229.7 153.533 230.228C153.953 230.744 154.523 231.002 155.243 231.002C156.263 231.002 156.929 230.546 157.241 229.634H159.959C159.683 230.714 159.137 231.572 158.321 232.208C157.505 232.844 156.485 233.162 155.261 233.162C154.301 233.162 153.449 232.952 152.705 232.532C151.961 232.1 151.379 231.5 150.959 230.732C150.539 229.952 150.329 229.046 150.329 228.014ZM164.505 219.68V233H161.985V219.68H164.505ZM176.589 223.028V233H174.051V231.74C173.727 232.172 173.301 232.514 172.773 232.766C172.257 233.006 171.693 233.126 171.081 233.126C170.301 233.126 169.611 232.964 169.011 232.64C168.411 232.304 167.937 231.818 167.589 231.182C167.253 230.534 167.085 229.766 167.085 228.878V223.028H169.605V228.518C169.605 229.31 169.803 229.922 170.199 230.354C170.595 230.774 171.135 230.984 171.819 230.984C172.515 230.984 173.061 230.774 173.457 230.354C173.853 229.922 174.051 229.31 174.051 228.518V223.028H176.589ZM180.534 221.84C180.09 221.84 179.718 221.702 179.418 221.426C179.13 221.138 178.986 220.784 178.986 220.364C178.986 219.944 179.13 219.596 179.418 219.32C179.718 219.032 180.09 218.888 180.534 218.888C180.978 218.888 181.344 219.032 181.632 219.32C181.932 219.596 182.082 219.944 182.082 220.364C182.082 220.784 181.932 221.138 181.632 221.426C181.344 221.702 180.978 221.84 180.534 221.84ZM181.776 223.028V233H179.256V223.028H181.776ZM186.965 224.576C187.289 224.048 187.709 223.634 188.225 223.334C188.753 223.034 189.353 222.884 190.025 222.884V225.53H189.359C188.567 225.53 187.967 225.716 187.559 226.088C187.163 226.46 186.965 227.108 186.965 228.032V233H184.445V223.028H186.965V224.576Z" fill="white"/>
<rect x="65" width="234" height="60" rx="16" fill="#EAF0F7"/>
<rect x="65" y="104" width="234" height="60" rx="16" fill="#EAF0F7"/>
<path d="M85.96 30.016C85.96 28.1707 86.2693 26.7307 86.888 25.696C87.5173 24.6507 88.5947 24.128 90.12 24.128C91.6453 24.128 92.7173 24.6507 93.336 25.696C93.9653 26.7307 94.28 28.1707 94.28 30.016C94.28 31.8827 93.9653 33.344 93.336 34.4C92.7173 35.4453 91.6453 35.968 90.12 35.968C88.5947 35.968 87.5173 35.4453 86.888 34.4C86.2693 33.344 85.96 31.8827 85.96 30.016ZM92.488 30.016C92.488 29.152 92.4293 28.4213 92.312 27.824C92.2053 27.2267 91.9813 26.7413 91.64 26.368C91.2987 25.984 90.792 25.792 90.12 25.792C89.448 25.792 88.9413 25.984 88.6 26.368C88.2587 26.7413 88.0293 27.2267 87.912 27.824C87.8053 28.4213 87.752 29.152 87.752 30.016C87.752 30.912 87.8053 31.664 87.912 32.272C88.0187 32.88 88.2427 33.3707 88.584 33.744C88.936 34.1173 89.448 34.304 90.12 34.304C90.792 34.304 91.2987 34.1173 91.64 33.744C91.992 33.3707 92.2213 32.88 92.328 32.272C92.4347 31.664 92.488 30.912 92.488 30.016ZM96.29 26V24.336H99.618V36H97.778V26H96.29ZM103.452 33.52C104.476 32.6347 105.281 31.9093 105.868 31.344C106.465 30.768 106.961 30.1707 107.356 29.552C107.75 28.9333 107.948 28.3147 107.948 27.696C107.948 27.056 107.793 26.5547 107.484 26.192C107.185 25.8293 106.71 25.648 106.06 25.648C105.43 25.648 104.94 25.8507 104.588 26.256C104.246 26.6507 104.065 27.184 104.044 27.856H102.284C102.316 26.64 102.678 25.712 103.372 25.072C104.076 24.4213 104.966 24.096 106.044 24.096C107.206 24.096 108.113 24.416 108.764 25.056C109.425 25.696 109.756 26.5493 109.756 27.616C109.756 28.384 109.558 29.1253 109.164 29.84C108.78 30.544 108.316 31.1787 107.772 31.744C107.238 32.2987 106.556 32.944 105.724 33.68L105.004 34.32H110.076V35.84H102.3V34.512L103.452 33.52ZM111.966 27.216C112.03 26.224 112.409 25.4507 113.102 24.896C113.806 24.3413 114.702 24.064 115.79 24.064C116.537 24.064 117.182 24.1973 117.726 24.464C118.27 24.7307 118.681 25.0933 118.958 25.552C119.235 26.0107 119.374 26.528 119.374 27.104C119.374 27.7653 119.198 28.3307 118.846 28.8C118.494 29.2693 118.073 29.584 117.582 29.744V29.808C118.211 30 118.702 30.352 119.054 30.864C119.406 31.3653 119.582 32.0107 119.582 32.8C119.582 33.4293 119.438 33.9893 119.15 34.48C118.862 34.9707 118.435 35.36 117.87 35.648C117.305 35.9253 116.627 36.064 115.838 36.064C114.686 36.064 113.737 35.7707 112.99 35.184C112.254 34.5867 111.859 33.7333 111.806 32.624H113.566C113.609 33.1893 113.827 33.6533 114.222 34.016C114.617 34.368 115.15 34.544 115.822 34.544C116.473 34.544 116.974 34.368 117.326 34.016C117.678 33.6533 117.854 33.1893 117.854 32.624C117.854 31.8773 117.614 31.3493 117.134 31.04C116.665 30.72 115.939 30.56 114.958 30.56H114.542V29.056H114.974C115.838 29.0453 116.494 28.9013 116.942 28.624C117.401 28.3467 117.63 27.9093 117.63 27.312C117.63 26.8 117.465 26.3947 117.134 26.096C116.803 25.7867 116.334 25.632 115.726 25.632C115.129 25.632 114.665 25.7867 114.334 26.096C114.003 26.3947 113.806 26.768 113.742 27.216H111.966ZM121.594 33.568V32.192L126.97 24.48H129.178V31.984H130.666V33.568H129.178V36H127.386V33.568H121.594ZM127.466 26.336L123.69 31.984H127.466V26.336ZM139.505 29.44V30.976H132.929V29.44H139.505ZM142.177 30.016C142.177 28.1707 142.486 26.7307 143.105 25.696C143.734 24.6507 144.812 24.128 146.337 24.128C147.862 24.128 148.934 24.6507 149.553 25.696C150.182 26.7307 150.497 28.1707 150.497 30.016C150.497 31.8827 150.182 33.344 149.553 34.4C148.934 35.4453 147.862 35.968 146.337 35.968C144.812 35.968 143.734 35.4453 143.105 34.4C142.486 33.344 142.177 31.8827 142.177 30.016ZM148.705 30.016C148.705 29.152 148.646 28.4213 148.529 27.824C148.422 27.2267 148.198 26.7413 147.857 26.368C147.516 25.984 147.009 25.792 146.337 25.792C145.665 25.792 145.158 25.984 144.817 26.368C144.476 26.7413 144.246 27.2267 144.129 27.824C144.022 28.4213 143.969 29.152 143.969 30.016C143.969 30.912 144.022 31.664 144.129 32.272C144.236 32.88 144.46 33.3707 144.801 33.744C145.153 34.1173 145.665 34.304 146.337 34.304C147.009 34.304 147.516 34.1173 147.857 33.744C148.209 33.3707 148.438 32.88 148.545 32.272C148.652 31.664 148.705 30.912 148.705 30.016ZM153.755 33.52C154.779 32.6347 155.584 31.9093 156.171 31.344C156.768 30.768 157.264 30.1707 157.659 29.552C158.054 28.9333 158.251 28.3147 158.251 27.696C158.251 27.056 158.096 26.5547 157.787 26.192C157.488 25.8293 157.014 25.648 156.363 25.648C155.734 25.648 155.243 25.8507 154.891 26.256C154.55 26.6507 154.368 27.184 154.347 27.856H152.587C152.619 26.64 152.982 25.712 153.675 25.072C154.379 24.4213 155.27 24.096 156.347 24.096C157.51 24.096 158.416 24.416 159.067 25.056C159.728 25.696 160.059 26.5493 160.059 27.616C160.059 28.384 159.862 29.1253 159.467 29.84C159.083 30.544 158.619 31.1787 158.075 31.744C157.542 32.2987 156.859 32.944 156.027 33.68L155.307 34.32H160.379V35.84H152.603V34.512L153.755 33.52ZM162.301 30.016C162.301 28.1707 162.611 26.7307 163.229 25.696C163.859 24.6507 164.936 24.128 166.461 24.128C167.987 24.128 169.059 24.6507 169.677 25.696C170.307 26.7307 170.621 28.1707 170.621 30.016C170.621 31.8827 170.307 33.344 169.677 34.4C169.059 35.4453 167.987 35.968 166.461 35.968C164.936 35.968 163.859 35.4453 163.229 34.4C162.611 33.344 162.301 31.8827 162.301 30.016ZM168.829 30.016C168.829 29.152 168.771 28.4213 168.653 27.824C168.547 27.2267 168.323 26.7413 167.981 26.368C167.64 25.984 167.133 25.792 166.461 25.792C165.789 25.792 165.283 25.984 164.941 26.368C164.6 26.7413 164.371 27.2267 164.253 27.824C164.147 28.4213 164.093 29.152 164.093 30.016C164.093 30.912 164.147 31.664 164.253 32.272C164.36 32.88 164.584 33.3707 164.925 33.744C165.277 34.1173 165.789 34.304 166.461 34.304C167.133 34.304 167.64 34.1173 167.981 33.744C168.333 33.3707 168.563 32.88 168.669 32.272C168.776 31.664 168.829 30.912 168.829 30.016Z" fill="#656464"/>
<path d="M91.976 140L89.416 135.552H88.024V140H86.2V128.88H90.04C90.8933 128.88 91.6133 129.029 92.2 129.328C92.7973 129.627 93.24 130.027 93.528 130.528C93.8267 131.029 93.976 131.589 93.976 132.208C93.976 132.933 93.7627 133.595 93.336 134.192C92.92 134.779 92.2747 135.179 91.4 135.392L94.152 140H91.976ZM88.024 134.096H90.04C90.7227 134.096 91.2347 133.925 91.576 133.584C91.928 133.243 92.104 132.784 92.104 132.208C92.104 131.632 91.9333 131.184 91.592 130.864C91.2507 130.533 90.7333 130.368 90.04 130.368H88.024V134.096ZM104.613 131.184V140H102.789V138.96C102.501 139.323 102.123 139.611 101.653 139.824C101.195 140.027 100.704 140.128 100.181 140.128C99.488 140.128 98.864 139.984 98.3094 139.696C97.7654 139.408 97.3334 138.981 97.0134 138.416C96.704 137.851 96.5494 137.168 96.5494 136.368V131.184H98.3574V136.096C98.3574 136.885 98.5547 137.493 98.9494 137.92C99.344 138.336 99.8827 138.544 100.565 138.544C101.248 138.544 101.787 138.336 102.181 137.92C102.587 137.493 102.789 136.885 102.789 136.096V131.184H104.613ZM106.732 135.552C106.732 134.667 106.913 133.883 107.276 133.2C107.649 132.517 108.151 131.989 108.78 131.616C109.42 131.232 110.124 131.04 110.892 131.04C111.585 131.04 112.188 131.179 112.7 131.456C113.223 131.723 113.639 132.059 113.948 132.464V131.184H115.788V140H113.948V138.688C113.639 139.104 113.217 139.451 112.684 139.728C112.151 140.005 111.543 140.144 110.86 140.144C110.103 140.144 109.409 139.952 108.78 139.568C108.151 139.173 107.649 138.629 107.276 137.936C106.913 137.232 106.732 136.437 106.732 135.552ZM113.948 135.584C113.948 134.976 113.82 134.448 113.564 134C113.319 133.552 112.993 133.211 112.588 132.976C112.183 132.741 111.745 132.624 111.276 132.624C110.807 132.624 110.369 132.741 109.964 132.976C109.559 133.2 109.228 133.536 108.972 133.984C108.727 134.421 108.604 134.944 108.604 135.552C108.604 136.16 108.727 136.693 108.972 137.152C109.228 137.611 109.559 137.963 109.964 138.208C110.38 138.443 110.817 138.56 111.276 138.56C111.745 138.56 112.183 138.443 112.588 138.208C112.993 137.973 113.319 137.632 113.564 137.184C113.82 136.725 113.948 136.192 113.948 135.584ZM129.524 128.88V130.368H124.804V133.648H128.484V135.136H124.804V140H122.98V128.88H129.524ZM139.518 131.184V140H137.694V138.96C137.406 139.323 137.028 139.611 136.558 139.824C136.1 140.027 135.609 140.128 135.086 140.128C134.393 140.128 133.769 139.984 133.214 139.696C132.67 139.408 132.238 138.981 131.918 138.416C131.609 137.851 131.454 137.168 131.454 136.368V131.184H133.262V136.096C133.262 136.885 133.46 137.493 133.854 137.92C134.249 138.336 134.788 138.544 135.47 138.544C136.153 138.544 136.692 138.336 137.086 137.92C137.492 137.493 137.694 136.885 137.694 136.096V131.184H139.518ZM144.069 128.16V140H142.245V128.16H144.069ZM146.176 135.552C146.176 134.667 146.357 133.883 146.72 133.2C147.093 132.517 147.594 131.989 148.224 131.616C148.864 131.232 149.568 131.04 150.336 131.04C151.029 131.04 151.632 131.179 152.144 131.456C152.666 131.723 153.082 132.059 153.392 132.464V131.184H155.232V140H153.392V138.688C153.082 139.104 152.661 139.451 152.128 139.728C151.594 140.005 150.986 140.144 150.304 140.144C149.546 140.144 148.853 139.952 148.224 139.568C147.594 139.173 147.093 138.629 146.72 137.936C146.357 137.232 146.176 136.437 146.176 135.552ZM153.392 135.584C153.392 134.976 153.264 134.448 153.008 134C152.762 133.552 152.437 133.211 152.032 132.976C151.626 132.741 151.189 132.624 150.72 132.624C150.25 132.624 149.813 132.741 149.408 132.976C149.002 133.2 148.672 133.536 148.416 133.984C148.17 134.421 148.048 134.944 148.048 135.552C148.048 136.16 148.17 136.693 148.416 137.152C148.672 137.611 149.002 137.963 149.408 138.208C149.824 138.443 150.261 138.56 150.72 138.56C151.189 138.56 151.626 138.443 152.032 138.208C152.437 137.973 152.762 137.632 153.008 137.184C153.264 136.725 153.392 136.192 153.392 135.584ZM162.395 131.04C163.089 131.04 163.707 131.184 164.251 131.472C164.806 131.76 165.238 132.187 165.547 132.752C165.857 133.317 166.011 134 166.011 134.8V140H164.203V135.072C164.203 134.283 164.006 133.68 163.611 133.264C163.217 132.837 162.678 132.624 161.995 132.624C161.313 132.624 160.769 132.837 160.363 133.264C159.969 133.68 159.771 134.283 159.771 135.072V140H157.947V131.184H159.771V132.192C160.07 131.829 160.449 131.547 160.907 131.344C161.377 131.141 161.873 131.04 162.395 131.04ZM172.482 140.144C171.65 140.144 170.898 139.957 170.226 139.584C169.554 139.2 169.026 138.667 168.642 137.984C168.258 137.291 168.066 136.491 168.066 135.584C168.066 134.688 168.263 133.893 168.658 133.2C169.053 132.507 169.591 131.973 170.274 131.6C170.957 131.227 171.719 131.04 172.562 131.04C173.405 131.04 174.167 131.227 174.85 131.6C175.533 131.973 176.071 132.507 176.466 133.2C176.861 133.893 177.058 134.688 177.058 135.584C177.058 136.48 176.855 137.275 176.45 137.968C176.045 138.661 175.49 139.2 174.786 139.584C174.093 139.957 173.325 140.144 172.482 140.144ZM172.482 138.56C172.951 138.56 173.389 138.448 173.794 138.224C174.21 138 174.546 137.664 174.802 137.216C175.058 136.768 175.186 136.224 175.186 135.584C175.186 134.944 175.063 134.405 174.818 133.968C174.573 133.52 174.247 133.184 173.842 132.96C173.437 132.736 172.999 132.624 172.53 132.624C172.061 132.624 171.623 132.736 171.218 132.96C170.823 133.184 170.509 133.52 170.274 133.968C170.039 134.405 169.922 134.944 169.922 135.584C169.922 136.533 170.162 137.269 170.642 137.792C171.133 138.304 171.746 138.56 172.482 138.56ZM190.361 137.728H185.705L184.905 140H183.001L186.985 128.864H189.097L193.081 140H191.161L190.361 137.728ZM189.849 136.24L188.041 131.072L186.217 136.24H189.849ZM196.958 128.16V140H195.134V128.16H196.958ZM203.081 138.368L205.577 131.184H207.513L204.153 140H201.977L198.633 131.184H200.585L203.081 138.368ZM217.291 135.376C217.291 135.707 217.27 136.005 217.227 136.272H210.491C210.545 136.976 210.806 137.541 211.275 137.968C211.745 138.395 212.321 138.608 213.003 138.608C213.985 138.608 214.678 138.197 215.083 137.376H217.051C216.785 138.187 216.299 138.853 215.595 139.376C214.902 139.888 214.038 140.144 213.003 140.144C212.161 140.144 211.403 139.957 210.731 139.584C210.07 139.2 209.547 138.667 209.163 137.984C208.79 137.291 208.603 136.491 208.603 135.584C208.603 134.677 208.785 133.883 209.147 133.2C209.521 132.507 210.038 131.973 210.699 131.6C211.371 131.227 212.139 131.04 213.003 131.04C213.835 131.04 214.577 131.221 215.227 131.584C215.878 131.947 216.385 132.459 216.747 133.12C217.11 133.771 217.291 134.523 217.291 135.376ZM215.387 134.8C215.377 134.128 215.137 133.589 214.667 133.184C214.198 132.779 213.617 132.576 212.923 132.576C212.294 132.576 211.755 132.779 211.307 133.184C210.859 133.579 210.593 134.117 210.507 134.8H215.387ZM222.606 140.144C221.913 140.144 221.289 140.021 220.734 139.776C220.19 139.52 219.758 139.179 219.438 138.752C219.118 138.315 218.948 137.829 218.926 137.296H220.814C220.846 137.669 221.022 137.984 221.342 138.24C221.673 138.485 222.084 138.608 222.574 138.608C223.086 138.608 223.481 138.512 223.758 138.32C224.046 138.117 224.19 137.861 224.19 137.552C224.19 137.221 224.03 136.976 223.71 136.816C223.401 136.656 222.905 136.48 222.222 136.288C221.561 136.107 221.022 135.931 220.606 135.76C220.19 135.589 219.828 135.328 219.518 134.976C219.22 134.624 219.07 134.16 219.07 133.584C219.07 133.115 219.209 132.688 219.486 132.304C219.764 131.909 220.158 131.6 220.67 131.376C221.193 131.152 221.79 131.04 222.462 131.04C223.465 131.04 224.27 131.296 224.878 131.808C225.497 132.309 225.828 132.997 225.87 133.872H224.046C224.014 133.477 223.854 133.163 223.566 132.928C223.278 132.693 222.889 132.576 222.398 132.576C221.918 132.576 221.55 132.667 221.294 132.848C221.038 133.029 220.91 133.269 220.91 133.568C220.91 133.803 220.996 134 221.166 134.16C221.337 134.32 221.545 134.448 221.79 134.544C222.036 134.629 222.398 134.741 222.878 134.88C223.518 135.051 224.041 135.227 224.446 135.408C224.862 135.579 225.22 135.835 225.518 136.176C225.817 136.517 225.972 136.971 225.982 137.536C225.982 138.037 225.844 138.485 225.566 138.88C225.289 139.275 224.894 139.584 224.382 139.808C223.881 140.032 223.289 140.144 222.606 140.144ZM232.141 135.552C232.141 134.667 232.323 133.883 232.685 133.2C233.059 132.517 233.56 131.989 234.189 131.616C234.829 131.232 235.539 131.04 236.317 131.04C236.893 131.04 237.459 131.168 238.013 131.424C238.579 131.669 239.027 132 239.357 132.416V128.16H241.197V140H239.357V138.672C239.059 139.099 238.643 139.451 238.109 139.728C237.587 140.005 236.984 140.144 236.301 140.144C235.533 140.144 234.829 139.952 234.189 139.568C233.56 139.173 233.059 138.629 232.685 137.936C232.323 137.232 232.141 136.437 232.141 135.552ZM239.357 135.584C239.357 134.976 239.229 134.448 238.973 134C238.728 133.552 238.403 133.211 237.997 132.976C237.592 132.741 237.155 132.624 236.685 132.624C236.216 132.624 235.779 132.741 235.373 132.976C234.968 133.2 234.637 133.536 234.381 133.984C234.136 134.421 234.013 134.944 234.013 135.552C234.013 136.16 234.136 136.693 234.381 137.152C234.637 137.611 234.968 137.963 235.373 138.208C235.789 138.443 236.227 138.56 236.685 138.56C237.155 138.56 237.592 138.443 237.997 138.208C238.403 137.973 238.728 137.632 238.973 137.184C239.229 136.725 239.357 136.192 239.357 135.584ZM243.305 135.552C243.305 134.667 243.486 133.883 243.849 133.2C244.222 132.517 244.724 131.989 245.353 131.616C245.993 131.232 246.697 131.04 247.465 131.04C248.158 131.04 248.761 131.179 249.273 131.456C249.796 131.723 250.212 132.059 250.521 132.464V131.184H252.361V140H250.521V138.688C250.212 139.104 249.79 139.451 249.257 139.728C248.724 140.005 248.116 140.144 247.433 140.144C246.676 140.144 245.982 139.952 245.353 139.568C244.724 139.173 244.222 138.629 243.849 137.936C243.486 137.232 243.305 136.437 243.305 135.552ZM250.521 135.584C250.521 134.976 250.393 134.448 250.137 134C249.892 133.552 249.566 133.211 249.161 132.976C248.756 132.741 248.318 132.624 247.849 132.624C247.38 132.624 246.942 132.741 246.537 132.976C246.132 133.2 245.801 133.536 245.545 133.984C245.3 134.421 245.177 134.944 245.177 135.552C245.177 136.16 245.3 136.693 245.545 137.152C245.801 137.611 246.132 137.963 246.537 138.208C246.953 138.443 247.39 138.56 247.849 138.56C248.318 138.56 248.756 138.443 249.161 138.208C249.566 137.973 249.892 137.632 250.137 137.184C250.393 136.725 250.521 136.192 250.521 135.584ZM263.217 140.112C262.47 140.112 261.798 139.984 261.201 139.728C260.604 139.461 260.134 139.088 259.793 138.608C259.452 138.128 259.281 137.568 259.281 136.928H261.233C261.276 137.408 261.462 137.803 261.793 138.112C262.134 138.421 262.609 138.576 263.217 138.576C263.846 138.576 264.337 138.427 264.689 138.128C265.041 137.819 265.217 137.424 265.217 136.944C265.217 136.571 265.105 136.267 264.881 136.032C264.668 135.797 264.396 135.616 264.065 135.488C263.745 135.36 263.297 135.221 262.721 135.072C261.996 134.88 261.404 134.688 260.945 134.496C260.497 134.293 260.113 133.984 259.793 133.568C259.473 133.152 259.313 132.597 259.313 131.904C259.313 131.264 259.473 130.704 259.793 130.224C260.113 129.744 260.561 129.376 261.137 129.12C261.713 128.864 262.38 128.736 263.137 128.736C264.214 128.736 265.094 129.008 265.777 129.552C266.47 130.085 266.854 130.821 266.929 131.76H264.913C264.881 131.355 264.689 131.008 264.337 130.72C263.985 130.432 263.521 130.288 262.945 130.288C262.422 130.288 261.996 130.421 261.665 130.688C261.334 130.955 261.169 131.339 261.169 131.84C261.169 132.181 261.27 132.464 261.473 132.688C261.686 132.901 261.953 133.072 262.273 133.2C262.593 133.328 263.03 133.467 263.585 133.616C264.321 133.819 264.918 134.021 265.377 134.224C265.846 134.427 266.241 134.741 266.561 135.168C266.892 135.584 267.057 136.144 267.057 136.848C267.057 137.413 266.902 137.947 266.593 138.448C266.294 138.949 265.852 139.355 265.265 139.664C264.689 139.963 264.006 140.112 263.217 140.112ZM270.457 130.016C270.127 130.016 269.849 129.904 269.625 129.68C269.401 129.456 269.289 129.179 269.289 128.848C269.289 128.517 269.401 128.24 269.625 128.016C269.849 127.792 270.127 127.68 270.457 127.68C270.777 127.68 271.049 127.792 271.273 128.016C271.497 128.24 271.609 128.517 271.609 128.848C271.609 129.179 271.497 129.456 271.273 129.68C271.049 129.904 270.777 130.016 270.457 130.016ZM271.353 131.184V140H269.529V131.184H271.353ZM275.892 128.16V140H274.068V128.16H275.892ZM282.015 138.368L284.511 131.184H286.447L283.087 140H280.911L277.567 131.184H279.519L282.015 138.368ZM287.538 135.552C287.538 134.667 287.719 133.883 288.082 133.2C288.455 132.517 288.956 131.989 289.586 131.616C290.226 131.232 290.93 131.04 291.698 131.04C292.391 131.04 292.994 131.179 293.506 131.456C294.028 131.723 294.444 132.059 294.754 132.464V131.184H296.594V140H294.754V138.688C294.444 139.104 294.023 139.451 293.49 139.728C292.956 140.005 292.348 140.144 291.666 140.144C290.908 140.144 290.215 139.952 289.586 139.568C288.956 139.173 288.455 138.629 288.082 137.936C287.719 137.232 287.538 136.437 287.538 135.552ZM294.754 135.584C294.754 134.976 294.626 134.448 294.37 134C294.124 133.552 293.799 133.211 293.394 132.976C292.988 132.741 292.551 132.624 292.082 132.624C291.612 132.624 291.175 132.741 290.77 132.976C290.364 133.2 290.034 133.536 289.778 133.984C289.532 134.421 289.41 134.944 289.41 135.552C289.41 136.16 289.532 136.693 289.778 137.152C290.034 137.611 290.364 137.963 290.77 138.208C291.186 138.443 291.623 138.56 292.082 138.56C292.551 138.56 292.988 138.443 293.394 138.208C293.799 137.973 294.124 137.632 294.37 137.184C294.626 136.725 294.754 136.192 294.754 135.584Z" fill="#656464"/>
<path d="M68.344 83.64V86.44H72.104V88.216H68.344V91.176H72.584V93H66.104V81.816H72.584V83.64H68.344ZM79.5316 84.008C80.5876 84.008 81.441 84.344 82.0916 85.016C82.7423 85.6773 83.0676 86.6053 83.0676 87.8V93H80.8276V88.104C80.8276 87.4 80.6516 86.8613 80.2996 86.488C79.9476 86.104 79.4676 85.912 78.8596 85.912C78.241 85.912 77.7503 86.104 77.3876 86.488C77.0356 86.8613 76.8596 87.4 76.8596 88.104V93H74.6196V84.136H76.8596V85.24C77.1583 84.856 77.537 84.5573 77.9956 84.344C78.465 84.12 78.977 84.008 79.5316 84.008ZM84.6217 88.536C84.6217 87.64 84.7977 86.8453 85.1497 86.152C85.5124 85.4587 86.0031 84.9253 86.6218 84.552C87.2404 84.1787 87.9284 83.992 88.6858 83.992C89.2618 83.992 89.8111 84.12 90.3338 84.376C90.8564 84.6213 91.2724 84.952 91.5818 85.368V81.16H93.8538V93H91.5818V91.688C91.3044 92.1253 90.9151 92.4773 90.4138 92.744C89.9124 93.0107 89.3311 93.144 88.6698 93.144C87.9231 93.144 87.2404 92.952 86.6218 92.568C86.0031 92.184 85.5124 91.6453 85.1497 90.952C84.7977 90.248 84.6217 89.4427 84.6217 88.536ZM91.5978 88.568C91.5978 88.024 91.4911 87.56 91.2778 87.176C91.0644 86.7813 90.7764 86.4827 90.4138 86.28C90.0511 86.0667 89.6618 85.96 89.2458 85.96C88.8298 85.96 88.4458 86.0613 88.0938 86.264C87.7418 86.4667 87.4538 86.7653 87.2298 87.16C87.0164 87.544 86.9098 88.0027 86.9098 88.536C86.9098 89.0693 87.0164 89.5387 87.2298 89.944C87.4538 90.3387 87.7418 90.6427 88.0938 90.856C88.4564 91.0693 88.8404 91.176 89.2458 91.176C89.6618 91.176 90.0511 91.0747 90.4138 90.872C90.7764 90.6587 91.0644 90.36 91.2778 89.976C91.4911 89.5813 91.5978 89.112 91.5978 88.568ZM104.282 88.376C104.282 88.696 104.26 88.984 104.218 89.24H97.7375C97.7908 89.88 98.0148 90.3813 98.4095 90.744C98.8042 91.1067 99.2895 91.288 99.8655 91.288C100.698 91.288 101.29 90.9307 101.642 90.216H104.058C103.802 91.0693 103.311 91.7733 102.586 92.328C101.86 92.872 100.97 93.144 99.9135 93.144C99.0602 93.144 98.2922 92.9573 97.6095 92.584C96.9375 92.2 96.4095 91.6613 96.0255 90.968C95.6522 90.2747 95.4655 89.4747 95.4655 88.568C95.4655 87.6507 95.6522 86.8453 96.0255 86.152C96.3988 85.4587 96.9215 84.9253 97.5935 84.552C98.2655 84.1787 99.0388 83.992 99.9135 83.992C100.756 83.992 101.508 84.1733 102.17 84.536C102.842 84.8987 103.359 85.416 103.722 86.088C104.095 86.7493 104.282 87.512 104.282 88.376ZM101.962 87.736C101.951 87.16 101.743 86.7013 101.338 86.36C100.932 86.008 100.436 85.832 99.8495 85.832C99.2948 85.832 98.8255 86.0027 98.4415 86.344C98.0682 86.6747 97.8388 87.1387 97.7535 87.736H101.962ZM108.157 85.512C108.445 85.0427 108.818 84.6747 109.277 84.408C109.746 84.1413 110.279 84.008 110.877 84.008V86.36H110.285C109.581 86.36 109.047 86.5253 108.685 86.856C108.333 87.1867 108.157 87.7627 108.157 88.584V93H105.917V84.136H108.157V85.512ZM120.625 88.376C120.625 88.696 120.604 88.984 120.561 89.24H114.081C114.135 89.88 114.359 90.3813 114.753 90.744C115.148 91.1067 115.633 91.288 116.209 91.288C117.041 91.288 117.633 90.9307 117.985 90.216H120.401C120.145 91.0693 119.655 91.7733 118.929 92.328C118.204 92.872 117.313 93.144 116.257 93.144C115.404 93.144 114.636 92.9573 113.953 92.584C113.281 92.2 112.753 91.6613 112.369 90.968C111.996 90.2747 111.809 89.4747 111.809 88.568C111.809 87.6507 111.996 86.8453 112.369 86.152C112.743 85.4587 113.265 84.9253 113.937 84.552C114.609 84.1787 115.383 83.992 116.257 83.992C117.1 83.992 117.852 84.1733 118.513 84.536C119.185 84.8987 119.703 85.416 120.065 86.088C120.439 86.7493 120.625 87.512 120.625 88.376ZM118.305 87.736C118.295 87.16 118.087 86.7013 117.681 86.36C117.276 86.008 116.78 85.832 116.193 85.832C115.639 85.832 115.169 86.0027 114.785 86.344C114.412 86.6747 114.183 87.1387 114.097 87.736H118.305ZM126.052 91.224C126.959 91.224 127.551 90.8187 127.828 90.008H130.244C130.02 90.872 129.604 91.576 128.996 92.12C128.399 92.664 127.647 92.9893 126.74 93.096V93.72C127.327 93.72 127.818 93.8693 128.212 94.168C128.618 94.4667 128.82 94.8987 128.82 95.464C128.82 96.04 128.612 96.4827 128.196 96.792C127.791 97.1013 127.29 97.256 126.692 97.256H124.42V95.944H126.324C126.58 95.944 126.772 95.9067 126.9 95.832C127.039 95.7573 127.108 95.624 127.108 95.432C127.108 95.24 127.039 95.1067 126.9 95.032C126.772 94.968 126.58 94.936 126.324 94.936H125.332V93.096C124.607 92.9893 123.967 92.7387 123.412 92.344C122.868 91.9387 122.442 91.416 122.132 90.776C121.834 90.1253 121.684 89.3893 121.684 88.568C121.684 87.6507 121.871 86.8507 122.244 86.168C122.618 85.4747 123.135 84.9413 123.796 84.568C124.458 84.184 125.215 83.992 126.068 83.992C127.167 83.992 128.074 84.2693 128.788 84.824C129.514 85.368 129.999 86.136 130.244 87.128H127.828C127.7 86.744 127.482 86.4453 127.172 86.232C126.874 86.008 126.5 85.896 126.052 85.896C125.412 85.896 124.906 86.1307 124.532 86.6C124.159 87.0587 123.972 87.7147 123.972 88.568C123.972 89.4107 124.159 90.0667 124.532 90.536C124.906 90.9947 125.412 91.224 126.052 91.224ZM135.821 93.144C134.968 93.144 134.2 92.9573 133.517 92.584C132.835 92.2 132.296 91.6613 131.901 90.968C131.517 90.2747 131.325 89.4747 131.325 88.568C131.325 87.6613 131.523 86.8613 131.917 86.168C132.323 85.4747 132.872 84.9413 133.565 84.568C134.259 84.184 135.032 83.992 135.885 83.992C136.739 83.992 137.512 84.184 138.205 84.568C138.899 84.9413 139.443 85.4747 139.837 86.168C140.243 86.8613 140.445 87.6613 140.445 88.568C140.445 89.4747 140.237 90.2747 139.821 90.968C139.416 91.6613 138.861 92.2 138.157 92.584C137.464 92.9573 136.685 93.144 135.821 93.144ZM135.821 91.192C136.227 91.192 136.605 91.096 136.957 90.904C137.32 90.7013 137.608 90.4027 137.821 90.008C138.035 89.6133 138.141 89.1333 138.141 88.568C138.141 87.7253 137.917 87.08 137.469 86.632C137.032 86.1733 136.493 85.944 135.853 85.944C135.213 85.944 134.675 86.1733 134.237 86.632C133.811 87.08 133.597 87.7253 133.597 88.568C133.597 89.4107 133.805 90.0613 134.221 90.52C134.648 90.968 135.181 91.192 135.821 91.192Z" fill="#090929"/>
<defs>
<filter id="filter0_d_189_315" x="45" y="186" width="210" height="100" filterUnits="userSpaceOnUse" color-interpolation-filters="sRGB">
<feFlood flood-opacity="0" result="BackgroundImageFix"/>
<feColorMatrix in="SourceAlpha" type="matrix" values="0 0 0 0 0 0 0 0 0 0 0 0 0 0 0 0 0 0 127 0" result="hardAlpha"/>
<feMorphology radius="2" operator="erode" in="SourceAlpha" result="effect1_dropShadow_189_315"/>
<feOffset dy="10"/>
<feGaussianBlur stdDeviation="11"/>
<feComposite in2="hardAlpha" operator="out"/>
<feColorMatrix type="matrix" values="0 0 0 0 0.129412 0 0 0 0 0.37647 0 0 0 0 0.909804 0 0 0 0.3 0"/>
<feBlend mode="normal" in2="BackgroundImageFix" result="effect1_dropShadow_189_315"/>
<feBlend mode="normal" in="SourceGraphic" in2="effect1_dropShadow_189_315" result="shape"/>
</filter>
</defs>
</svg>
