<svg width="744" height="858" viewBox="0 0 744 858" fill="none" xmlns="http://www.w3.org/2000/svg">
<path d="M676.751 219.849C699.528 211.007 710.746 171.557 738.282 91.296C744.401 73.9514 747.12 53.8862 736.922 53.8862C732.842 53.8862 731.143 57.9673 731.143 57.9673C731.143 57.9673 731.483 51.1655 726.723 50.4853C722.304 49.8051 720.944 53.5461 720.944 53.5461C720.944 53.5461 729.103 30.7602 722.984 27.6994C716.525 24.6386 709.386 49.4651 709.386 49.4651C709.386 49.4651 711.426 25.9989 705.307 24.9787C699.188 23.9584 655.335 164.755 655.335 164.755L578.507 159.994C548.932 154.212 532.954 212.368 532.954 212.368C532.954 212.368 652.615 229.372 676.751 219.849Z" fill="#A0D4FF"/>
<path d="M723.663 73.6121C723.323 73.6121 722.984 73.6121 722.644 73.6121C720.944 73.6121 719.584 72.5918 718.904 70.8914C716.185 66.1302 718.564 55.9275 720.264 52.8667C720.604 52.1865 721.284 52.1865 721.624 52.5266C722.304 52.8667 722.304 53.5469 721.964 53.887C720.264 56.9478 718.564 66.1301 720.604 69.8711C720.944 70.8914 721.624 71.2315 722.644 71.2315C724.343 71.2315 725.703 71.2315 726.723 70.2112C727.743 69.191 728.083 67.8306 728.083 67.8306C728.083 67.1504 728.763 66.8103 729.103 66.8103C729.782 66.8103 730.122 67.4905 730.122 67.8306C730.122 67.8306 730.122 70.2112 728.083 71.9117C727.063 73.272 725.703 73.6121 723.663 73.6121Z" fill="black"/>
<path d="M703.267 73.2705C701.567 73.2705 699.867 72.9304 698.168 71.9102C697.488 71.5701 697.488 70.8899 697.828 70.2097C698.168 69.5296 698.848 69.5296 699.528 69.8696C702.587 71.5701 707.346 70.5498 710.746 68.5093C713.125 67.1489 714.485 65.1084 714.145 63.408C714.145 62.3877 713.125 62.3877 710.066 62.3877C707.346 62.3877 703.947 62.3877 701.907 59.667C701.567 58.9868 701.567 58.3066 702.247 57.9666C702.927 57.6265 703.607 57.6265 703.947 58.3066C704.967 60.0071 707.686 60.0071 710.066 60.0071C712.785 60.0071 715.845 60.0071 716.185 63.0679C716.525 65.7886 714.825 68.5093 711.766 70.2097C709.386 72.2503 706.326 73.2705 703.267 73.2705Z" fill="black"/>
<path d="M732.162 78.032C730.802 78.032 729.783 77.6919 729.103 76.6717C726.723 73.6109 728.083 65.7888 729.443 60.3474C729.783 59.3272 729.783 58.647 730.123 57.9668C730.123 57.2866 730.802 56.9465 731.482 56.9465C732.162 56.9465 732.502 57.6267 732.502 58.3069C732.502 58.9871 732.162 60.0073 731.822 61.0276C730.802 65.7888 729.103 73.2708 731.142 75.6514C731.482 75.9915 731.822 76.3316 732.502 76.3316C737.601 76.3316 738.961 68.1695 738.961 68.1695C738.961 67.4893 739.641 67.1492 740.321 67.1492C741.001 67.1492 741.341 67.8294 741.341 68.5096C740.661 68.5096 738.961 78.032 732.162 78.032Z" fill="black"/>
<path d="M362.641 364.386C362.641 364.386 322.187 574.22 316.748 615.031C311.309 656.182 307.91 856.154 307.91 856.154H410.913C410.913 856.154 420.432 627.274 420.432 615.711C420.432 604.148 442.188 483.757 442.188 483.757C442.188 483.757 460.206 575.921 463.945 612.991C467.684 650.06 466.665 857.514 466.665 857.514H568.988C568.988 857.514 575.107 621.833 575.787 611.97C576.467 601.768 520.036 377.649 520.036 377.649L362.641 364.386Z" fill="#2C2BCA"/>
<path d="M442.189 485.458H441.849C440.829 485.118 440.489 484.438 440.489 483.417L450.348 441.246C450.688 440.226 451.368 439.886 452.387 439.886C453.407 440.226 453.747 440.906 453.747 441.927L443.889 484.097C443.549 484.778 442.869 485.458 442.189 485.458Z" fill="#090929"/>
<path d="M533.974 452.129C523.775 452.129 515.276 448.728 507.798 442.267C485.701 422.201 485.701 378.67 485.701 376.969C485.701 375.949 486.381 375.269 487.401 375.269C488.421 375.269 489.101 375.949 489.101 376.969C489.101 377.31 489.101 420.841 510.177 439.886C517.656 446.688 527.175 449.748 538.053 448.728C539.073 448.728 539.753 449.408 539.753 450.429C539.753 451.449 539.073 452.129 538.053 452.129C537.033 452.129 535.673 452.129 533.974 452.129Z" fill="#090929"/>
<path d="M347.343 446.687C346.663 446.687 345.644 446.007 345.644 445.327C345.644 444.307 346.323 443.627 347.003 443.287C349.043 442.946 396.975 436.145 402.755 367.447C402.755 366.427 403.774 365.746 404.454 365.746C405.474 365.746 406.154 366.767 406.154 367.447C400.035 439.205 348.023 446.687 347.343 446.687Z" fill="#090929"/>
<path d="M479.243 857.855C478.223 857.855 477.543 857.175 477.543 856.155C477.543 853.774 475.843 612.651 476.523 594.966C477.203 577.622 449.668 464.372 449.668 463.012C449.328 461.992 450.007 461.312 451.027 460.972C452.047 460.631 452.727 461.312 453.067 462.332C454.087 467.093 480.603 577.282 480.263 595.307C479.583 612.991 481.283 854.114 481.283 856.495C480.943 857.175 480.263 857.855 479.243 857.855Z" fill="#090929"/>
<path d="M273.235 37.5593C273.235 37.5593 244.34 40.28 234.821 79.0501C225.643 118.16 212.045 149.108 179.41 157.951C146.775 166.793 130.118 221.547 130.118 221.547C130.118 221.547 224.963 302.148 341.564 249.775C376.579 234.131 386.097 214.745 386.097 214.745C386.097 214.745 363.321 168.153 341.564 153.87C320.488 140.266 334.425 81.7708 334.425 81.7708C334.425 81.7708 353.462 81.4307 340.204 58.3047C330.346 41.6403 299.071 26.6764 273.235 37.5593Z" fill="white"/>
<path d="M652.615 162.373C620.32 158.972 520.716 151.83 463.265 147.409C451.027 146.389 417.712 118.501 381.678 119.181C345.983 119.862 301.45 170.875 287.513 186.859L384.737 199.102L356.182 373.228C356.182 373.228 428.25 417.439 522.076 391.933C522.076 391.933 528.875 267.46 532.614 234.472C532.614 234.472 667.233 228.69 681.17 225.289C707.346 219.168 735.222 108.299 735.222 108.299L678.111 80.7515L652.615 162.373Z" fill="#FF705B"/>
<path d="M458.165 385.81C422.471 385.81 388.816 377.307 358.901 360.303C358.221 359.963 357.881 358.943 358.221 357.922C358.561 357.242 359.581 356.902 360.601 357.242C407.853 384.109 464.624 389.551 524.115 373.226C525.135 372.886 525.815 373.566 526.155 374.247C526.495 375.267 525.815 375.947 525.135 376.287C502.019 382.749 479.582 385.81 458.165 385.81Z" fill="#090929"/>
<path d="M514.596 391.931C513.576 391.931 512.897 391.251 512.897 390.231L512.557 377.308C512.557 376.287 513.237 375.607 514.256 375.607C515.276 375.607 515.956 376.287 515.956 377.308L516.296 390.231C516.296 390.911 515.616 391.931 514.596 391.931Z" fill="#090929"/>
<path d="M501.678 398.054C500.659 398.054 499.979 397.374 499.979 396.354L499.639 383.43C499.639 382.41 500.319 381.73 501.338 381.73C502.358 381.73 503.038 382.41 503.038 383.43L503.378 396.354C503.378 397.374 502.698 398.054 501.678 398.054Z" fill="#090929"/>
<path d="M420.091 396.352C419.071 396.352 418.392 395.332 418.392 394.652L419.411 381.729C419.411 380.708 420.091 380.028 421.111 380.028C422.131 380.028 422.811 381.048 422.811 381.729L421.791 394.652C421.791 395.672 421.111 396.352 420.091 396.352Z" fill="#090929"/>
<path d="M489.78 397.033C488.76 397.033 488.08 396.353 488.08 395.333L487.74 382.409C487.74 381.389 488.42 380.709 489.44 380.709C490.46 380.709 491.14 381.389 491.14 382.409L491.48 395.333C491.48 396.353 490.8 397.033 489.78 397.033Z" fill="#090929"/>
<path d="M378.618 385.13C378.278 385.13 378.278 385.13 378.618 385.13C377.258 384.79 376.918 384.109 376.918 383.089L379.298 371.186C379.638 370.166 380.317 369.826 381.337 369.826C382.357 370.166 382.697 370.846 382.697 371.866L380.317 383.769C379.977 384.449 379.298 385.13 378.618 385.13Z" fill="#090929"/>
<path d="M405.814 393.972C404.794 393.972 404.114 392.952 404.114 391.932L405.814 380.709C405.814 379.688 406.834 379.008 407.854 379.348C408.874 379.348 409.553 380.368 409.213 381.389L407.514 392.612C407.514 393.292 406.494 393.972 405.814 393.972Z" fill="#090929"/>
<path d="M461.225 398.734C460.205 398.734 459.525 398.054 459.525 397.034L459.865 384.11C459.865 383.09 460.545 382.41 461.565 382.41C462.585 382.41 463.265 383.09 463.265 384.11L462.925 397.034C462.925 398.054 462.245 398.734 461.225 398.734Z" fill="#090929"/>
<path d="M391.536 388.871C390.176 388.531 389.836 387.851 389.836 386.831L392.216 374.248C392.555 373.227 393.235 372.887 394.255 372.887C395.275 373.227 395.615 373.907 395.615 374.928L393.235 387.511C393.235 388.531 392.555 388.871 391.536 388.871Z" fill="#090929"/>
<path d="M447.967 400.775C446.947 400.775 446.268 399.755 446.268 399.075L447.287 387.172C447.287 386.151 448.307 385.471 448.987 385.471C450.007 385.471 450.687 386.491 450.687 387.172L449.667 399.075C449.667 400.095 448.987 400.775 447.967 400.775Z" fill="#090929"/>
<path d="M474.823 400.436C473.803 400.436 473.123 399.755 473.123 398.735L473.463 386.492C473.463 385.472 474.143 384.792 475.163 384.792C476.183 384.792 476.862 385.472 476.862 386.492L476.523 398.735C476.523 399.755 475.843 400.436 474.823 400.436Z" fill="#090929"/>
<path d="M433.689 396.012C433.689 396.012 433.349 396.012 433.689 396.012C432.669 396.012 431.989 394.992 431.989 394.312L433.009 383.089C433.009 382.069 434.029 381.389 434.709 381.389C435.729 381.389 436.408 382.409 436.408 383.089L435.389 394.312C435.049 395.332 434.369 396.012 433.689 396.012Z" fill="#090929"/>
<path d="M365.02 375.948H364.68C363.66 375.608 363.32 374.928 363.32 373.907L365.7 363.025C366.04 362.004 366.72 361.664 367.74 361.664C368.759 362.004 369.099 362.685 369.099 363.705L366.72 374.588C366.38 375.268 365.7 375.948 365.02 375.948Z" fill="#090929"/>
<path d="M531.254 239.913C530.574 239.913 529.894 239.573 529.554 238.893C529.215 238.553 524.795 226.99 522.416 216.787C522.076 215.767 522.756 215.087 523.775 214.747C524.795 214.407 525.475 215.087 525.815 216.107C526.835 220.528 528.195 225.289 529.554 229.371C529.894 221.208 531.254 209.305 534.994 203.184C535.334 202.504 536.353 202.163 537.373 202.504C538.053 202.844 538.393 203.864 538.053 204.884C532.614 214.067 532.954 238.213 532.954 238.553C532.954 238.893 532.614 239.573 531.254 239.913C531.594 239.913 531.594 239.913 531.254 239.913Z" fill="#090929"/>
<path d="M307.57 169.514L306.21 144.347L266.776 124.962V172.914L240.94 178.356V205.903L299.411 227.669C299.411 227.669 348.023 179.716 345.644 179.716C343.264 179.716 325.587 164.072 325.587 164.072L307.57 169.514Z" fill="#A0D4FF"/>
<path d="M70.6272 450.089C58.7291 428.664 62.1285 388.873 62.1285 388.873C36.6325 389.893 27.7939 375.27 27.7939 375.27C27.7939 375.27 93.4036 343.301 134.197 324.256C134.197 324.256 134.537 377.99 151.194 418.461L70.6272 450.089Z" fill="#A0D4FF"/>
<path d="M42.4114 393.975C11.4763 403.837 0.937988 381.731 0.937988 381.731C0.937988 381.731 92.3835 337.18 138.956 315.414L147.115 382.071C147.115 382.071 86.2645 415.74 65.1878 421.182C44.1112 426.283 42.4114 393.975 42.4114 393.975Z" fill="#2C2BCA"/>
<path d="M5.69734 369.829L128.418 310.994C132.497 308.953 137.257 310.994 138.616 315.415L0.258198 381.732C-0.76164 376.971 1.27804 371.869 5.69734 369.829Z" fill="white"/>
<path d="M42.4117 395.674C41.7318 395.674 41.0519 395.334 40.712 394.654C40.3721 393.634 41.0519 392.953 41.7318 392.613C42.0718 392.613 65.868 384.451 64.8482 363.026C64.8482 362.005 65.5281 361.325 66.5479 361.325C67.5678 361.325 68.2476 362.005 68.2476 363.026C69.2675 386.832 42.7517 395.674 42.7517 395.674H42.4117Z" fill="#090929"/>
<path d="M191.648 334.457C182.81 336.157 160.713 311.671 162.753 282.423C164.793 253.175 165.472 245.013 169.212 243.653C172.951 242.293 198.107 317.452 191.648 334.457Z" fill="#090929"/>
<path d="M234.481 182.436C218.164 187.878 159.013 257.256 159.013 257.256L120.259 194.339C120.259 194.339 114.14 180.056 115.84 173.254C118.9 159.65 126.378 142.306 121.959 139.585C118.9 137.545 108.021 146.047 105.642 152.849C102.922 147.067 96.1232 110.678 88.6444 112.378C80.8257 114.078 90.0042 150.808 90.0042 150.808C90.0042 150.808 77.7661 115.779 70.9672 118.16C64.1683 120.54 78.786 154.889 78.786 154.889C78.786 154.889 60.7688 124.281 55.3297 128.022C49.8905 131.763 67.5678 161.351 67.5678 161.351C67.5678 161.351 47.8509 136.864 43.7715 141.286C39.3522 145.367 69.6074 198.421 69.6074 198.421H69.9474C75.7265 221.206 120.259 328.334 153.914 331.055C190.628 333.776 230.402 273.92 230.402 273.92L234.481 182.436Z" fill="#A0D4FF"/>
<path d="M95.4433 170.194C94.4234 170.194 93.7435 169.514 93.7435 168.494C93.7435 168.154 92.7237 156.591 104.622 150.809C105.302 150.469 106.322 150.809 107.001 151.489C107.341 152.17 107.001 153.19 106.322 153.87C96.803 158.631 97.143 167.814 97.4829 168.154C97.4829 169.174 96.803 170.194 95.4433 170.194C95.7832 170.194 95.7832 170.194 95.4433 170.194Z" fill="#090929"/>
<path d="M69.6076 169.173C69.2676 169.173 68.5877 168.833 68.2478 168.493C67.5679 167.813 67.5679 166.793 68.5877 166.113C82.1856 154.55 91.3641 155.57 91.7041 155.57C92.7239 155.57 93.4038 156.59 93.0638 157.61C93.0638 158.631 92.044 159.311 91.3641 158.971C91.3641 158.971 83.2054 158.291 70.6274 168.833C70.6274 169.173 70.2874 169.173 69.6076 169.173Z" fill="#090929"/>
<path d="M325.247 164.073C339.525 170.874 337.145 197.061 337.145 197.061L306.21 217.126L242.3 197.061L240.94 178.356C239.92 167.473 245.02 166.793 247.399 176.996C247.399 176.996 256.578 171.554 257.938 185.498C262.697 182.097 270.516 189.579 270.176 195.701C274.935 191.28 281.734 190.259 285.813 197.741C289.213 189.919 297.711 190.94 301.451 196.381C302.131 190.94 307.91 190.259 316.408 191.62C311.989 187.539 309.269 180.057 317.768 178.016C307.91 174.615 311.649 162.372 318.788 166.113C314.029 161.692 322.187 153.87 325.247 164.073Z" fill="#FF705B"/>
<path d="M231.762 336.837L223.943 364.384L341.564 367.105L351.083 339.217L231.762 336.837Z" fill="#A0D4FF"/>
<path d="M359.241 264.059C359.241 264.059 363.661 335.478 362.641 345.681C362.641 345.681 273.915 359.624 207.965 339.219L223.603 288.886C216.464 304.87 203.886 328.676 191.308 334.118C172.271 324.595 189.948 246.035 168.872 243.314C196.407 212.366 216.464 183.798 240.6 178.017C240.6 178.017 252.838 209.985 299.071 204.204C345.304 198.422 324.907 163.733 324.907 163.733C343.264 161.693 383.718 204.204 383.718 204.204L372.159 275.282L359.241 264.059Z" fill="#2C2BCA"/>
<path d="M334.085 146.727C333.066 146.727 332.386 146.047 332.386 145.026C332.386 144.006 333.066 143.326 334.085 143.326C342.924 142.986 350.063 135.164 349.383 126.322C349.043 121.9 347.343 118.159 343.944 115.099C340.884 112.038 336.465 110.678 332.386 111.018C331.366 111.018 330.686 110.337 330.686 109.317C330.686 108.297 331.366 107.617 332.386 107.617C337.485 107.277 342.584 108.977 346.663 112.718C350.403 116.119 352.783 120.88 353.122 126.322C353.122 136.864 344.964 146.047 334.085 146.727Z" fill="#090929"/>
<path d="M314.029 101.155C314.029 101.155 319.808 85.1704 331.026 86.1906C342.244 87.2109 350.403 110.677 331.026 114.758C320.488 117.139 317.428 112.718 317.428 112.718" fill="#A0D4FF"/>
<path d="M321.847 105.577C321.507 105.577 320.827 105.236 320.487 104.896C319.808 104.216 319.808 103.196 320.487 102.516L330.006 93.3334C330.686 92.6532 331.706 92.6532 332.386 93.3334C333.065 94.0136 333.065 95.0338 332.386 95.714L322.867 104.896C322.867 105.577 322.187 105.577 321.847 105.577Z" fill="#090929"/>
<path d="M333.066 146.727C322.867 146.727 314.029 138.565 313.349 128.022C313.009 122.921 314.708 117.82 318.448 113.739C321.847 109.998 326.607 107.617 332.046 107.277C333.066 107.277 333.745 107.957 333.745 108.977C333.745 109.998 333.066 110.678 332.046 110.678C327.626 111.018 323.887 112.718 320.827 116.119C317.768 119.18 316.408 123.601 316.748 127.682C317.088 136.524 324.907 143.666 333.745 142.986C334.765 142.986 335.445 143.666 335.445 144.687C335.445 145.707 334.765 146.387 333.745 146.387C333.745 146.727 333.405 146.727 333.066 146.727Z" fill="#090929"/>
<path d="M249.779 152.849C239.581 152.849 230.742 144.687 230.062 134.144C229.722 129.043 231.422 123.941 235.161 119.86C238.561 116.119 243.32 113.739 248.759 113.398C249.779 113.398 250.459 114.079 250.459 115.099C250.459 116.119 249.779 116.799 248.759 116.799C244.34 117.139 240.6 118.84 237.541 122.241C234.481 125.302 233.122 129.723 233.461 133.804C233.801 138.225 235.501 141.966 238.901 145.027C241.96 148.087 246.379 149.448 250.459 149.108C251.479 149.108 252.159 149.788 252.159 150.808C252.159 151.828 251.479 152.509 250.459 152.509C250.459 152.849 250.119 152.849 249.779 152.849Z" fill="#090929"/>
<path d="M273.915 128.362C273.915 128.362 287.173 156.59 306.21 152.509L305.87 144.346L273.915 128.362Z" fill="#090929"/>
<path d="M340.288 120.621C350.364 99.0018 341.015 73.3043 319.405 63.2236C297.795 53.143 272.109 62.4965 262.032 84.1153C251.956 105.734 261.305 131.432 282.915 141.512C304.525 151.593 330.211 142.239 340.288 120.621Z" fill="#A0D4FF"/>
<path d="M284.113 84.1523C283.433 84.1523 282.754 83.8122 282.414 82.7919C282.074 81.7717 282.754 81.0915 283.434 80.7514C283.773 80.7514 291.932 78.0307 297.711 79.0509C298.731 79.0509 299.411 80.0712 299.071 81.0915C299.071 82.1118 298.051 82.7919 297.031 82.4518C291.932 81.7717 284.113 84.1523 284.113 84.1523C284.453 84.1523 284.113 84.1523 284.113 84.1523Z" fill="#090929"/>
<path d="M319.468 80.75C318.788 80.75 318.108 80.4099 317.768 79.7297C317.428 78.7094 317.768 78.0292 318.788 77.6892C324.227 75.6486 332.726 76.3288 333.066 76.3288C334.086 76.3288 334.765 77.3491 334.765 78.0292C334.765 79.0495 333.746 79.7297 333.066 79.7297C333.066 79.7297 324.907 79.0495 320.148 80.75C319.808 80.75 319.468 80.75 319.468 80.75Z" fill="#090929"/>
<path d="M297.031 94.6943C297.031 96.7349 295.672 98.0952 293.632 98.4353C291.592 98.4353 290.233 97.075 289.893 95.0344C289.893 92.9939 291.252 91.6335 293.292 91.2935C295.332 91.2935 296.691 92.9939 297.031 94.6943Z" fill="#090929"/>
<path d="M311.649 110.338C310.629 110.338 309.949 109.658 309.949 108.637C309.949 107.617 310.629 106.937 311.649 106.937C311.989 106.937 312.669 106.597 313.009 106.257C313.349 105.917 313.349 105.577 313.349 104.896C313.349 103.876 312.329 103.196 311.649 103.196C310.629 103.196 309.949 102.516 309.949 101.496C309.949 100.475 310.629 99.7952 311.649 99.7952C313.009 99.7952 314.369 100.135 315.388 101.156C316.408 102.176 317.088 103.196 317.088 104.556C317.088 105.917 316.748 107.277 315.728 108.297C314.369 109.658 313.009 110.338 311.649 110.338Z" fill="#090929"/>
<path d="M330.346 92.9924C330.346 95.033 328.987 96.3933 326.947 96.7334C324.907 96.7334 323.547 95.3731 323.208 93.3325C323.208 91.292 324.567 89.9316 326.607 89.5916C328.647 89.5916 330.346 91.292 330.346 92.9924Z" fill="#090929"/>
<path d="M310.969 121.9C303.49 121.22 301.791 115.779 301.791 115.439C301.451 114.418 302.131 113.738 303.15 113.398C304.17 113.058 304.85 113.738 305.19 114.418C305.19 114.758 306.21 117.819 311.309 118.159C312.329 118.159 313.009 119.18 313.009 119.86C312.669 121.22 311.989 121.9 310.969 121.9Z" fill="#090929"/>
<path d="M299.071 59.3256C299.071 59.3256 287.853 96.7354 258.617 96.7354C258.617 96.7354 254.538 57.6252 299.071 59.3256Z" fill="white"/>
<path d="M299.071 59.3233C299.071 59.3233 313.349 84.83 338.845 79.7287C338.845 79.7287 329.666 52.5216 299.071 59.3233Z" fill="white"/>
<path d="M265.757 105.576C265.757 105.576 258.278 90.2718 247.06 92.3123C235.841 94.3528 230.402 118.499 250.119 120.88C260.657 122.24 263.377 117.479 263.377 117.479" fill="#A0D4FF"/>
<path d="M258.618 111.018C258.278 111.018 257.938 111.018 257.598 110.678L247.4 102.516C246.72 101.835 246.38 100.815 247.06 100.135C247.739 99.4547 248.759 99.1147 249.439 99.7948L259.638 107.957C260.317 108.637 260.657 109.657 259.978 110.338C259.298 110.678 258.958 111.018 258.618 111.018Z" fill="#090929"/>
<path d="M250.459 152.848C249.439 152.848 248.759 152.168 248.759 151.148C248.759 150.127 249.439 149.447 250.459 149.447C254.878 149.107 258.618 147.407 261.677 144.006C264.737 140.945 266.097 136.524 265.757 132.443C265.417 123.6 257.598 116.459 248.759 117.139C247.739 117.139 247.06 116.459 247.06 115.438C247.06 114.418 247.739 113.738 248.759 113.738C259.638 113.058 268.816 121.56 269.496 132.443C269.836 137.544 268.136 142.645 264.397 146.726C260.657 150.467 255.898 152.508 250.459 152.848C250.799 152.848 250.799 152.848 250.459 152.848Z" fill="#090929"/>
<path d="M352.443 350.782C359.581 351.122 354.142 364.045 350.743 368.806C372.159 409.617 398.675 483.416 404.114 573.2C409.554 665.024 404.114 856.834 404.114 856.834H273.915C273.915 856.834 281.394 609.929 279.014 558.916C279.014 558.916 256.238 682.708 183.149 680.328C110.401 677.947 88.3044 568.098 53.6299 441.926L157.653 392.273L184.509 483.756C184.509 483.756 197.087 401.795 221.223 364.385C221.223 364.385 207.965 353.162 214.085 351.122C217.144 350.102 260.657 356.563 292.612 356.563C328.306 356.563 352.443 350.782 352.443 350.782Z" fill="#FF705B"/>
<path d="M306.21 370.166C263.716 370.166 221.563 366.085 220.883 366.085C219.863 366.085 219.184 365.065 219.523 364.385C219.523 363.365 220.543 362.684 221.223 363.025C221.903 363.025 295.331 370.166 345.644 365.745C346.663 365.745 347.343 366.425 347.343 367.446C347.343 368.466 346.663 369.146 345.644 369.146C333.745 369.486 320.148 370.166 306.21 370.166Z" fill="#090929"/>
<path d="M177.71 559.256C177.37 559.256 177.37 559.256 177.71 559.256C176.69 559.256 176.01 558.235 176.01 557.555L182.809 483.756C182.809 482.736 183.829 482.056 184.509 482.056C185.529 482.056 186.209 483.076 186.209 483.756L179.41 557.555C179.07 558.576 178.39 559.256 177.71 559.256Z" fill="#090929"/>
<path d="M292.612 429.003C292.272 429.003 292.272 429.003 291.932 429.003C291.252 428.663 290.912 427.983 290.912 427.303L292.952 368.467C292.952 367.447 293.972 366.767 294.652 366.767C295.671 366.767 296.351 367.447 296.351 368.467L294.652 422.201C300.091 414.719 309.949 397.035 305.87 370.848C305.87 369.828 306.21 369.147 307.23 368.807C308.249 368.807 308.929 369.147 309.269 370.168C315.048 406.557 294.991 427.303 294.312 427.983C293.632 428.663 293.292 429.003 292.612 429.003Z" fill="#090929"/>
<path d="M212.385 429.003C212.045 429.003 211.365 428.663 211.025 428.323C210.345 427.643 210.345 426.622 211.025 425.942C228.362 410.978 246.719 373.909 247.059 373.568C247.399 372.888 248.419 372.548 249.439 372.888C250.119 373.228 250.459 374.249 250.119 375.269C249.439 376.969 231.082 413.019 213.405 428.663C213.405 428.663 213.065 429.003 212.385 429.003Z" fill="#090929"/>
<path d="M361.621 422.201C361.281 422.201 361.281 422.201 360.941 422.201C335.105 413.019 330.686 375.949 330.346 374.589C330.346 373.569 331.026 372.888 331.706 372.548C332.726 372.548 333.406 373.229 333.746 373.909C333.746 374.249 338.165 410.298 361.961 418.8C362.981 419.14 363.321 420.161 362.981 420.841C362.981 421.861 362.301 422.201 361.621 422.201Z" fill="#090929"/>
<path d="M248.079 472.532H247.739C246.719 472.192 246.379 471.511 246.379 470.491L273.915 367.444C274.255 366.424 274.935 366.084 275.955 366.084C276.975 366.424 277.315 367.104 277.315 368.125L249.779 471.171C249.439 472.192 248.759 472.532 248.079 472.532Z" fill="#090929"/>
<path d="M342.924 472.533C342.244 472.533 341.564 471.852 341.224 471.172L320.148 369.146C319.808 368.125 320.487 367.445 321.507 367.105C322.527 366.765 323.207 367.445 323.547 368.465L344.624 470.492C344.964 471.512 344.284 472.192 343.264 472.533H342.924Z" fill="#090929"/>
<path d="M279.014 558.914C279.014 558.914 293.292 506.881 292.612 480.354C292.612 480.354 299.071 558.574 279.354 594.964L279.014 558.914Z" fill="#090929"/>
<path d="M69.6074 464.372C68.9275 464.372 68.2476 464.032 68.2476 463.352C67.9077 462.672 68.2476 461.651 68.9275 460.971L154.594 418.8C155.274 418.46 156.294 418.8 156.974 419.48C157.314 420.161 156.974 421.181 156.294 421.861L70.6272 464.032C69.9473 464.372 69.6074 464.372 69.6074 464.372Z" fill="#090929"/>
<path d="M398.335 832.347H282.074C281.054 832.347 280.374 831.666 280.374 830.646C280.374 829.626 281.054 828.946 282.074 828.946H398.335C399.355 828.946 400.035 829.626 400.035 830.646C400.035 831.666 399.355 832.347 398.335 832.347Z" fill="#090929"/>
<path d="M219.184 354.864C228.363 359.626 235.161 361.326 236.861 359.285C239.921 355.544 223.263 346.022 223.263 346.022C223.263 346.022 246.38 356.225 249.439 350.103C252.839 343.981 227.003 334.119 227.003 334.119C227.003 334.119 254.538 344.662 256.238 338.54C257.938 332.759 240.941 325.957 230.062 322.216C250.119 326.637 256.578 326.297 257.598 322.556C258.618 318.815 229.722 306.572 225.643 304.871C225.643 304.871 229.722 288.887 223.263 288.547C215.445 287.867 193.008 340.921 219.184 354.864Z" fill="#A0D4FF"/>
<path d="M522.076 354.524C511.877 357.584 505.078 357.924 503.718 355.544C501.339 351.463 519.696 345.001 519.696 345.001C519.696 345.001 495.22 350.783 493.18 344.321C491.141 337.859 518.336 332.418 518.336 332.418C518.336 332.418 489.441 337.519 488.761 331.397C488.081 325.276 506.098 321.875 517.316 320.175C496.58 320.855 490.461 319.494 490.121 315.413C489.781 311.332 520.376 304.871 524.795 303.85C524.795 303.85 523.775 287.526 530.234 288.206C538.393 289.567 550.631 345.681 522.076 354.524Z" fill="#A0D4FF"/>
<path d="M522.076 91.2942C522.076 91.2942 555.051 68.8483 550.631 54.9047C548.592 49.1232 543.832 46.0624 537.033 45.0421C541.453 28.3778 527.515 6.95216 489.441 21.576C464.965 -19.2347 427.231 3.55128 423.151 42.6615C386.437 27.6976 392.556 67.828 417.032 79.3911C401.055 75.31 394.596 98.436 407.854 106.598C413.293 110.679 431.65 120.202 441.848 120.882L485.022 122.582C485.022 122.582 541.793 121.562 543.492 102.857C545.192 83.8122 522.076 91.2942 522.076 91.2942Z" fill="#2C2BCA"/>
<path d="M478.223 155.91L481.282 129.043L442.868 102.516L436.069 154.55C436.069 154.55 472.783 176.996 478.223 155.91Z" fill="#A0D4FF"/>
<path d="M441.169 114.76C441.169 114.76 443.209 129.384 457.486 132.785C475.504 136.866 481.283 126.663 481.283 126.663L441.169 114.76Z" fill="#090929"/>
<path d="M518.336 87.8929C516.296 113.059 493.86 131.764 468.704 129.724C443.548 127.343 424.851 104.897 426.89 79.7307C428.93 54.5642 451.367 35.8593 476.523 37.8998C502.019 40.2805 520.376 62.3862 518.336 87.8929Z" fill="#A0D4FF"/>
<path d="M465.644 61.3672C465.304 61.3672 465.304 61.3672 464.965 61.3672C460.205 59.3266 451.367 59.3266 451.367 59.3266C450.347 59.3266 449.667 58.6464 449.667 57.6262C449.667 56.6059 450.347 55.9257 451.367 55.9257C451.707 55.9257 460.885 55.5856 466.324 57.9663C467.344 58.3064 467.684 59.3266 467.344 60.3469C467.004 61.0271 466.324 61.3672 465.644 61.3672Z" fill="#090929"/>
<path d="M502.698 68.5078C502.358 68.5078 502.358 68.5078 502.018 68.5078C502.018 68.5078 493.86 65.447 488.42 65.7871C487.401 65.7871 486.721 65.107 486.721 64.0867C486.721 63.0664 487.401 62.3862 488.42 62.3862C494.539 62.0462 503.038 65.107 503.378 65.107C504.398 65.447 504.738 66.4673 504.398 67.1475C504.058 68.1677 503.378 68.5078 502.698 68.5078Z" fill="#090929"/>
<path d="M460.885 73.9504C460.545 75.991 458.505 77.0112 456.466 76.6712C454.426 76.3311 453.406 74.2905 453.746 72.25C454.086 70.2095 456.126 69.1892 458.165 69.5293C460.205 70.2095 461.565 71.9099 460.885 73.9504Z" fill="#090929"/>
<path d="M472.783 94.0144C472.443 94.0144 472.103 94.0144 471.763 94.0144C470.743 93.6743 470.403 92.9942 470.403 91.9739C470.743 90.9536 471.423 90.6135 472.443 90.6135C473.123 90.6135 473.463 90.6135 473.803 90.2734C474.143 89.9334 474.483 89.5933 474.823 88.9131C475.163 87.8928 474.483 86.8726 473.463 86.5325C472.443 86.1924 472.103 85.5122 472.103 84.492C472.443 83.4717 473.123 83.1316 474.143 83.1316C477.202 83.8118 478.902 86.5325 478.222 89.5933C477.882 90.9536 477.202 92.314 475.842 92.9942C474.823 93.6743 473.803 94.0144 472.783 94.0144Z" fill="#090929"/>
<path d="M495.56 81.7722C495.22 83.8128 493.18 84.833 491.14 84.4929C489.101 84.1528 488.081 82.1123 488.421 80.0718C488.761 78.0312 490.801 77.011 492.84 77.3511C494.88 77.6912 496.24 79.7317 495.56 81.7722Z" fill="#090929"/>
<path d="M434.37 75.9917C434.37 75.9917 428.931 58.6472 416.692 59.3274C404.454 60.0075 395.276 84.4939 415.673 89.5953C426.551 92.316 430.29 87.8948 430.29 87.8948" fill="#A0D4FF"/>
<path d="M425.871 80.4125C425.531 80.4125 424.851 80.0724 424.511 79.7323L414.652 69.8697C413.973 69.1896 413.973 68.1693 414.652 67.4891C415.332 66.809 416.352 66.809 417.032 67.4891L426.891 77.3517C427.57 78.0319 427.57 79.0521 426.891 79.7323C426.891 80.4125 426.211 80.4125 425.871 80.4125Z" fill="#090929"/>
<path d="M511.197 80.7504C511.197 80.7504 521.056 65.1063 533.294 68.5072C545.532 71.9081 548.931 98.435 526.835 98.7751C514.937 98.7751 512.557 93.6738 512.557 93.6738" fill="#A0D4FF"/>
<path d="M519.357 87.2123C518.677 87.2123 517.997 86.5321 517.657 85.8519C517.317 84.8316 517.997 84.1515 519.017 83.8114L532.954 80.4105C533.974 80.0704 534.654 80.7506 534.994 81.7708C535.334 82.7911 534.654 83.4713 533.634 83.8114L519.696 87.2123C519.356 87.2123 519.357 87.2123 519.357 87.2123Z" fill="#090929"/>
<path d="M429.95 65.4472C429.95 65.4472 454.426 59.6657 457.826 44.7018C457.826 44.7018 469.724 60.0058 477.882 47.7626C477.882 47.7626 493.18 68.508 514.597 56.945C536.013 45.382 505.078 21.2357 473.463 23.2762C441.508 25.3167 427.57 52.1837 429.95 65.4472Z" fill="#2C2BCA"/>
<path d="M459.526 102.516C457.826 104.557 459.186 115.439 468.704 114.079C478.223 113.059 478.903 104.557 478.223 103.536C477.883 102.856 459.526 102.516 459.526 102.516Z" fill="white"/>
<path d="M500.999 156.931C500.999 156.931 501.679 143.668 482.642 144.008C478.223 144.008 455.107 157.952 456.126 164.753C457.146 171.555 499.98 167.474 500.999 156.931Z" fill="#FFA89C"/>
<path d="M414.313 142.987C414.313 142.987 418.053 130.404 436.07 136.866C440.149 138.226 457.486 158.972 454.087 165.093C451.027 171.215 411.934 153.19 414.313 142.987Z" fill="#FFA89C"/>
</svg>
