<svg viewBox="0 0 363 309" fill="none" xmlns="http://www.w3.org/2000/svg">
<rect width="363" height="309" rx="35" fill="#E9EFFD"/>
<path d="M42 59C42 42.4315 55.4315 29 72 29H292C308.569 29 322 42.4315 322 59V309H42V59Z" fill="#2160E8"/>
<path d="M53 63C53 49.1929 64.1929 38 78 38H286C299.807 38 311 49.1929 311 63V309H53V63Z" fill="white"/>
<path d="M89.2816 80.4489H91.6339L92.8164 81.9702L93.9798 83.3253L96.1722 86.0739H93.5898L92.0813 84.2202L91.3079 83.1207L89.2816 80.4489ZM96.3704 78.4545C96.3704 79.8821 96.0998 81.0966 95.5586 82.098C95.0217 83.0994 94.2887 83.8643 93.3597 84.3928C92.435 84.9169 91.3952 85.179 90.2404 85.179C89.0771 85.179 88.033 84.9148 87.1083 84.3864C86.1836 83.858 85.4528 83.093 84.9158 82.0916C84.3789 81.0902 84.1104 79.8778 84.1104 78.4545C84.1104 77.027 84.3789 75.8125 84.9158 74.8111C85.4528 73.8097 86.1836 73.0469 87.1083 72.5227C88.033 71.9943 89.0771 71.7301 90.2404 71.7301C91.3952 71.7301 92.435 71.9943 93.3597 72.5227C94.2887 73.0469 95.0217 73.8097 95.5586 74.8111C96.0998 75.8125 96.3704 77.027 96.3704 78.4545ZM93.5643 78.4545C93.5643 77.5298 93.4258 76.75 93.1488 76.1151C92.8761 75.4801 92.4904 74.9986 91.9918 74.6705C91.4933 74.3423 90.9095 74.1783 90.2404 74.1783C89.5714 74.1783 88.9876 74.3423 88.489 74.6705C87.9904 74.9986 87.6026 75.4801 87.3256 76.1151C87.0529 76.75 86.9166 77.5298 86.9166 78.4545C86.9166 79.3793 87.0529 80.1591 87.3256 80.794C87.6026 81.429 87.9904 81.9105 88.489 82.2386C88.9876 82.5668 89.5714 82.7308 90.2404 82.7308C90.9095 82.7308 91.4933 82.5668 91.9918 82.2386C92.4904 81.9105 92.8761 81.429 93.1488 80.794C93.4258 80.1591 93.5643 79.3793 93.5643 78.4545ZM104.846 80.8196V75.1818H107.569V85H104.954V83.2166H104.852C104.63 83.7919 104.262 84.2543 103.746 84.6037C103.235 84.9531 102.611 85.1278 101.873 85.1278C101.217 85.1278 100.64 84.9787 100.141 84.6804C99.6425 84.3821 99.2526 83.9581 98.9714 83.4084C98.6944 82.8587 98.5538 82.2003 98.5495 81.4332V75.1818H101.273V80.9474C101.277 81.527 101.432 81.9851 101.739 82.3217C102.046 82.6584 102.457 82.8267 102.973 82.8267C103.301 82.8267 103.608 82.7521 103.893 82.603C104.179 82.4496 104.409 82.2237 104.584 81.9254C104.763 81.6271 104.85 81.2585 104.846 80.8196ZM112.726 85.1854C112.1 85.1854 111.542 85.0767 111.052 84.8594C110.562 84.6378 110.174 84.3118 109.888 83.8814C109.607 83.4467 109.467 82.9055 109.467 82.2578C109.467 81.7124 109.567 81.2543 109.767 80.8835C109.967 80.5128 110.24 80.2145 110.585 79.9886C110.93 79.7628 111.322 79.5923 111.761 79.4773C112.204 79.3622 112.669 79.2812 113.155 79.2344C113.726 79.1747 114.186 79.1193 114.535 79.0682C114.885 79.0128 115.138 78.9318 115.296 78.8253C115.454 78.7187 115.533 78.5611 115.533 78.3523V78.3139C115.533 77.9091 115.405 77.5959 115.149 77.3743C114.898 77.1527 114.54 77.0419 114.075 77.0419C113.585 77.0419 113.195 77.1506 112.905 77.3679C112.616 77.581 112.424 77.8494 112.33 78.1733L109.812 77.9688C109.94 77.3722 110.191 76.8565 110.566 76.4219C110.941 75.983 111.425 75.6463 112.017 75.4119C112.614 75.1733 113.304 75.054 114.088 75.054C114.633 75.054 115.155 75.1179 115.654 75.2457C116.157 75.3736 116.602 75.5717 116.99 75.8402C117.382 76.1087 117.691 76.4538 117.917 76.8757C118.143 77.2933 118.256 77.794 118.256 78.3778V85H115.673V83.6385H115.597C115.439 83.9453 115.228 84.2159 114.964 84.4503C114.699 84.6804 114.382 84.8615 114.011 84.9936C113.641 85.1214 113.212 85.1854 112.726 85.1854ZM113.506 83.3061C113.907 83.3061 114.261 83.2273 114.567 83.0696C114.874 82.9077 115.115 82.6903 115.29 82.4176C115.464 82.1449 115.552 81.8359 115.552 81.4908V80.4489C115.467 80.5043 115.349 80.5554 115.2 80.6023C115.055 80.6449 114.891 80.6854 114.708 80.7237C114.525 80.7578 114.342 80.7898 114.158 80.8196C113.975 80.8452 113.809 80.8686 113.66 80.8899C113.34 80.9368 113.061 81.0114 112.822 81.1136C112.584 81.2159 112.398 81.3544 112.266 81.5291C112.134 81.6996 112.068 81.9126 112.068 82.1683C112.068 82.5391 112.202 82.8224 112.471 83.0185C112.744 83.2102 113.089 83.3061 113.506 83.3061ZM123.271 71.9091V85H120.548V71.9091H123.271ZM132.778 85.1854C132.152 85.1854 131.594 85.0767 131.103 84.8594C130.613 84.6378 130.226 84.3118 129.94 83.8814C129.659 83.4467 129.518 82.9055 129.518 82.2578C129.518 81.7124 129.618 81.2543 129.819 80.8835C130.019 80.5128 130.292 80.2145 130.637 79.9886C130.982 79.7628 131.374 79.5923 131.813 79.4773C132.256 79.3622 132.721 79.2812 133.206 79.2344C133.777 79.1747 134.238 79.1193 134.587 79.0682C134.937 79.0128 135.19 78.9318 135.348 78.8253C135.505 78.7187 135.584 78.5611 135.584 78.3523V78.3139C135.584 77.9091 135.456 77.5959 135.201 77.3743C134.949 77.1527 134.591 77.0419 134.127 77.0419C133.637 77.0419 133.247 77.1506 132.957 77.3679C132.667 77.581 132.476 77.8494 132.382 78.1733L129.863 77.9688C129.991 77.3722 130.243 76.8565 130.618 76.4219C130.993 75.983 131.476 75.6463 132.069 75.4119C132.665 75.1733 133.356 75.054 134.14 75.054C134.685 75.054 135.207 75.1179 135.706 75.2457C136.209 75.3736 136.654 75.5717 137.042 75.8402C137.434 76.1087 137.743 76.4538 137.969 76.8757C138.194 77.2933 138.307 77.794 138.307 78.3778V85H135.725V83.6385H135.648C135.491 83.9453 135.28 84.2159 135.015 84.4503C134.751 84.6804 134.434 84.8615 134.063 84.9936C133.692 85.1214 133.264 85.1854 132.778 85.1854ZM133.558 83.3061C133.959 83.3061 134.312 83.2273 134.619 83.0696C134.926 82.9077 135.167 82.6903 135.341 82.4176C135.516 82.1449 135.603 81.8359 135.603 81.4908V80.4489C135.518 80.5043 135.401 80.5554 135.252 80.6023C135.107 80.6449 134.943 80.6854 134.76 80.7237C134.576 80.7578 134.393 80.7898 134.21 80.8196C134.027 80.8452 133.861 80.8686 133.711 80.8899C133.392 80.9368 133.113 81.0114 132.874 81.1136C132.635 81.2159 132.45 81.3544 132.318 81.5291C132.186 81.6996 132.12 81.9126 132.12 82.1683C132.12 82.5391 132.254 82.8224 132.523 83.0185C132.795 83.2102 133.14 83.3061 133.558 83.3061ZM153.115 77.9815L150.622 78.1349C150.579 77.9219 150.488 77.7301 150.347 77.5597C150.207 77.3849 150.021 77.2464 149.791 77.1442C149.565 77.0376 149.295 76.9844 148.979 76.9844C148.557 76.9844 148.202 77.0739 147.912 77.2528C147.622 77.4276 147.477 77.6619 147.477 77.956C147.477 78.1903 147.571 78.3885 147.758 78.5504C147.946 78.7124 148.268 78.8423 148.724 78.9403L150.501 79.2983C151.455 79.4943 152.167 79.8097 152.636 80.2443C153.104 80.679 153.339 81.25 153.339 81.9574C153.339 82.6009 153.149 83.1655 152.77 83.6513C152.395 84.1371 151.879 84.5163 151.223 84.7891C150.571 85.0575 149.819 85.1918 148.967 85.1918C147.667 85.1918 146.631 84.9212 145.86 84.38C145.093 83.8345 144.643 83.093 144.511 82.1555L147.19 82.0149C147.27 82.4112 147.467 82.7138 147.778 82.9226C148.089 83.1271 148.487 83.2294 148.973 83.2294C149.45 83.2294 149.834 83.1378 150.123 82.9545C150.417 82.767 150.567 82.5263 150.571 82.2322C150.567 81.9851 150.462 81.7827 150.258 81.625C150.053 81.4631 149.738 81.3395 149.312 81.2543L147.611 80.9155C146.653 80.7237 145.939 80.3913 145.47 79.9183C145.006 79.4453 144.773 78.8423 144.773 78.1094C144.773 77.4787 144.944 76.9354 145.285 76.4794C145.63 76.0234 146.114 75.6719 146.736 75.4247C147.362 75.1776 148.095 75.054 148.935 75.054C150.175 75.054 151.15 75.3161 151.862 75.8402C152.578 76.3643 152.996 77.0781 153.115 77.9815ZM161.529 80.8196V75.1818H164.253V85H161.638V83.2166H161.536C161.314 83.7919 160.946 84.2543 160.43 84.6037C159.919 84.9531 159.294 85.1278 158.557 85.1278C157.901 85.1278 157.324 84.9787 156.825 84.6804C156.326 84.3821 155.936 83.9581 155.655 83.4084C155.378 82.8587 155.238 82.2003 155.233 81.4332V75.1818H157.956V80.9474C157.961 81.527 158.116 81.9851 158.423 82.3217C158.73 82.6584 159.141 82.8267 159.657 82.8267C159.985 82.8267 160.292 82.7521 160.577 82.603C160.863 82.4496 161.093 82.2237 161.267 81.9254C161.446 81.6271 161.534 81.2585 161.529 80.8196ZM169.41 85.1854C168.784 85.1854 168.226 85.0767 167.736 84.8594C167.246 84.6378 166.858 84.3118 166.572 83.8814C166.291 83.4467 166.15 82.9055 166.15 82.2578C166.15 81.7124 166.251 81.2543 166.451 80.8835C166.651 80.5128 166.924 80.2145 167.269 79.9886C167.614 79.7628 168.006 79.5923 168.445 79.4773C168.888 79.3622 169.353 79.2812 169.839 79.2344C170.41 79.1747 170.87 79.1193 171.219 79.0682C171.569 79.0128 171.822 78.9318 171.98 78.8253C172.138 78.7187 172.216 78.5611 172.216 78.3523V78.3139C172.216 77.9091 172.089 77.5959 171.833 77.3743C171.581 77.1527 171.224 77.0419 170.759 77.0419C170.269 77.0419 169.879 77.1506 169.589 77.3679C169.3 77.581 169.108 77.8494 169.014 78.1733L166.496 77.9688C166.623 77.3722 166.875 76.8565 167.25 76.4219C167.625 75.983 168.108 75.6463 168.701 75.4119C169.297 75.1733 169.988 75.054 170.772 75.054C171.317 75.054 171.839 75.1179 172.338 75.2457C172.841 75.3736 173.286 75.5717 173.674 75.8402C174.066 76.1087 174.375 76.4538 174.601 76.8757C174.827 77.2933 174.939 77.794 174.939 78.3778V85H172.357V83.6385H172.28C172.123 83.9453 171.912 84.2159 171.648 84.4503C171.383 84.6804 171.066 84.8615 170.695 84.9936C170.324 85.1214 169.896 85.1854 169.41 85.1854ZM170.19 83.3061C170.591 83.3061 170.944 83.2273 171.251 83.0696C171.558 82.9077 171.799 82.6903 171.974 82.4176C172.148 82.1449 172.236 81.8359 172.236 81.4908V80.4489C172.15 80.5043 172.033 80.5554 171.884 80.6023C171.739 80.6449 171.575 80.6854 171.392 80.7237C171.209 80.7578 171.025 80.7898 170.842 80.8196C170.659 80.8452 170.493 80.8686 170.344 80.8899C170.024 80.9368 169.745 81.0114 169.506 81.1136C169.268 81.2159 169.082 81.3544 168.95 81.5291C168.818 81.6996 168.752 81.9126 168.752 82.1683C168.752 82.5391 168.886 82.8224 169.155 83.0185C169.427 83.2102 169.773 83.3061 170.19 83.3061ZM186.858 75.1818V77.2273H180.798V75.1818H186.858ZM182.185 85V74.4723C182.185 73.7607 182.324 73.1705 182.601 72.7017C182.882 72.233 183.266 71.8814 183.751 71.647C184.237 71.4126 184.789 71.2955 185.407 71.2955C185.824 71.2955 186.206 71.3274 186.551 71.3913C186.9 71.4553 187.16 71.5128 187.331 71.5639L186.845 73.6094C186.739 73.5753 186.606 73.5433 186.449 73.5135C186.295 73.4837 186.138 73.4688 185.976 73.4688C185.575 73.4688 185.296 73.5625 185.138 73.75C184.981 73.9332 184.902 74.1911 184.902 74.5234V85H182.185ZM188.701 85V75.1818H191.424V85H188.701ZM190.069 73.9162C189.664 73.9162 189.317 73.782 189.027 73.5135C188.742 73.2408 188.599 72.9148 188.599 72.5355C188.599 72.1605 188.742 71.8388 189.027 71.5703C189.317 71.2976 189.664 71.1612 190.069 71.1612C190.474 71.1612 190.819 71.2976 191.105 71.5703C191.395 71.8388 191.539 72.1605 191.539 72.5355C191.539 72.9148 191.395 73.2408 191.105 73.5135C190.819 73.782 190.474 73.9162 190.069 73.9162ZM196.509 79.3239V85H193.786V75.1818H196.381V76.9141H196.496C196.713 76.343 197.078 75.8913 197.589 75.5589C198.1 75.2223 198.72 75.054 199.449 75.054C200.131 75.054 200.725 75.2031 201.232 75.5014C201.74 75.7997 202.134 76.2259 202.415 76.7798C202.696 77.3295 202.837 77.9858 202.837 78.7486V85H200.114V79.2344C200.118 78.6335 199.965 78.1648 199.654 77.8281C199.342 77.4872 198.914 77.3168 198.369 77.3168C198.002 77.3168 197.678 77.3956 197.397 77.5533C197.12 77.7109 196.903 77.9411 196.745 78.2436C196.592 78.5419 196.513 78.902 196.509 79.3239ZM207.963 85.1854C207.336 85.1854 206.778 85.0767 206.288 84.8594C205.798 84.6378 205.41 84.3118 205.125 83.8814C204.843 83.4467 204.703 82.9055 204.703 82.2578C204.703 81.7124 204.803 81.2543 205.003 80.8835C205.203 80.5128 205.476 80.2145 205.821 79.9886C206.166 79.7628 206.559 79.5923 206.997 79.4773C207.441 79.3622 207.905 79.2812 208.391 79.2344C208.962 79.1747 209.422 79.1193 209.772 79.0682C210.121 79.0128 210.375 78.9318 210.532 78.8253C210.69 78.7187 210.769 78.5611 210.769 78.3523V78.3139C210.769 77.9091 210.641 77.5959 210.385 77.3743C210.134 77.1527 209.776 77.0419 209.311 77.0419C208.821 77.0419 208.431 77.1506 208.142 77.3679C207.852 77.581 207.66 77.8494 207.566 78.1733L205.048 77.9688C205.176 77.3722 205.427 76.8565 205.802 76.4219C206.177 75.983 206.661 75.6463 207.253 75.4119C207.85 75.1733 208.54 75.054 209.324 75.054C209.87 75.054 210.392 75.1179 210.89 75.2457C211.393 75.3736 211.838 75.5717 212.226 75.8402C212.618 76.1087 212.927 76.4538 213.153 76.8757C213.379 77.2933 213.492 77.794 213.492 78.3778V85H210.909V83.6385H210.833C210.675 83.9453 210.464 84.2159 210.2 84.4503C209.936 84.6804 209.618 84.8615 209.247 84.9936C208.877 85.1214 208.448 85.1854 207.963 85.1854ZM208.742 83.3061C209.143 83.3061 209.497 83.2273 209.804 83.0696C210.11 82.9077 210.351 82.6903 210.526 82.4176C210.701 82.1449 210.788 81.8359 210.788 81.4908V80.4489C210.703 80.5043 210.586 80.5554 210.436 80.6023C210.291 80.6449 210.127 80.6854 209.944 80.7237C209.761 80.7578 209.578 80.7898 209.394 80.8196C209.211 80.8452 209.045 80.8686 208.896 80.8899C208.576 80.9368 208.297 81.0114 208.059 81.1136C207.82 81.2159 207.635 81.3544 207.502 81.5291C207.37 81.6996 207.304 81.9126 207.304 82.1683C207.304 82.5391 207.439 82.8224 207.707 83.0185C207.98 83.2102 208.325 83.3061 208.742 83.3061ZM218.507 71.9091V85H215.784V71.9091H218.507ZM220.869 85V75.1818H223.592V85H220.869ZM222.237 73.9162C221.832 73.9162 221.484 73.782 221.195 73.5135C220.909 73.2408 220.766 72.9148 220.766 72.5355C220.766 72.1605 220.909 71.8388 221.195 71.5703C221.484 71.2976 221.832 71.1612 222.237 71.1612C222.641 71.1612 222.987 71.2976 223.272 71.5703C223.562 71.8388 223.707 72.1605 223.707 72.5355C223.707 72.9148 223.562 73.2408 223.272 73.5135C222.987 73.782 222.641 73.9162 222.237 73.9162ZM229.571 85.1598C228.825 85.1598 228.15 84.968 227.545 84.5845C226.944 84.1967 226.466 83.6278 226.113 82.8778C225.763 82.1236 225.589 81.1989 225.589 80.1037C225.589 78.9787 225.77 78.0433 226.132 77.2976C226.494 76.5476 226.976 75.9872 227.577 75.6165C228.182 75.2415 228.844 75.054 229.564 75.054C230.114 75.054 230.572 75.1477 230.939 75.3352C231.309 75.5185 231.608 75.7486 231.834 76.0256C232.064 76.2983 232.238 76.5668 232.358 76.831H232.441V71.9091H235.157V85H232.473V83.4276H232.358C232.23 83.7003 232.049 83.9709 231.814 84.2393C231.584 84.5036 231.284 84.723 230.913 84.8977C230.547 85.0724 230.099 85.1598 229.571 85.1598ZM230.434 82.9929C230.873 82.9929 231.243 82.8736 231.546 82.6349C231.853 82.392 232.087 82.0533 232.249 81.6186C232.415 81.1839 232.498 80.6747 232.498 80.0909C232.498 79.5071 232.417 79 232.255 78.5696C232.094 78.1392 231.859 77.8068 231.552 77.5724C231.246 77.3381 230.873 77.2209 230.434 77.2209C229.986 77.2209 229.609 77.3423 229.302 77.5852C228.996 77.8281 228.763 78.1648 228.606 78.5952C228.448 79.0256 228.369 79.5241 228.369 80.0909C228.369 80.6619 228.448 81.1669 228.606 81.6058C228.768 82.0405 229 82.3814 229.302 82.6286C229.609 82.8714 229.986 82.9929 230.434 82.9929ZM240.376 85.1854C239.75 85.1854 239.191 85.0767 238.701 84.8594C238.211 84.6378 237.823 84.3118 237.538 83.8814C237.257 83.4467 237.116 82.9055 237.116 82.2578C237.116 81.7124 237.216 81.2543 237.417 80.8835C237.617 80.5128 237.89 80.2145 238.235 79.9886C238.58 79.7628 238.972 79.5923 239.411 79.4773C239.854 79.3622 240.318 79.2812 240.804 79.2344C241.375 79.1747 241.836 79.1193 242.185 79.0682C242.534 79.0128 242.788 78.9318 242.946 78.8253C243.103 78.7187 243.182 78.5611 243.182 78.3523V78.3139C243.182 77.9091 243.054 77.5959 242.799 77.3743C242.547 77.1527 242.189 77.0419 241.725 77.0419C241.235 77.0419 240.845 77.1506 240.555 77.3679C240.265 77.581 240.073 77.8494 239.98 78.1733L237.461 77.9688C237.589 77.3722 237.841 76.8565 238.216 76.4219C238.591 75.983 239.074 75.6463 239.667 75.4119C240.263 75.1733 240.953 75.054 241.738 75.054C242.283 75.054 242.805 75.1179 243.304 75.2457C243.806 75.3736 244.252 75.5717 244.64 75.8402C245.032 76.1087 245.341 76.4538 245.566 76.8757C245.792 77.2933 245.905 77.794 245.905 78.3778V85H243.323V83.6385H243.246C243.088 83.9453 242.877 84.2159 242.613 84.4503C242.349 84.6804 242.032 84.8615 241.661 84.9936C241.29 85.1214 240.862 85.1854 240.376 85.1854ZM241.156 83.3061C241.556 83.3061 241.91 83.2273 242.217 83.0696C242.524 82.9077 242.765 82.6903 242.939 82.4176C243.114 82.1449 243.201 81.8359 243.201 81.4908V80.4489C243.116 80.5043 242.999 80.5554 242.85 80.6023C242.705 80.6449 242.541 80.6854 242.358 80.7237C242.174 80.7578 241.991 80.7898 241.808 80.8196C241.625 80.8452 241.458 80.8686 241.309 80.8899C240.99 80.9368 240.711 81.0114 240.472 81.1136C240.233 81.2159 240.048 81.3544 239.916 81.5291C239.784 81.6996 239.718 81.9126 239.718 82.1683C239.718 82.5391 239.852 82.8224 240.12 83.0185C240.393 83.2102 240.738 83.3061 241.156 83.3061ZM251.816 85.1598C251.07 85.1598 250.394 84.968 249.789 84.5845C249.188 84.1967 248.711 83.6278 248.358 82.8778C248.008 82.1236 247.833 81.1989 247.833 80.1037C247.833 78.9787 248.014 78.0433 248.377 77.2976C248.739 76.5476 249.22 75.9872 249.821 75.6165C250.426 75.2415 251.089 75.054 251.809 75.054C252.359 75.054 252.817 75.1477 253.183 75.3352C253.554 75.5185 253.853 75.7486 254.078 76.0256C254.308 76.2983 254.483 76.5668 254.603 76.831H254.686V71.9091H257.402V85H254.718V83.4276H254.603C254.475 83.7003 254.294 83.9709 254.059 84.2393C253.829 84.5036 253.529 84.723 253.158 84.8977C252.791 85.0724 252.344 85.1598 251.816 85.1598ZM252.679 82.9929C253.117 82.9929 253.488 82.8736 253.791 82.6349C254.098 82.392 254.332 82.0533 254.494 81.6186C254.66 81.1839 254.743 80.6747 254.743 80.0909C254.743 79.5071 254.662 79 254.5 78.5696C254.338 78.1392 254.104 77.8068 253.797 77.5724C253.49 77.3381 253.117 77.2209 252.679 77.2209C252.231 77.2209 251.854 77.3423 251.547 77.5852C251.24 77.8281 251.008 78.1648 250.85 78.5952C250.693 79.0256 250.614 79.5241 250.614 80.0909C250.614 80.6619 250.693 81.1669 250.85 81.6058C251.012 82.0405 251.245 82.3814 251.547 82.6286C251.854 82.8714 252.231 82.9929 252.679 82.9929ZM264.296 85.1918C263.286 85.1918 262.416 84.9872 261.688 84.5781C260.963 84.1648 260.405 83.581 260.013 82.8267C259.621 82.0682 259.425 81.1712 259.425 80.1357C259.425 79.1257 259.621 78.2393 260.013 77.4766C260.405 76.7138 260.957 76.1193 261.668 75.6932C262.384 75.267 263.224 75.054 264.187 75.054C264.835 75.054 265.438 75.1584 265.996 75.3672C266.558 75.5717 267.048 75.8807 267.466 76.294C267.888 76.7074 268.216 77.2273 268.45 77.8537C268.685 78.4759 268.802 79.2045 268.802 80.0398V80.7876H260.511V79.1001H266.239C266.239 78.7081 266.153 78.3608 265.983 78.0582C265.813 77.7557 265.576 77.5192 265.273 77.3487C264.975 77.174 264.628 77.0866 264.232 77.0866C263.818 77.0866 263.452 77.1825 263.132 77.3743C262.817 77.5618 262.57 77.8153 262.391 78.1349C262.212 78.4503 262.12 78.8018 262.116 79.1896V80.794C262.116 81.2798 262.205 81.6996 262.384 82.0533C262.568 82.407 262.825 82.6797 263.158 82.8714C263.49 83.0632 263.884 83.1591 264.34 83.1591C264.643 83.1591 264.92 83.1165 265.171 83.0312C265.423 82.946 265.638 82.8182 265.817 82.6477C265.996 82.4773 266.132 82.2685 266.226 82.0213L268.744 82.1875C268.617 82.7926 268.354 83.321 267.958 83.7727C267.566 84.2202 267.059 84.5696 266.437 84.821C265.819 85.0682 265.105 85.1918 264.296 85.1918ZM273.098 81.0753V80.858C273.103 80.1122 273.169 79.5178 273.297 79.0746C273.429 78.6314 273.62 78.2734 273.872 78.0007C274.123 77.728 274.426 77.4808 274.779 77.2592C275.044 77.0888 275.28 76.9119 275.489 76.7287C275.698 76.5455 275.864 76.343 275.988 76.1214C276.111 75.8956 276.173 75.6442 276.173 75.3672C276.173 75.0732 276.103 74.8153 275.962 74.5938C275.821 74.3722 275.632 74.2017 275.393 74.0824C275.159 73.9631 274.899 73.9034 274.613 73.9034C274.336 73.9034 274.074 73.9652 273.827 74.0888C273.58 74.2081 273.377 74.3871 273.22 74.6257C273.062 74.8601 272.977 75.152 272.964 75.5014H270.356C270.377 74.6491 270.582 73.946 270.97 73.392C271.358 72.8338 271.871 72.4183 272.51 72.1456C273.149 71.8686 273.855 71.7301 274.626 71.7301C275.474 71.7301 276.224 71.8707 276.876 72.152C277.528 72.429 278.039 72.8317 278.41 73.3601C278.781 73.8885 278.966 74.5256 278.966 75.2713C278.966 75.7699 278.883 76.2131 278.717 76.6009C278.555 76.9844 278.327 77.3253 278.033 77.6236C277.739 77.9176 277.392 78.1839 276.991 78.4226C276.654 78.6229 276.377 78.8317 276.16 79.049C275.947 79.2663 275.787 79.5178 275.681 79.8033C275.578 80.0888 275.525 80.4403 275.521 80.858V81.0753H273.098ZM274.364 85.1662C273.938 85.1662 273.574 85.017 273.271 84.7188C272.973 84.4162 272.826 84.054 272.83 83.6321C272.826 83.2145 272.973 82.8565 273.271 82.5582C273.574 82.2599 273.938 82.1108 274.364 82.1108C274.769 82.1108 275.125 82.2599 275.431 82.5582C275.738 82.8565 275.894 83.2145 275.898 83.6321C275.894 83.9134 275.819 84.1712 275.674 84.4055C275.534 84.6357 275.348 84.821 275.118 84.9616C274.888 85.098 274.637 85.1662 274.364 85.1662Z" fill="#090929"/>
<rect x="65" y="117" width="234" height="83" rx="25" fill="#E9EFFD"/>
<rect x="65" y="211" width="234" height="83" rx="25" fill="#E9EFFD"/>
<rect x="81" y="132" width="51" height="51" rx="15" fill="white"/>
<rect x="81" y="226" width="51" height="51" rx="15" fill="white"/>
<path fill-rule="evenodd" clip-rule="evenodd" d="M101.909 157.735C104.627 157.735 106.831 155.532 106.831 152.814C106.831 150.096 104.627 147.892 101.909 147.892C99.1908 147.892 96.9873 150.096 96.9873 152.814C96.9873 155.532 99.1908 157.735 101.909 157.735Z" fill="#2160E8"/>
<path fill-rule="evenodd" clip-rule="evenodd" d="M106.182 157.184C105.075 158.239 103.569 158.889 101.909 158.889C100.25 158.889 98.7432 158.239 97.6366 157.184C97.446 157.137 97.2555 157.09 97.0704 157.067C96.8853 157.043 96.7063 157.043 96.5393 157.069C96.3729 157.094 96.2192 157.146 96.0396 157.21C95.86 157.274 95.6552 157.351 95.3987 157.505C95.1428 157.658 94.8347 157.889 94.5404 158.274C94.2455 158.658 93.9637 159.197 93.7073 159.838C93.4508 160.478 93.2202 161.222 93.0922 161.94C92.9643 162.657 92.9385 163.349 92.9258 163.875C92.9126 164.4 92.9126 164.759 92.9643 165.105C93.0153 165.451 93.1175 165.784 93.3487 166.118C93.5793 166.451 93.9379 166.784 94.3608 167.04C94.7837 167.297 95.2708 167.476 95.9375 167.566C96.6036 167.656 97.4493 167.656 98.4746 167.656H101.448H101.909H102.37H105.344C106.369 167.656 107.215 167.656 107.881 167.566C108.547 167.476 109.035 167.297 109.457 167.04C109.88 166.784 110.239 166.451 110.47 166.118C110.701 165.784 110.803 165.451 110.854 165.105C110.906 164.759 110.906 164.4 110.892 163.875C110.88 163.349 110.854 162.657 110.726 161.94C110.598 161.222 110.367 160.478 110.111 159.838C109.854 159.197 109.573 158.658 109.278 158.274C108.983 157.889 108.675 157.658 108.419 157.505C108.163 157.351 107.958 157.274 107.779 157.21C107.599 157.146 107.445 157.094 107.279 157.069C107.112 157.043 106.933 157.043 106.748 157.067C106.563 157.09 106.372 157.137 106.182 157.184Z" fill="#2160E8"/>
<path fill-rule="evenodd" clip-rule="evenodd" d="M107.155 155.239C108.03 156.038 109.194 156.525 110.472 156.525C113.19 156.525 115.393 154.322 115.393 151.604C115.393 148.885 113.19 146.682 110.472 146.682C108.727 146.682 107.193 147.591 106.32 148.961C107.305 149.861 107.924 151.157 107.924 152.597C107.924 153.569 107.641 154.476 107.155 155.239Z" fill="#2160E8"/>
<path fill-rule="evenodd" clip-rule="evenodd" d="M114.472 156.156C113.398 157.179 111.949 157.822 110.347 157.859L110.524 158.071C110.819 158.455 111.101 158.994 111.357 159.635C111.614 160.275 111.845 161.019 111.973 161.736C112.101 162.454 112.127 163.146 112.139 163.671C112.152 164.197 112.152 164.556 112.101 164.902C112.05 165.248 111.948 165.581 111.716 165.915C111.544 166.163 111.301 166.412 111.014 166.627H113.634C114.66 166.627 115.506 166.627 116.172 166.538C116.839 166.448 117.326 166.269 117.749 166.012C118.173 165.756 118.531 165.423 118.762 165.09C118.993 164.756 119.095 164.423 119.147 164.077C119.198 163.731 119.198 163.372 119.185 162.846C119.172 162.321 119.147 161.629 119.019 160.912C118.891 160.194 118.66 159.45 118.403 158.81C118.147 158.169 117.865 157.63 117.57 157.246C117.275 156.861 116.967 156.63 116.711 156.476C116.455 156.323 116.25 156.246 116.07 156.182C115.89 156.118 115.737 156.066 115.57 156.041C115.403 156.015 115.224 156.015 115.039 156.039C114.854 156.062 114.663 156.109 114.472 156.156Z" fill="#2160E8"/>
<path d="M149.312 150.832V157.744C149.312 158.501 149.509 159.083 149.904 159.488C150.299 159.883 150.853 160.08 151.568 160.08C152.293 160.08 152.853 159.883 153.248 159.488C153.643 159.083 153.84 158.501 153.84 157.744V150.832H156.096V157.728C156.096 158.677 155.888 159.483 155.472 160.144C155.067 160.795 154.517 161.285 153.824 161.616C153.141 161.947 152.379 162.112 151.536 162.112C150.704 162.112 149.947 161.947 149.264 161.616C148.592 161.285 148.059 160.795 147.664 160.144C147.269 159.483 147.072 158.677 147.072 157.728V150.832H149.312ZM161.652 162.144C160.927 162.144 160.276 162.016 159.7 161.76C159.124 161.493 158.666 161.136 158.324 160.688C157.994 160.24 157.812 159.744 157.78 159.2H160.036C160.079 159.541 160.244 159.824 160.532 160.048C160.831 160.272 161.199 160.384 161.636 160.384C162.063 160.384 162.394 160.299 162.628 160.128C162.874 159.957 162.996 159.739 162.996 159.472C162.996 159.184 162.847 158.971 162.548 158.832C162.26 158.683 161.796 158.523 161.156 158.352C160.495 158.192 159.951 158.027 159.524 157.856C159.108 157.685 158.746 157.424 158.436 157.072C158.138 156.72 157.988 156.245 157.988 155.648C157.988 155.157 158.127 154.709 158.404 154.304C158.692 153.899 159.098 153.579 159.62 153.344C160.154 153.109 160.778 152.992 161.492 152.992C162.548 152.992 163.391 153.259 164.02 153.792C164.65 154.315 164.996 155.024 165.06 155.92H162.916C162.884 155.568 162.735 155.291 162.468 155.088C162.212 154.875 161.866 154.768 161.428 154.768C161.023 154.768 160.708 154.843 160.484 154.992C160.271 155.141 160.164 155.349 160.164 155.616C160.164 155.915 160.314 156.144 160.612 156.304C160.911 156.453 161.375 156.608 162.004 156.768C162.644 156.928 163.172 157.093 163.588 157.264C164.004 157.435 164.362 157.701 164.66 158.064C164.97 158.416 165.13 158.885 165.14 159.472C165.14 159.984 164.996 160.443 164.708 160.848C164.431 161.253 164.026 161.573 163.492 161.808C162.97 162.032 162.356 162.144 161.652 162.144ZM175.347 153.136V162H173.091V160.88C172.803 161.264 172.424 161.568 171.955 161.792C171.496 162.005 170.995 162.112 170.451 162.112C169.758 162.112 169.144 161.968 168.611 161.68C168.078 161.381 167.656 160.949 167.347 160.384C167.048 159.808 166.899 159.125 166.899 158.336V153.136H169.139V158.016C169.139 158.72 169.315 159.264 169.667 159.648C170.019 160.021 170.499 160.208 171.107 160.208C171.726 160.208 172.211 160.021 172.563 159.648C172.915 159.264 173.091 158.72 173.091 158.016V153.136H175.347ZM176.981 157.536C176.981 156.64 177.157 155.845 177.509 155.152C177.872 154.459 178.357 153.925 178.965 153.552C179.584 153.179 180.272 152.992 181.029 152.992C181.69 152.992 182.266 153.125 182.757 153.392C183.258 153.659 183.658 153.995 183.957 154.4V153.136H186.213V162H183.957V160.704C183.669 161.12 183.269 161.467 182.757 161.744C182.256 162.011 181.674 162.144 181.013 162.144C180.266 162.144 179.584 161.952 178.965 161.568C178.357 161.184 177.872 160.645 177.509 159.952C177.157 159.248 176.981 158.443 176.981 157.536ZM183.957 157.568C183.957 157.024 183.85 156.56 183.637 156.176C183.424 155.781 183.136 155.483 182.773 155.28C182.41 155.067 182.021 154.96 181.605 154.96C181.189 154.96 180.805 155.061 180.453 155.264C180.101 155.467 179.813 155.765 179.589 156.16C179.376 156.544 179.269 157.003 179.269 157.536C179.269 158.069 179.376 158.539 179.589 158.944C179.813 159.339 180.101 159.643 180.453 159.856C180.816 160.069 181.2 160.176 181.605 160.176C182.021 160.176 182.41 160.075 182.773 159.872C183.136 159.659 183.424 159.36 183.637 158.976C183.85 158.581 183.957 158.112 183.957 157.568ZM183.653 150.832L179.973 152.512V150.912L183.653 149.008V150.832ZM190.641 154.512C190.929 154.043 191.302 153.675 191.761 153.408C192.23 153.141 192.764 153.008 193.361 153.008V155.36H192.769C192.065 155.36 191.532 155.525 191.169 155.856C190.817 156.187 190.641 156.763 190.641 157.584V162H188.401V153.136H190.641V154.512ZM196.006 152.08C195.611 152.08 195.28 151.957 195.014 151.712C194.758 151.456 194.63 151.141 194.63 150.768C194.63 150.395 194.758 150.085 195.014 149.84C195.28 149.584 195.611 149.456 196.006 149.456C196.4 149.456 196.726 149.584 196.982 149.84C197.248 150.085 197.382 150.395 197.382 150.768C197.382 151.141 197.248 151.456 196.982 151.712C196.726 151.957 196.4 152.08 196.006 152.08ZM197.11 153.136V162H194.87V153.136H197.11ZM203.259 162.144C202.405 162.144 201.637 161.957 200.955 161.584C200.272 161.2 199.733 160.661 199.339 159.968C198.955 159.275 198.763 158.475 198.763 157.568C198.763 156.661 198.96 155.861 199.355 155.168C199.76 154.475 200.309 153.941 201.003 153.568C201.696 153.184 202.469 152.992 203.323 152.992C204.176 152.992 204.949 153.184 205.643 153.568C206.336 153.941 206.88 154.475 207.275 155.168C207.68 155.861 207.883 156.661 207.883 157.568C207.883 158.475 207.675 159.275 207.259 159.968C206.853 160.661 206.299 161.2 205.595 161.584C204.901 161.957 204.123 162.144 203.259 162.144ZM203.259 160.192C203.664 160.192 204.043 160.096 204.395 159.904C204.757 159.701 205.045 159.403 205.259 159.008C205.472 158.613 205.579 158.133 205.579 157.568C205.579 156.725 205.355 156.08 204.907 155.632C204.469 155.173 203.931 154.944 203.291 154.944C202.651 154.944 202.112 155.173 201.675 155.632C201.248 156.08 201.035 156.725 201.035 157.568C201.035 158.411 201.243 159.061 201.659 159.52C202.085 159.968 202.619 160.192 203.259 160.192Z" fill="#090929"/>
<path d="M152.864 256L150.4 251.648H149.344V256H147.104V244.832H151.296C152.16 244.832 152.896 244.987 153.504 245.296C154.112 245.595 154.565 246.005 154.864 246.528C155.173 247.04 155.328 247.616 155.328 248.256C155.328 248.992 155.115 249.659 154.688 250.256C154.261 250.843 153.627 251.248 152.784 251.472L155.456 256H152.864ZM149.344 249.968H151.216C151.824 249.968 152.277 249.824 152.576 249.536C152.875 249.237 153.024 248.827 153.024 248.304C153.024 247.792 152.875 247.397 152.576 247.12C152.277 246.832 151.824 246.688 151.216 246.688H149.344V249.968ZM165.594 251.376C165.594 251.696 165.573 251.984 165.53 252.24H159.05C159.103 252.88 159.327 253.381 159.722 253.744C160.117 254.107 160.602 254.288 161.178 254.288C162.01 254.288 162.602 253.931 162.954 253.216H165.37C165.114 254.069 164.623 254.773 163.898 255.328C163.173 255.872 162.282 256.144 161.226 256.144C160.373 256.144 159.605 255.957 158.922 255.584C158.25 255.2 157.722 254.661 157.338 253.968C156.965 253.275 156.778 252.475 156.778 251.568C156.778 250.651 156.965 249.845 157.338 249.152C157.711 248.459 158.234 247.925 158.906 247.552C159.578 247.179 160.351 246.992 161.226 246.992C162.069 246.992 162.821 247.173 163.482 247.536C164.154 247.899 164.671 248.416 165.034 249.088C165.407 249.749 165.594 250.512 165.594 251.376ZM163.274 250.736C163.263 250.16 163.055 249.701 162.65 249.36C162.245 249.008 161.749 248.832 161.162 248.832C160.607 248.832 160.138 249.003 159.754 249.344C159.381 249.675 159.151 250.139 159.066 250.736H163.274ZM170.621 256.144C169.896 256.144 169.245 256.016 168.669 255.76C168.093 255.493 167.634 255.136 167.293 254.688C166.962 254.24 166.781 253.744 166.749 253.2H169.005C169.048 253.541 169.213 253.824 169.501 254.048C169.8 254.272 170.168 254.384 170.605 254.384C171.032 254.384 171.362 254.299 171.597 254.128C171.842 253.957 171.965 253.739 171.965 253.472C171.965 253.184 171.816 252.971 171.517 252.832C171.229 252.683 170.765 252.523 170.125 252.352C169.464 252.192 168.92 252.027 168.493 251.856C168.077 251.685 167.714 251.424 167.405 251.072C167.106 250.72 166.957 250.245 166.957 249.648C166.957 249.157 167.096 248.709 167.373 248.304C167.661 247.899 168.066 247.579 168.589 247.344C169.122 247.109 169.746 246.992 170.461 246.992C171.517 246.992 172.36 247.259 172.989 247.792C173.618 248.315 173.965 249.024 174.029 249.92H171.885C171.853 249.568 171.704 249.291 171.437 249.088C171.181 248.875 170.834 248.768 170.397 248.768C169.992 248.768 169.677 248.843 169.453 248.992C169.24 249.141 169.133 249.349 169.133 249.616C169.133 249.915 169.282 250.144 169.581 250.304C169.88 250.453 170.344 250.608 170.973 250.768C171.613 250.928 172.141 251.093 172.557 251.264C172.973 251.435 173.33 251.701 173.629 252.064C173.938 252.416 174.098 252.885 174.109 253.472C174.109 253.984 173.965 254.443 173.677 254.848C173.4 255.253 172.994 255.573 172.461 255.808C171.938 256.032 171.325 256.144 170.621 256.144ZM178.556 248.976V253.264C178.556 253.563 178.625 253.781 178.764 253.92C178.913 254.048 179.158 254.112 179.5 254.112H180.54V256H179.132C177.244 256 176.3 255.083 176.3 253.248V248.976H175.244V247.136H176.3V244.944H178.556V247.136H180.54V248.976H178.556ZM181.575 251.536C181.575 250.64 181.751 249.845 182.103 249.152C182.466 248.459 182.951 247.925 183.559 247.552C184.178 247.179 184.866 246.992 185.623 246.992C186.284 246.992 186.86 247.125 187.351 247.392C187.852 247.659 188.252 247.995 188.551 248.4V247.136H190.807V256H188.551V254.704C188.263 255.12 187.863 255.467 187.351 255.744C186.85 256.011 186.268 256.144 185.607 256.144C184.86 256.144 184.178 255.952 183.559 255.568C182.951 255.184 182.466 254.645 182.103 253.952C181.751 253.248 181.575 252.443 181.575 251.536ZM188.551 251.568C188.551 251.024 188.444 250.56 188.231 250.176C188.018 249.781 187.73 249.483 187.367 249.28C187.004 249.067 186.615 248.96 186.199 248.96C185.783 248.96 185.399 249.061 185.047 249.264C184.695 249.467 184.407 249.765 184.183 250.16C183.97 250.544 183.863 251.003 183.863 251.536C183.863 252.069 183.97 252.539 184.183 252.944C184.407 253.339 184.695 253.643 185.047 253.856C185.41 254.069 185.794 254.176 186.199 254.176C186.615 254.176 187.004 254.075 187.367 253.872C187.73 253.659 188.018 253.36 188.231 252.976C188.444 252.581 188.551 252.112 188.551 251.568ZM201.363 247.136V256H199.107V254.88C198.819 255.264 198.44 255.568 197.971 255.792C197.512 256.005 197.011 256.112 196.467 256.112C195.773 256.112 195.16 255.968 194.627 255.68C194.093 255.381 193.672 254.949 193.363 254.384C193.064 253.808 192.915 253.125 192.915 252.336V247.136H195.155V252.016C195.155 252.72 195.331 253.264 195.683 253.648C196.035 254.021 196.515 254.208 197.123 254.208C197.741 254.208 198.227 254.021 198.579 253.648C198.931 253.264 199.107 252.72 199.107 252.016V247.136H201.363ZM205.813 248.512C206.101 248.043 206.474 247.675 206.933 247.408C207.402 247.141 207.935 247.008 208.533 247.008V249.36H207.941C207.237 249.36 206.703 249.525 206.341 249.856C205.989 250.187 205.813 250.763 205.813 251.584V256H203.573V247.136H205.813V248.512ZM209.465 251.536C209.465 250.64 209.641 249.845 209.993 249.152C210.356 248.459 210.842 247.925 211.45 247.552C212.068 247.179 212.756 246.992 213.514 246.992C214.175 246.992 214.751 247.125 215.242 247.392C215.743 247.659 216.143 247.995 216.442 248.4V247.136H218.698V256H216.442V254.704C216.154 255.12 215.754 255.467 215.242 255.744C214.74 256.011 214.159 256.144 213.498 256.144C212.751 256.144 212.068 255.952 211.45 255.568C210.842 255.184 210.356 254.645 209.993 253.952C209.641 253.248 209.465 252.443 209.465 251.536ZM216.442 251.568C216.442 251.024 216.335 250.56 216.122 250.176C215.908 249.781 215.62 249.483 215.258 249.28C214.895 249.067 214.506 248.96 214.09 248.96C213.674 248.96 213.29 249.061 212.938 249.264C212.586 249.467 212.298 249.765 212.074 250.16C211.86 250.544 211.754 251.003 211.754 251.536C211.754 252.069 211.86 252.539 212.074 252.944C212.298 253.339 212.586 253.643 212.938 253.856C213.3 254.069 213.684 254.176 214.09 254.176C214.506 254.176 214.895 254.075 215.258 253.872C215.62 253.659 215.908 253.36 216.122 252.976C216.335 252.581 216.442 252.112 216.442 251.568ZM225.797 247.008C226.853 247.008 227.707 247.344 228.357 248.016C229.008 248.677 229.333 249.605 229.333 250.8V256H227.093V251.104C227.093 250.4 226.917 249.861 226.565 249.488C226.213 249.104 225.733 248.912 225.125 248.912C224.507 248.912 224.016 249.104 223.653 249.488C223.301 249.861 223.125 250.4 223.125 251.104V256H220.885V247.136H223.125V248.24C223.424 247.856 223.803 247.557 224.261 247.344C224.731 247.12 225.243 247.008 225.797 247.008ZM234.071 248.976V253.264C234.071 253.563 234.141 253.781 234.279 253.92C234.429 254.048 234.674 254.112 235.015 254.112H236.055V256H234.647C232.759 256 231.815 255.083 231.815 253.248V248.976H230.759V247.136H231.815V244.944H234.071V247.136H236.055V248.976H234.071ZM245.907 251.376C245.907 251.696 245.885 251.984 245.843 252.24H239.363C239.416 252.88 239.64 253.381 240.035 253.744C240.429 254.107 240.915 254.288 241.491 254.288C242.323 254.288 242.915 253.931 243.267 253.216H245.683C245.427 254.069 244.936 254.773 244.211 255.328C243.485 255.872 242.595 256.144 241.539 256.144C240.685 256.144 239.917 255.957 239.235 255.584C238.563 255.2 238.035 254.661 237.651 253.968C237.277 253.275 237.09 252.475 237.09 251.568C237.09 250.651 237.277 249.845 237.651 249.152C238.024 248.459 238.547 247.925 239.219 247.552C239.891 247.179 240.664 246.992 241.539 246.992C242.381 246.992 243.133 247.173 243.795 247.536C244.467 247.899 244.984 248.416 245.347 249.088C245.72 249.749 245.907 250.512 245.907 251.376ZM243.587 250.736C243.576 250.16 243.368 249.701 242.963 249.36C242.557 249.008 242.061 248.832 241.475 248.832C240.92 248.832 240.451 249.003 240.067 249.344C239.693 249.675 239.464 250.139 239.379 250.736H243.587Z" fill="#090929"/>
<path d="M114.056 249.43C114.735 249.432 115.407 249.299 116.034 249.039C116.662 248.779 117.231 248.397 117.71 247.916L122.683 242.946C123.076 242.553 123.112 241.913 122.738 241.5C122.644 241.396 122.53 241.313 122.402 241.255C122.275 241.196 122.137 241.165 121.997 241.161C121.857 241.158 121.718 241.183 121.588 241.235C121.458 241.287 121.34 241.365 121.241 241.464L116.809 245.893C116.66 246.042 116.458 246.125 116.248 246.125C116.038 246.125 115.836 246.042 115.687 245.893C115.378 245.584 115.395 245.062 115.703 244.754L120.116 240.341C120.215 240.242 120.293 240.124 120.345 239.994C120.397 239.864 120.422 239.725 120.419 239.585C120.415 239.445 120.383 239.308 120.325 239.18C120.267 239.053 120.184 238.939 120.08 238.845C119.893 238.675 119.649 238.582 119.397 238.583C119.111 238.584 118.836 238.697 118.634 238.9L114.225 243.308C114.076 243.457 113.874 243.54 113.664 243.54C113.454 243.54 113.252 243.457 113.103 243.308C112.794 243 112.811 242.478 113.119 242.169L117.532 237.757C117.631 237.658 117.709 237.54 117.761 237.411C117.813 237.281 117.838 237.142 117.835 237.002C117.831 236.862 117.799 236.724 117.741 236.597C117.683 236.47 117.6 236.356 117.496 236.262C117.309 236.092 117.065 235.999 116.813 236C116.527 236 116.252 236.114 116.05 236.316L111.08 241.286C110.599 241.765 110.217 242.335 109.957 242.962C109.697 243.589 109.565 244.262 109.566 244.941V245.473C109.567 245.608 109.54 245.743 109.488 245.869C109.436 245.994 109.36 246.108 109.264 246.204L106.964 248.505C106.94 248.529 106.911 248.548 106.88 248.561C106.849 248.574 106.815 248.581 106.781 248.581C106.747 248.581 106.713 248.574 106.682 248.561C106.651 248.548 106.622 248.529 106.598 248.505L95.407 237.313C95.2139 237.12 94.952 237.011 94.6787 237.01C94.4054 237.009 94.1429 237.117 93.9487 237.309C92.9703 238.279 92.4478 239.647 92.4478 241.266C92.4413 243.94 93.8467 247.014 96.1155 249.28L101.634 254.799C102.419 255.581 103.481 256.021 104.59 256.021C104.943 256.021 105.295 255.976 105.637 255.887C105.722 255.864 105.811 255.853 105.899 255.853C106.159 255.853 106.409 255.951 106.599 256.127L107.334 256.806C107.524 257 107.631 257.261 107.632 257.532V257.89C107.63 258.703 107.949 259.484 108.521 260.063L114.337 265.977L114.342 265.983C114.988 266.629 115.863 266.991 116.776 266.991C117.689 266.991 118.564 266.628 119.21 265.983C119.855 265.337 120.218 264.462 120.218 263.549C120.218 262.636 119.855 261.761 119.21 261.116L110.492 252.398C110.468 252.374 110.449 252.345 110.436 252.314C110.423 252.283 110.416 252.249 110.416 252.215C110.416 252.181 110.423 252.148 110.436 252.116C110.449 252.085 110.468 252.056 110.492 252.032L112.792 249.733C112.888 249.637 113.002 249.56 113.127 249.508C113.253 249.456 113.387 249.43 113.523 249.43H114.056Z" fill="#2160E8"/>
<path d="M104.589 258.088C102.935 258.084 101.349 257.429 100.174 256.263L99.2793 255.368C99.1824 255.272 99.0512 255.217 98.9144 255.217C98.7776 255.217 98.6463 255.272 98.5495 255.368L93.0598 260.829C92.0814 261.808 91.732 263.248 92.2164 264.659C92.2435 264.738 92.2756 264.816 92.3126 264.891C92.9642 266.225 94.2288 267 95.6122 267C96.0879 267.002 96.5592 266.908 96.9986 266.726C97.4381 266.544 97.837 266.276 98.1723 265.939L105.494 258.583C105.524 258.551 105.548 258.513 105.563 258.472C105.577 258.43 105.583 258.386 105.579 258.342V258.325C105.576 258.285 105.565 258.246 105.546 258.21C105.528 258.174 105.502 258.142 105.471 258.117C105.44 258.091 105.404 258.072 105.366 258.06C105.327 258.049 105.286 258.045 105.246 258.05C105.028 258.074 104.809 258.087 104.589 258.088V258.088Z" fill="#2160E8"/>
</svg>
