<?xml version="1.0" encoding="utf-8"?>
<!-- Generator: Adobe Illustrator 26.1.0, SVG Export Plug-In . SVG Version: 6.00 Build 0)  -->
<svg version="1.1" id="Layer_1" xmlns="http://www.w3.org/2000/svg" xmlns:xlink="http://www.w3.org/1999/xlink" x="0px" y="0px"
	 viewBox="0 0 422 418" style="enable-background:new 0 0 422 418;" xml:space="preserve">
<style type="text/css">
	.st0{fill:#BFD2EF;}
	.st1{fill:#5980C2;}
	.st2{fill:#5291E0;}
	.st3{fill:#FFFFFF;}
	.st4{fill:#EFEFEF;}
</style>
<g>
	<path class="st0" d="M29.4,4.7h364.3c13.8,0,25,11.2,25,25v345.6c0,13.8-11.2,25-25,25H29.4c-13.8,0-25-11.2-25-25V29.7
		C4.4,15.9,15.6,4.7,29.4,4.7z"/>
	<path class="st1" d="M20.7,223.5c0.1-0.2,0.1-0.4,0.2-0.7c8.5-7.1,17.1-14.2,25.5-21.4c27.7-23.5,55.3-47.1,82.9-70.7
		c1.9-1.7,2.9-1,4.4,0.4c10.2,10.3,20.4,20.5,30.6,30.7c0.9,0.9,1.5,2.1,2.6,3.6c23.6-25.8,46.4-50.8,69.4-76
		c4.1,3.9,10,9.6,17.2,16.3c98.2,91.5,153.6,123.5,148.3,134.9c-2.8,6.1-23.2,6.9-100.1-16.4c5.2,0.8,10.6,2,10.6,3.4
		c0,2.4-16.2,4.3-21.7,4.9c-56.5,6.5-173.3-7.7-264.3-9C23.7,223.5,21.5,223.5,20.7,223.5z"/>
	<path class="st2" d="M393.6,414.3H29.4c-13.8,0-25-11.2-25-25V215.4h414.3v173.9C418.6,403.1,407.4,414.3,393.6,414.3z"/>
	<g>
		<path class="st3" d="M74,346.5l11.4-13.7c4.8,6.5,10.2,9.8,16.5,9.8c8.3,0,12.6-5,12.6-14.7v-42.3H83.3v-16.5H135v57.6
			c0,22-11,32.8-32,32.8C91,359.4,80.5,354.8,74,346.5z"/>
		<path class="st3" d="M242.5,301.3c0,19.8-14.9,32.1-38.6,32.1H186v24.5h-20.6V269h38.5C227.6,269,242.5,281.3,242.5,301.3z
			 M221.7,301.3c0-9.8-6.3-15.5-18.9-15.5H186v30.9h16.8C215.3,316.6,221.7,310.9,221.7,301.3z"/>
		<path class="st3" d="M328.6,312h18.8v36.1c-9.8,7.4-23.2,11.3-35.9,11.3c-27.9,0-48.5-19.2-48.5-46s20.6-46,48.9-46
			c15.6,0,28.6,5.3,37.2,15.4L335.9,295c-6.5-6.9-14-10-23-10c-17.3,0-29.1,11.6-29.1,28.4c0,16.6,11.8,28.4,28.8,28.4
			c5.6,0,10.8-1,16-3.8L328.6,312L328.6,312z"/>
	</g>
	<path class="st4" d="M361,65.4c-0.6,13.2-10.2,22.5-22.6,22.4c-13.3-0.1-22.5-10.1-22.5-22.4c0-13.1,9.9-22.7,22.6-22.5
		C351.7,43,360.5,52.7,361,65.4z"/>
</g>
</svg>
