<svg viewBox="0 0 363 316" fill="none" xmlns="http://www.w3.org/2000/svg">
<rect width="363" height="309" rx="35" fill="#E9EFFD"/>
<path d="M42 0H322V309H42V0Z" fill="#2160E8"/>
<path d="M53 0H311V309H53V0Z" fill="white"/>
<g filter="url(#filter0_d_189_314)">
<rect x="65" y="226" width="170" height="60" rx="20" fill="#2160E8"/>
</g>
<path d="M122.404 254.324C122.404 254.996 122.242 255.626 121.918 256.214C121.606 256.802 121.108 257.276 120.424 257.636C119.752 257.996 118.9 258.176 117.868 258.176H115.762V263H113.242V250.436H117.868C118.84 250.436 119.668 250.604 120.352 250.94C121.036 251.276 121.546 251.738 121.882 252.326C122.23 252.914 122.404 253.58 122.404 254.324ZM117.76 256.142C118.456 256.142 118.972 255.986 119.308 255.674C119.644 255.35 119.812 254.9 119.812 254.324C119.812 253.1 119.128 252.488 117.76 252.488H115.762V256.142H117.76ZM126.893 254.576C127.217 254.048 127.637 253.634 128.153 253.334C128.681 253.034 129.281 252.884 129.953 252.884V255.53H129.287C128.495 255.53 127.895 255.716 127.487 256.088C127.091 256.46 126.893 257.108 126.893 258.032V263H124.373V253.028H126.893V254.576ZM136.259 263.162C135.299 263.162 134.435 262.952 133.667 262.532C132.899 262.1 132.293 261.494 131.849 260.714C131.417 259.934 131.201 259.034 131.201 258.014C131.201 256.994 131.423 256.094 131.867 255.314C132.323 254.534 132.941 253.934 133.721 253.514C134.501 253.082 135.371 252.866 136.331 252.866C137.291 252.866 138.161 253.082 138.941 253.514C139.721 253.934 140.333 254.534 140.777 255.314C141.233 256.094 141.461 256.994 141.461 258.014C141.461 259.034 141.227 259.934 140.759 260.714C140.303 261.494 139.679 262.1 138.887 262.532C138.107 262.952 137.231 263.162 136.259 263.162ZM136.259 260.966C136.715 260.966 137.141 260.858 137.537 260.642C137.945 260.414 138.269 260.078 138.509 259.634C138.749 259.19 138.869 258.65 138.869 258.014C138.869 257.066 138.617 256.34 138.113 255.836C137.621 255.32 137.015 255.062 136.295 255.062C135.575 255.062 134.969 255.32 134.477 255.836C133.997 256.34 133.757 257.066 133.757 258.014C133.757 258.962 133.991 259.694 134.459 260.21C134.939 260.714 135.539 260.966 136.259 260.966ZM138.401 250.31L134.261 252.2V250.4L138.401 248.258V250.31ZM148.997 263L146.945 259.904L145.127 263H142.427L145.685 257.996L142.391 253.028H145.235L147.269 256.106L149.105 253.028H151.805L148.529 257.996L151.841 263H148.997ZM154.668 251.84C154.224 251.84 153.852 251.702 153.552 251.426C153.264 251.138 153.12 250.784 153.12 250.364C153.12 249.944 153.264 249.596 153.552 249.32C153.852 249.032 154.224 248.888 154.668 248.888C155.112 248.888 155.478 249.032 155.766 249.32C156.066 249.596 156.216 249.944 156.216 250.364C156.216 250.784 156.066 251.138 155.766 251.426C155.478 251.702 155.112 251.84 154.668 251.84ZM155.91 253.028V263H153.39V253.028H155.91ZM170.964 252.884C172.188 252.884 173.172 253.262 173.916 254.018C174.672 254.762 175.05 255.806 175.05 257.15V263H172.53V257.492C172.53 256.712 172.332 256.118 171.936 255.71C171.54 255.29 171 255.08 170.316 255.08C169.632 255.08 169.086 255.29 168.678 255.71C168.282 256.118 168.084 256.712 168.084 257.492V263H165.564V257.492C165.564 256.712 165.366 256.118 164.97 255.71C164.574 255.29 164.034 255.08 163.35 255.08C162.654 255.08 162.102 255.29 161.694 255.71C161.298 256.118 161.1 256.712 161.1 257.492V263H158.58V253.028H161.1V254.234C161.424 253.814 161.838 253.484 162.342 253.244C162.858 253.004 163.422 252.884 164.034 252.884C164.814 252.884 165.51 253.052 166.122 253.388C166.734 253.712 167.208 254.18 167.544 254.792C167.868 254.216 168.336 253.754 168.948 253.406C169.572 253.058 170.244 252.884 170.964 252.884ZM182.049 263.162C181.089 263.162 180.225 262.952 179.457 262.532C178.689 262.1 178.083 261.494 177.639 260.714C177.207 259.934 176.991 259.034 176.991 258.014C176.991 256.994 177.213 256.094 177.657 255.314C178.113 254.534 178.731 253.934 179.511 253.514C180.291 253.082 181.161 252.866 182.121 252.866C183.081 252.866 183.951 253.082 184.731 253.514C185.511 253.934 186.123 254.534 186.567 255.314C187.023 256.094 187.251 256.994 187.251 258.014C187.251 259.034 187.017 259.934 186.549 260.714C186.093 261.494 185.469 262.1 184.677 262.532C183.897 262.952 183.021 263.162 182.049 263.162ZM182.049 260.966C182.505 260.966 182.931 260.858 183.327 260.642C183.735 260.414 184.059 260.078 184.299 259.634C184.539 259.19 184.659 258.65 184.659 258.014C184.659 257.066 184.407 256.34 183.903 255.836C183.411 255.32 182.805 255.062 182.085 255.062C181.365 255.062 180.759 255.32 180.267 255.836C179.787 256.34 179.547 257.066 179.547 258.014C179.547 258.962 179.781 259.694 180.249 260.21C180.729 260.714 181.329 260.966 182.049 260.966Z" fill="white"/>
<rect x="65" y="30" width="234" height="60" rx="16" fill="#EAF0F7"/>
<rect x="65" y="134" width="234" height="60" rx="16" fill="#EAF0F7"/>
<path d="M89.896 58.672H88.264V66H86.424V58.672H85.384V57.184H86.424V56.56C86.424 55.5467 86.6907 54.8107 87.224 54.352C87.768 53.8827 88.616 53.648 89.768 53.648V55.168C89.2133 55.168 88.824 55.2747 88.6 55.488C88.376 55.6907 88.264 56.048 88.264 56.56V57.184H89.896V58.672ZM99.8165 57.184V66H97.9925V64.96C97.7045 65.3227 97.3258 65.6107 96.8565 65.824C96.3978 66.0267 95.9072 66.128 95.3845 66.128C94.6912 66.128 94.0672 65.984 93.5125 65.696C92.9685 65.408 92.5365 64.9813 92.2165 64.416C91.9072 63.8507 91.7525 63.168 91.7525 62.368V57.184H93.5605V62.096C93.5605 62.8853 93.7578 63.4933 94.1525 63.92C94.5472 64.336 95.0858 64.544 95.7685 64.544C96.4512 64.544 96.9898 64.336 97.3845 63.92C97.7898 63.4933 97.9925 62.8853 97.9925 62.096V57.184H99.8165ZM104.367 54.16V66H102.543V54.16H104.367ZM106.474 61.552C106.474 60.6667 106.655 59.8827 107.018 59.2C107.391 58.5173 107.893 57.9893 108.522 57.616C109.162 57.232 109.866 57.04 110.634 57.04C111.327 57.04 111.93 57.1787 112.442 57.456C112.965 57.7227 113.381 58.0587 113.69 58.464V57.184H115.53V66H113.69V64.688C113.381 65.104 112.959 65.4507 112.426 65.728C111.893 66.0053 111.285 66.144 110.602 66.144C109.845 66.144 109.151 65.952 108.522 65.568C107.893 65.1733 107.391 64.6293 107.018 63.936C106.655 63.232 106.474 62.4373 106.474 61.552ZM113.69 61.584C113.69 60.976 113.562 60.448 113.306 60C113.061 59.552 112.735 59.2107 112.33 58.976C111.925 58.7413 111.487 58.624 111.018 58.624C110.549 58.624 110.111 58.7413 109.706 58.976C109.301 59.2 108.97 59.536 108.714 59.984C108.469 60.4213 108.346 60.944 108.346 61.552C108.346 62.16 108.469 62.6933 108.714 63.152C108.97 63.6107 109.301 63.9627 109.706 64.208C110.122 64.4427 110.559 64.56 111.018 64.56C111.487 64.56 111.925 64.4427 112.33 64.208C112.735 63.9733 113.061 63.632 113.306 63.184C113.562 62.7253 113.69 62.192 113.69 61.584ZM122.694 57.04C123.387 57.04 124.006 57.184 124.55 57.472C125.104 57.76 125.536 58.1867 125.846 58.752C126.155 59.3173 126.31 60 126.31 60.8V66H124.502V61.072C124.502 60.2827 124.304 59.68 123.91 59.264C123.515 58.8373 122.976 58.624 122.294 58.624C121.611 58.624 121.067 58.8373 120.662 59.264C120.267 59.68 120.07 60.2827 120.07 61.072V66H118.246V57.184H120.07V58.192C120.368 57.8293 120.747 57.5467 121.206 57.344C121.675 57.1413 122.171 57.04 122.694 57.04ZM132.78 66.144C131.948 66.144 131.196 65.9573 130.524 65.584C129.852 65.2 129.324 64.6667 128.94 63.984C128.556 63.2907 128.364 62.4907 128.364 61.584C128.364 60.688 128.562 59.8933 128.956 59.2C129.351 58.5067 129.89 57.9733 130.572 57.6C131.255 57.2267 132.018 57.04 132.86 57.04C133.703 57.04 134.466 57.2267 135.148 57.6C135.831 57.9733 136.37 58.5067 136.764 59.2C137.159 59.8933 137.356 60.688 137.356 61.584C137.356 62.48 137.154 63.2747 136.748 63.968C136.343 64.6613 135.788 65.2 135.084 65.584C134.391 65.9573 133.623 66.144 132.78 66.144ZM132.78 64.56C133.25 64.56 133.687 64.448 134.092 64.224C134.508 64 134.844 63.664 135.1 63.216C135.356 62.768 135.484 62.224 135.484 61.584C135.484 60.944 135.362 60.4053 135.116 59.968C134.871 59.52 134.546 59.184 134.14 58.96C133.735 58.736 133.298 58.624 132.828 58.624C132.359 58.624 131.922 58.736 131.516 58.96C131.122 59.184 130.807 59.52 130.572 59.968C130.338 60.4053 130.22 60.944 130.22 61.584C130.22 62.5333 130.46 63.2693 130.94 63.792C131.431 64.304 132.044 64.56 132.78 64.56ZM147.687 55.664C148.903 55.664 149.954 55.888 150.839 56.336C151.725 56.784 152.397 57.4133 152.855 58.224C153.325 59.024 153.559 59.9573 153.559 61.024C153.559 61.8773 153.41 62.6933 153.111 63.472C152.823 64.2507 152.402 64.8853 151.847 65.376C151.303 65.8667 150.658 66.112 149.911 66.112C149.367 66.112 148.941 65.9947 148.631 65.76C148.322 65.5147 148.13 65.1733 148.055 64.736C147.725 65.1627 147.309 65.4987 146.807 65.744C146.306 65.9893 145.783 66.112 145.239 66.112C144.418 66.112 143.773 65.8667 143.303 65.376C142.845 64.8747 142.615 64.1973 142.615 63.344C142.615 62.5333 142.781 61.776 143.111 61.072C143.453 60.368 143.927 59.808 144.535 59.392C145.143 58.9653 145.826 58.752 146.583 58.752C147.511 58.752 148.162 59.0667 148.535 59.696L148.679 58.896H150.263L149.463 63.472C149.431 63.696 149.415 63.8933 149.415 64.064C149.415 64.3413 149.469 64.5493 149.575 64.688C149.693 64.8267 149.895 64.896 150.183 64.896C150.589 64.896 150.935 64.6987 151.223 64.304C151.511 63.8987 151.725 63.4027 151.863 62.816C152.013 62.2293 152.087 61.6587 152.087 61.104C152.087 59.7493 151.693 58.7147 150.903 58C150.114 57.2853 148.967 56.928 147.463 56.928C146.205 56.928 145.074 57.2267 144.071 57.824C143.079 58.4213 142.301 59.2427 141.735 60.288C141.17 61.3333 140.887 62.496 140.887 63.776C140.887 65.1413 141.293 66.1813 142.103 66.896C142.914 67.6107 144.071 67.968 145.575 67.968C146.589 67.968 147.474 67.7813 148.231 67.408L148.471 68.624C147.501 69.04 146.413 69.248 145.207 69.248C144.045 69.248 143.026 69.0293 142.151 68.592C141.277 68.1547 140.599 67.5307 140.119 66.72C139.639 65.92 139.399 64.9867 139.399 63.92C139.399 62.3947 139.751 61.0027 140.455 59.744C141.17 58.4853 142.157 57.4933 143.415 56.768C144.674 56.032 146.098 55.664 147.687 55.664ZM145.799 64.704C146.247 64.704 146.653 64.576 147.015 64.32C147.389 64.0533 147.682 63.7067 147.895 63.28C148.109 62.8427 148.215 62.3787 148.215 61.888C148.215 61.376 148.071 60.96 147.783 60.64C147.506 60.3093 147.111 60.144 146.599 60.144C146.141 60.144 145.735 60.288 145.383 60.576C145.042 60.8533 144.775 61.216 144.583 61.664C144.402 62.112 144.311 62.5813 144.311 63.072C144.311 63.5733 144.434 63.9733 144.679 64.272C144.925 64.56 145.298 64.704 145.799 64.704ZM164.286 61.376C164.286 61.7067 164.264 62.0053 164.222 62.272H157.486C157.539 62.976 157.8 63.5413 158.27 63.968C158.739 64.3947 159.315 64.608 159.998 64.608C160.979 64.608 161.672 64.1973 162.078 63.376H164.046C163.779 64.1867 163.294 64.8533 162.59 65.376C161.896 65.888 161.032 66.144 159.998 66.144C159.155 66.144 158.398 65.9573 157.726 65.584C157.064 65.2 156.542 64.6667 156.158 63.984C155.784 63.2907 155.598 62.4907 155.598 61.584C155.598 60.6773 155.779 59.8827 156.142 59.2C156.515 58.5067 157.032 57.9733 157.694 57.6C158.366 57.2267 159.134 57.04 159.998 57.04C160.83 57.04 161.571 57.2213 162.222 57.584C162.872 57.9467 163.379 58.4587 163.742 59.12C164.104 59.7707 164.286 60.5227 164.286 61.376ZM162.382 60.8C162.371 60.128 162.131 59.5893 161.662 59.184C161.192 58.7787 160.611 58.576 159.918 58.576C159.288 58.576 158.75 58.7787 158.302 59.184C157.854 59.5787 157.587 60.1173 157.502 60.8H162.382ZM177.073 57.04C177.766 57.04 178.385 57.184 178.929 57.472C179.483 57.76 179.915 58.1867 180.225 58.752C180.545 59.3173 180.705 60 180.705 60.8V66H178.897V61.072C178.897 60.2827 178.699 59.68 178.305 59.264C177.91 58.8373 177.371 58.624 176.689 58.624C176.006 58.624 175.462 58.8373 175.057 59.264C174.662 59.68 174.465 60.2827 174.465 61.072V66H172.657V61.072C172.657 60.2827 172.459 59.68 172.065 59.264C171.67 58.8373 171.131 58.624 170.449 58.624C169.766 58.624 169.222 58.8373 168.817 59.264C168.422 59.68 168.225 60.2827 168.225 61.072V66H166.401V57.184H168.225V58.192C168.523 57.8293 168.902 57.5467 169.361 57.344C169.819 57.1413 170.31 57.04 170.833 57.04C171.537 57.04 172.166 57.1893 172.721 57.488C173.275 57.7867 173.702 58.2187 174.001 58.784C174.267 58.2507 174.683 57.8293 175.249 57.52C175.814 57.2 176.422 57.04 177.073 57.04ZM182.738 61.552C182.738 60.6667 182.919 59.8827 183.282 59.2C183.655 58.5173 184.156 57.9893 184.786 57.616C185.426 57.232 186.13 57.04 186.898 57.04C187.591 57.04 188.194 57.1787 188.706 57.456C189.228 57.7227 189.644 58.0587 189.954 58.464V57.184H191.794V66H189.954V64.688C189.644 65.104 189.223 65.4507 188.69 65.728C188.156 66.0053 187.548 66.144 186.866 66.144C186.108 66.144 185.415 65.952 184.786 65.568C184.156 65.1733 183.655 64.6293 183.282 63.936C182.919 63.232 182.738 62.4373 182.738 61.552ZM189.954 61.584C189.954 60.976 189.826 60.448 189.57 60C189.324 59.552 188.999 59.2107 188.594 58.976C188.188 58.7413 187.751 58.624 187.282 58.624C186.812 58.624 186.375 58.7413 185.97 58.976C185.564 59.2 185.234 59.536 184.978 59.984C184.732 60.4213 184.61 60.944 184.61 61.552C184.61 62.16 184.732 62.6933 184.978 63.152C185.234 63.6107 185.564 63.9627 185.97 64.208C186.386 64.4427 186.823 64.56 187.282 64.56C187.751 64.56 188.188 64.4427 188.594 64.208C188.999 63.9733 189.324 63.632 189.57 63.184C189.826 62.7253 189.954 62.192 189.954 61.584ZM195.437 56.016C195.107 56.016 194.829 55.904 194.605 55.68C194.381 55.456 194.269 55.1787 194.269 54.848C194.269 54.5173 194.381 54.24 194.605 54.016C194.829 53.792 195.107 53.68 195.437 53.68C195.757 53.68 196.029 53.792 196.253 54.016C196.477 54.24 196.589 54.5173 196.589 54.848C196.589 55.1787 196.477 55.456 196.253 55.68C196.029 55.904 195.757 56.016 195.437 56.016ZM196.333 57.184V66H194.509V57.184H196.333ZM200.872 54.16V66H199.048V54.16H200.872ZM204.323 66.112C203.992 66.112 203.715 66 203.491 65.776C203.267 65.552 203.155 65.2747 203.155 64.944C203.155 64.6133 203.267 64.336 203.491 64.112C203.715 63.888 203.992 63.776 204.323 63.776C204.643 63.776 204.915 63.888 205.139 64.112C205.363 64.336 205.475 64.6133 205.475 64.944C205.475 65.2747 205.363 65.552 205.139 65.776C204.915 66 204.643 66.112 204.323 66.112ZM207.158 61.584C207.158 60.6773 207.34 59.8827 207.702 59.2C208.076 58.5067 208.588 57.9733 209.238 57.6C209.889 57.2267 210.636 57.04 211.478 57.04C212.545 57.04 213.425 57.296 214.118 57.808C214.822 58.3093 215.297 59.0293 215.542 59.968H213.574C213.414 59.5307 213.158 59.1893 212.806 58.944C212.454 58.6987 212.012 58.576 211.478 58.576C210.732 58.576 210.134 58.8427 209.686 59.376C209.249 59.8987 209.03 60.6347 209.03 61.584C209.03 62.5333 209.249 63.2747 209.686 63.808C210.134 64.3413 210.732 64.608 211.478 64.608C212.534 64.608 213.233 64.144 213.574 63.216H215.542C215.286 64.112 214.806 64.8267 214.102 65.36C213.398 65.8827 212.524 66.144 211.478 66.144C210.636 66.144 209.889 65.9573 209.238 65.584C208.588 65.2 208.076 64.6667 207.702 63.984C207.34 63.2907 207.158 62.4907 207.158 61.584ZM221.504 66.144C220.672 66.144 219.92 65.9573 219.248 65.584C218.576 65.2 218.048 64.6667 217.664 63.984C217.28 63.2907 217.088 62.4907 217.088 61.584C217.088 60.688 217.285 59.8933 217.68 59.2C218.075 58.5067 218.613 57.9733 219.296 57.6C219.979 57.2267 220.741 57.04 221.584 57.04C222.427 57.04 223.189 57.2267 223.872 57.6C224.555 57.9733 225.093 58.5067 225.488 59.2C225.883 59.8933 226.08 60.688 226.08 61.584C226.08 62.48 225.877 63.2747 225.472 63.968C225.067 64.6613 224.512 65.2 223.808 65.584C223.115 65.9573 222.347 66.144 221.504 66.144ZM221.504 64.56C221.973 64.56 222.411 64.448 222.816 64.224C223.232 64 223.568 63.664 223.824 63.216C224.08 62.768 224.208 62.224 224.208 61.584C224.208 60.944 224.085 60.4053 223.84 59.968C223.595 59.52 223.269 59.184 222.864 58.96C222.459 58.736 222.021 58.624 221.552 58.624C221.083 58.624 220.645 58.736 220.24 58.96C219.845 59.184 219.531 59.52 219.296 59.968C219.061 60.4053 218.944 60.944 218.944 61.584C218.944 62.5333 219.184 63.2693 219.664 63.792C220.155 64.304 220.768 64.56 221.504 64.56ZM238.875 57.04C239.568 57.04 240.187 57.184 240.731 57.472C241.286 57.76 241.718 58.1867 242.027 58.752C242.347 59.3173 242.507 60 242.507 60.8V66H240.699V61.072C240.699 60.2827 240.502 59.68 240.107 59.264C239.712 58.8373 239.174 58.624 238.491 58.624C237.808 58.624 237.264 58.8373 236.859 59.264C236.464 59.68 236.267 60.2827 236.267 61.072V66H234.459V61.072C234.459 60.2827 234.262 59.68 233.867 59.264C233.472 58.8373 232.934 58.624 232.251 58.624C231.568 58.624 231.024 58.8373 230.619 59.264C230.224 59.68 230.027 60.2827 230.027 61.072V66H228.203V57.184H230.027V58.192C230.326 57.8293 230.704 57.5467 231.163 57.344C231.622 57.1413 232.112 57.04 232.635 57.04C233.339 57.04 233.968 57.1893 234.523 57.488C235.078 57.7867 235.504 58.2187 235.803 58.784C236.07 58.2507 236.486 57.8293 237.051 57.52C237.616 57.2 238.224 57.04 238.875 57.04Z" fill="#656464"/>
<path d="M91.272 159.136L91.992 160.416L89.8 161.232L91.992 162.048L91.256 163.36L89.432 161.92L89.768 164.24H88.296L88.6 161.92L86.776 163.392L86.008 162.032L88.184 161.216L86.008 160.432L86.744 159.12L88.616 160.56L88.296 158.224H89.784L89.432 160.56L91.272 159.136ZM99.6545 159.136L100.374 160.416L98.1825 161.232L100.374 162.048L99.6385 163.36L97.8145 161.92L98.1505 164.24H96.6785L96.9825 161.92L95.1585 163.392L94.3905 162.032L96.5665 161.216L94.3905 160.432L95.1265 159.12L96.9985 160.56L96.6785 158.224H98.1665L97.8145 160.56L99.6545 159.136ZM108.037 159.136L108.757 160.416L106.565 161.232L108.757 162.048L108.021 163.36L106.197 161.92L106.533 164.24H105.061L105.365 161.92L103.541 163.392L102.773 162.032L104.949 161.216L102.773 160.432L103.509 159.12L105.381 160.56L105.061 158.224H106.549L106.197 160.56L108.037 159.136ZM116.419 159.136L117.139 160.416L114.947 161.232L117.139 162.048L116.403 163.36L114.579 161.92L114.915 164.24H113.443L113.747 161.92L111.923 163.392L111.155 162.032L113.331 161.216L111.155 160.432L111.891 159.12L113.763 160.56L113.443 158.224H114.931L114.579 160.56L116.419 159.136ZM124.802 159.136L125.522 160.416L123.33 161.232L125.522 162.048L124.786 163.36L122.962 161.92L123.298 164.24H121.826L122.13 161.92L120.306 163.392L119.538 162.032L121.714 161.216L119.538 160.432L120.274 159.12L122.146 160.56L121.826 158.224H123.314L122.962 160.56L124.802 159.136ZM133.184 159.136L133.904 160.416L131.712 161.232L133.904 162.048L133.168 163.36L131.344 161.92L131.68 164.24H130.208L130.512 161.92L128.688 163.392L127.92 162.032L130.096 161.216L127.92 160.432L128.656 159.12L130.528 160.56L130.208 158.224H131.696L131.344 160.56L133.184 159.136ZM141.567 159.136L142.287 160.416L140.095 161.232L142.287 162.048L141.551 163.36L139.727 161.92L140.063 164.24H138.591L138.895 161.92L137.071 163.392L136.303 162.032L138.479 161.216L136.303 160.432L137.039 159.12L138.911 160.56L138.591 158.224H140.079L139.727 160.56L141.567 159.136ZM149.95 159.136L150.67 160.416L148.478 161.232L150.67 162.048L149.934 163.36L148.11 161.92L148.446 164.24H146.974L147.278 161.92L145.454 163.392L144.686 162.032L146.862 161.216L144.686 160.432L145.422 159.12L147.294 160.56L146.974 158.224H148.462L148.11 160.56L149.95 159.136Z" fill="#656464"/>
<path d="M68.344 9.64V12.44H72.104V14.216H68.344V17.176H72.584V19H66.104V7.816H72.584V9.64H68.344ZM81.4356 12.344V14.232H74.6516V12.344H81.4356ZM94.9558 10.008C96.0438 10.008 96.9184 10.344 97.5798 11.016C98.2518 11.6773 98.5878 12.6053 98.5878 13.8V19H96.3478V14.104C96.3478 13.4107 96.1718 12.8827 95.8198 12.52C95.4678 12.1467 94.9878 11.96 94.3798 11.96C93.7718 11.96 93.2864 12.1467 92.9238 12.52C92.5718 12.8827 92.3958 13.4107 92.3958 14.104V19H90.1558V14.104C90.1558 13.4107 89.9798 12.8827 89.6278 12.52C89.2758 12.1467 88.7958 11.96 88.1878 11.96C87.5691 11.96 87.0784 12.1467 86.7158 12.52C86.3638 12.8827 86.1878 13.4107 86.1878 14.104V19H83.9478V10.136H86.1878V11.208C86.4758 10.8347 86.8438 10.5413 87.2918 10.328C87.7504 10.1147 88.2518 10.008 88.7958 10.008C89.4891 10.008 90.1078 10.1573 90.6518 10.456C91.1958 10.744 91.6171 11.16 91.9158 11.704C92.2038 11.192 92.6198 10.7813 93.1638 10.472C93.7184 10.1627 94.3158 10.008 94.9558 10.008ZM100.137 14.536C100.137 13.64 100.313 12.8453 100.665 12.152C101.028 11.4587 101.513 10.9253 102.121 10.552C102.74 10.1787 103.428 9.992 104.185 9.992C104.847 9.992 105.423 10.1253 105.913 10.392C106.415 10.6587 106.815 10.9947 107.113 11.4V10.136H109.369V19H107.113V17.704C106.825 18.12 106.425 18.4667 105.913 18.744C105.412 19.0107 104.831 19.144 104.169 19.144C103.423 19.144 102.74 18.952 102.121 18.568C101.513 18.184 101.028 17.6453 100.665 16.952C100.313 16.248 100.137 15.4427 100.137 14.536ZM107.113 14.568C107.113 14.024 107.007 13.56 106.793 13.176C106.58 12.7813 106.292 12.4827 105.929 12.28C105.567 12.0667 105.177 11.96 104.761 11.96C104.345 11.96 103.961 12.0613 103.609 12.264C103.257 12.4667 102.969 12.7653 102.745 13.16C102.532 13.544 102.425 14.0027 102.425 14.536C102.425 15.0693 102.532 15.5387 102.745 15.944C102.969 16.3387 103.257 16.6427 103.609 16.856C103.972 17.0693 104.356 17.176 104.761 17.176C105.177 17.176 105.567 17.0747 105.929 16.872C106.292 16.6587 106.58 16.36 106.793 15.976C107.007 15.5813 107.113 15.112 107.113 14.568ZM112.693 9.08C112.298 9.08 111.968 8.95733 111.701 8.712C111.445 8.456 111.317 8.14133 111.317 7.768C111.317 7.39467 111.445 7.08533 111.701 6.84C111.968 6.584 112.298 6.456 112.693 6.456C113.088 6.456 113.413 6.584 113.669 6.84C113.936 7.08533 114.069 7.39467 114.069 7.768C114.069 8.14133 113.936 8.456 113.669 8.712C113.413 8.95733 113.088 9.08 112.693 9.08ZM113.797 10.136V19H111.557V10.136H113.797ZM118.25 7.16V19H116.01V7.16H118.25Z" fill="#090929"/>
<path d="M69.96 123.112C69.1813 123.112 68.4773 122.979 67.848 122.712C67.2293 122.445 66.7387 122.061 66.376 121.56C66.0133 121.059 65.8267 120.467 65.816 119.784H68.216C68.248 120.243 68.408 120.605 68.696 120.872C68.9947 121.139 69.4 121.272 69.912 121.272C70.4347 121.272 70.8453 121.149 71.144 120.904C71.4427 120.648 71.592 120.317 71.592 119.912C71.592 119.581 71.4907 119.309 71.288 119.096C71.0853 118.883 70.8293 118.717 70.52 118.6C70.2213 118.472 69.8053 118.333 69.272 118.184C68.5467 117.971 67.9547 117.763 67.496 117.56C67.048 117.347 66.6587 117.032 66.328 116.616C66.008 116.189 65.848 115.624 65.848 114.92C65.848 114.259 66.0133 113.683 66.344 113.192C66.6747 112.701 67.1387 112.328 67.736 112.072C68.3333 111.805 69.016 111.672 69.784 111.672C70.936 111.672 71.8693 111.955 72.584 112.52C73.3093 113.075 73.7093 113.853 73.784 114.856H71.32C71.2987 114.472 71.1333 114.157 70.824 113.912C70.5253 113.656 70.1253 113.528 69.624 113.528C69.1867 113.528 68.8347 113.64 68.568 113.864C68.312 114.088 68.184 114.413 68.184 114.84C68.184 115.139 68.28 115.389 68.472 115.592C68.6747 115.784 68.92 115.944 69.208 116.072C69.5067 116.189 69.9227 116.328 70.456 116.488C71.1813 116.701 71.7733 116.915 72.232 117.128C72.6907 117.341 73.0853 117.661 73.416 118.088C73.7467 118.515 73.912 119.075 73.912 119.768C73.912 120.365 73.7573 120.92 73.448 121.432C73.1387 121.944 72.6853 122.355 72.088 122.664C71.4907 122.963 70.7813 123.112 69.96 123.112ZM84.094 118.376C84.094 118.696 84.0727 118.984 84.03 119.24H77.55C77.6033 119.88 77.8273 120.381 78.222 120.744C78.6167 121.107 79.102 121.288 79.678 121.288C80.51 121.288 81.102 120.931 81.454 120.216H83.87C83.614 121.069 83.1233 121.773 82.398 122.328C81.6727 122.872 80.782 123.144 79.726 123.144C78.8727 123.144 78.1047 122.957 77.422 122.584C76.75 122.2 76.222 121.661 75.838 120.968C75.4647 120.275 75.278 119.475 75.278 118.568C75.278 117.651 75.4647 116.845 75.838 116.152C76.2113 115.459 76.734 114.925 77.406 114.552C78.078 114.179 78.8513 113.992 79.726 113.992C80.5687 113.992 81.3207 114.173 81.982 114.536C82.654 114.899 83.1713 115.416 83.534 116.088C83.9073 116.749 84.094 117.512 84.094 118.376ZM81.774 117.736C81.7633 117.16 81.5553 116.701 81.15 116.36C80.7447 116.008 80.2487 115.832 79.662 115.832C79.1073 115.832 78.638 116.003 78.254 116.344C77.8807 116.675 77.6513 117.139 77.566 117.736H81.774ZM90.641 114.008C91.697 114.008 92.5503 114.344 93.201 115.016C93.8517 115.677 94.177 116.605 94.177 117.8V123H91.937V118.104C91.937 117.4 91.761 116.861 91.409 116.488C91.057 116.104 90.577 115.912 89.969 115.912C89.3503 115.912 88.8597 116.104 88.497 116.488C88.145 116.861 87.969 117.4 87.969 118.104V123H85.729V114.136H87.969V115.24C88.2677 114.856 88.6463 114.557 89.105 114.344C89.5743 114.12 90.0863 114.008 90.641 114.008ZM101.299 114.008C101.971 114.008 102.568 114.157 103.091 114.456C103.614 114.744 104.019 115.176 104.307 115.752C104.606 116.317 104.755 117 104.755 117.8V123H102.515V118.104C102.515 117.4 102.339 116.861 101.987 116.488C101.635 116.104 101.155 115.912 100.547 115.912C99.9285 115.912 99.4378 116.104 99.0751 116.488C98.7231 116.861 98.5471 117.4 98.5471 118.104V123H96.3071V111.16H98.5471V115.24C98.8351 114.856 99.2191 114.557 99.6991 114.344C100.179 114.12 100.712 114.008 101.299 114.008ZM106.309 118.536C106.309 117.64 106.485 116.845 106.837 116.152C107.2 115.459 107.685 114.925 108.293 114.552C108.912 114.179 109.6 113.992 110.357 113.992C111.019 113.992 111.595 114.125 112.085 114.392C112.587 114.659 112.987 114.995 113.285 115.4V114.136H115.541V123H113.285V121.704C112.997 122.12 112.597 122.467 112.085 122.744C111.584 123.011 111.003 123.144 110.341 123.144C109.595 123.144 108.912 122.952 108.293 122.568C107.685 122.184 107.2 121.645 106.837 120.952C106.485 120.248 106.309 119.443 106.309 118.536ZM113.285 118.568C113.285 118.024 113.179 117.56 112.965 117.176C112.752 116.781 112.464 116.483 112.101 116.28C111.739 116.067 111.349 115.96 110.933 115.96C110.517 115.96 110.133 116.061 109.781 116.264C109.429 116.467 109.141 116.765 108.917 117.16C108.704 117.544 108.597 118.003 108.597 118.536C108.597 119.069 108.704 119.539 108.917 119.944C109.141 120.339 109.429 120.643 109.781 120.856C110.144 121.069 110.528 121.176 110.933 121.176C111.349 121.176 111.739 121.075 112.101 120.872C112.464 120.659 112.752 120.36 112.965 119.976C113.179 119.581 113.285 119.112 113.285 118.568Z" fill="#090929"/>
<defs>
<filter id="filter0_d_189_314" x="45" y="216" width="210" height="100" filterUnits="userSpaceOnUse" color-interpolation-filters="sRGB">
<feFlood flood-opacity="0" result="BackgroundImageFix"/>
<feColorMatrix in="SourceAlpha" type="matrix" values="0 0 0 0 0 0 0 0 0 0 0 0 0 0 0 0 0 0 127 0" result="hardAlpha"/>
<feMorphology radius="2" operator="erode" in="SourceAlpha" result="effect1_dropShadow_189_314"/>
<feOffset dy="10"/>
<feGaussianBlur stdDeviation="11"/>
<feComposite in2="hardAlpha" operator="out"/>
<feColorMatrix type="matrix" values="0 0 0 0 0.129412 0 0 0 0 0.37647 0 0 0 0 0.909804 0 0 0 0.3 0"/>
<feBlend mode="normal" in2="BackgroundImageFix" result="effect1_dropShadow_189_314"/>
<feBlend mode="normal" in="SourceGraphic" in2="effect1_dropShadow_189_314" result="shape"/>
</filter>
</defs>
</svg>
