<?xml version="1.0" standalone="no"?>
<!DOCTYPE svg PUBLIC "-//W3C//DTD SVG 20010904//EN"
 "http://www.w3.org/TR/2001/REC-SVG-20010904/DTD/svg10.dtd">
<svg version="1.0" xmlns="http://www.w3.org/2000/svg"
 width="660.000000pt" height="660.000000pt" viewBox="0 0 660.000000 660.000000"
 preserveAspectRatio="xMidYMid meet">
<metadata>
Created by potrace 1.14, written by Peter Selinger 2001-2017
</metadata>
<g transform="translate(0.000000,660.000000) scale(0.100000,-0.100000)"
fill="#000000" stroke="none">
<path d="M3129 6596 c-2 -2 -29 -6 -59 -10 -229 -24 -427 -79 -601 -166 -248
-124 -281 -147 -284 -205 -2 -29 4 -43 31 -72 30 -32 38 -35 71 -30 21 3 85
32 143 64 57 32 107 58 110 59 3 0 28 11 55 24 110 50 320 112 425 125 14 2
48 6 75 10 70 10 281 12 335 4 25 -4 70 -10 100 -13 73 -9 104 -14 175 -33 33
-8 67 -16 75 -18 58 -12 264 -96 349 -142 70 -39 230 -148 280 -190 127 -109
250 -245 326 -358 22 -33 42 -62 45 -65 23 -23 133 -249 164 -337 39 -109 84
-282 91 -348 19 -180 22 -273 11 -395 -30 -351 -190 -662 -446 -869 -25 -20
-47 -39 -50 -42 -12 -13 -175 -109 -186 -109 -7 0 -14 -4 -16 -8 -4 -10 -189
-83 -293 -116 -137 -43 -309 -82 -404 -92 -19 -2 -50 -6 -70 -9 -20 -4 -87 -8
-150 -10 -62 -2 -116 -6 -118 -9 -2 -2 -17 -1 -31 3 -15 4 -39 4 -54 0 -15 -4
-29 -4 -32 -1 -3 3 -27 6 -53 7 -58 3 -176 15 -206 21 -12 3 -35 7 -52 9 -64
7 -192 36 -295 65 -41 11 -85 23 -97 25 -12 3 -35 10 -50 17 -16 6 -30 12 -33
13 -71 19 -227 93 -320 153 -208 134 -375 343 -470 587 -34 90 -67 209 -75
276 -3 24 -7 55 -10 69 -12 59 -6 302 10 390 3 14 7 41 10 60 3 19 13 64 21
100 9 36 17 74 20 84 4 24 42 140 57 181 25 65 123 253 162 310 45 67 46 68
108 146 55 69 78 112 81 153 8 81 -66 122 -140 77 -35 -21 -130 -140 -217
-270 -49 -73 -131 -229 -180 -341 -34 -77 -86 -256 -103 -350 -3 -19 -7 -42
-9 -50 -13 -65 -22 -178 -24 -310 -1 -93 -3 -103 -16 -86 -7 10 -29 35 -47 55
-18 20 -60 67 -93 106 -113 131 -166 173 -265 208 -133 46 -301 1 -408 -111
-41 -42 -102 -155 -138 -254 -22 -59 -64 -198 -69 -228 -3 -14 -7 -36 -10 -50
-3 -14 -8 -36 -11 -50 -2 -14 -6 -35 -9 -47 -7 -32 -19 -133 -20 -165 0 -16
-2 -28 -5 -28 -7 0 -3 -365 4 -410 3 -19 8 -55 11 -80 31 -267 172 -629 353
-906 160 -244 294 -385 454 -479 35 -21 68 -38 73 -40 9 -2 36 -13 120 -50 51
-22 158 -48 295 -70 93 -15 274 -7 399 19 l62 13 25 -48 c13 -27 24 -51 25
-54 2 -29 217 -458 315 -628 19 -32 34 -60 34 -61 0 -5 177 -309 187 -321 5
-5 21 -32 36 -58 46 -78 209 -322 218 -325 5 -2 9 -8 9 -14 0 -5 9 -22 21 -36
11 -15 40 -54 65 -87 24 -33 52 -69 62 -81 9 -11 33 -40 52 -65 55 -69 189
-199 218 -210 47 -18 81 -1 166 85 83 82 156 164 156 173 0 2 7 11 15 19 8 9
36 46 62 82 26 37 50 69 54 72 3 3 8 10 10 15 4 11 224 343 239 362 6 7 10 15
10 17 0 3 19 36 43 73 72 114 229 389 269 473 12 25 25 47 28 50 14 11 260
522 260 539 0 18 15 19 95 6 128 -21 321 -16 450 11 131 27 261 70 315 104 8
6 26 15 40 21 96 40 237 165 349 309 36 47 69 90 74 95 16 20 97 147 97 153 0
3 6 13 14 21 47 54 196 384 233 516 68 247 87 376 87 610 0 117 -9 266 -20
320 -5 22 -12 64 -20 110 -11 63 -26 123 -51 205 -15 47 -27 87 -27 90 -5 29
-96 224 -107 228 -5 2 -9 8 -9 14 0 17 -63 75 -116 105 -69 41 -108 53 -194
60 -60 4 -86 1 -132 -15 -109 -38 -156 -80 -359 -319 -24 -28 -46 -52 -49 -52
-3 -1 -6 43 -7 97 -1 97 -8 199 -18 260 -3 17 -7 44 -9 60 -2 15 -7 34 -10 42
-3 8 -8 31 -11 50 -3 19 -7 40 -9 45 -55 177 -115 334 -157 409 -6 11 -23 40
-37 65 -77 141 -194 298 -309 416 -84 87 -196 185 -212 185 -6 0 -11 4 -11 9
0 16 -216 149 -325 201 -57 28 -106 50 -109 50 -2 0 -17 5 -33 12 -15 6 -30
12 -33 13 -3 1 -12 4 -20 8 -23 9 -152 47 -180 53 -71 15 -170 33 -210 39 -49
7 -425 16 -431 11z m-2252 -1884 c40 -28 273 -289 273 -305 0 -2 -18 -24 -40
-48 -72 -78 -189 -236 -253 -341 -34 -57 -123 -226 -197 -375 -74 -150 -138
-273 -141 -273 -4 0 -11 26 -18 58 -20 102 -21 106 -36 242 -12 109 -2 359 19
475 5 31 19 99 22 110 1 6 7 31 13 57 27 116 100 301 143 361 44 62 155 82
215 39z m4956 17 c57 -15 113 -81 142 -169 1 -3 7 -18 14 -35 18 -42 52 -137
56 -155 1 -8 10 -42 18 -75 41 -160 52 -259 52 -470 -1 -180 -4 -223 -30 -350
-9 -44 -17 -86 -18 -92 0 -7 -3 -13 -7 -13 -3 0 -54 98 -113 218 -148 297
-209 411 -269 501 -51 75 -127 178 -151 203 -38 41 -97 112 -97 118 0 4 10 18
23 32 29 33 61 70 122 143 117 141 166 169 258 144z m-4455 -564 c23 -26 51
-63 61 -83 25 -49 51 -140 42 -144 -18 -7 -198 -273 -250 -368 -39 -72 -133
-264 -161 -330 -18 -41 -40 -93 -50 -115 -10 -22 -34 -85 -54 -140 -20 -55
-40 -107 -43 -115 -3 -8 -7 -17 -7 -20 -10 -44 -71 -198 -78 -194 -4 3 -8 9
-8 14 0 5 -16 34 -35 64 -19 30 -35 60 -35 66 0 5 -4 10 -10 10 -5 0 -10 4
-10 9 0 6 -22 47 -49 92 -49 80 -49 82 -37 123 33 106 91 260 133 356 8 19 22
51 31 70 115 266 310 585 440 722 52 54 56 54 120 -17z m3925 36 c27 -23 147
-176 188 -241 168 -262 338 -623 428 -910 l18 -56 -39 -63 c-21 -35 -38 -64
-38 -65 0 -2 -29 -51 -63 -109 -62 -104 -64 -106 -75 -82 -7 14 -12 33 -12 41
0 8 -4 22 -10 32 -5 9 -26 64 -46 122 -84 243 -211 528 -313 704 -28 49 -51
90 -51 92 0 7 -104 159 -112 162 -4 2 -8 10 -8 17 0 7 -4 15 -8 17 -12 5 -52
64 -52 77 0 6 11 34 24 63 13 29 32 76 41 104 17 54 80 129 98 117 6 -4 20
-14 30 -22z m-3584 -640 c68 -88 109 -150 107 -160 -5 -15 -14 -59 -22 -106
-1 -11 -5 -29 -7 -40 -3 -11 -8 -54 -12 -95 -3 -41 -8 -88 -11 -103 -3 -16 -7
-50 -9 -75 -3 -26 -7 -63 -10 -82 -6 -43 -7 -276 -1 -345 4 -50 11 -99 23
-165 3 -19 7 -44 9 -56 1 -11 7 -40 14 -63 6 -24 9 -45 7 -47 -14 -14 -232
-21 -287 -10 -13 3 -41 8 -62 11 -57 9 -156 43 -233 82 -78 39 -195 121 -195
137 0 13 52 182 73 243 9 22 13 44 10 47 -4 3 0 6 7 6 7 0 11 3 8 6 -8 7 78
245 134 374 53 121 186 377 234 450 30 46 54 86 54 88 0 10 44 52 51 50 4 -2
57 -68 118 -147z m3319 77 c116 -173 264 -467 341 -678 7 -19 17 -44 22 -55
14 -32 108 -321 129 -396 22 -80 24 -75 -69 -138 -116 -79 -276 -141 -401
-157 -58 -7 -221 -7 -255 0 -11 3 -24 5 -28 5 -8 1 -5 25 12 96 5 22 12 60 16
85 3 25 8 56 10 70 16 103 22 346 11 430 -4 25 -9 61 -11 80 -3 19 -7 58 -10
85 -13 151 -33 290 -49 343 -5 15 20 52 69 103 8 9 15 19 15 23 0 4 6 13 13
20 6 7 37 45 67 84 30 39 58 71 62 72 4 0 29 -33 56 -72z m-542 -391 c3 -18
11 -38 16 -44 6 -7 8 -13 5 -13 -3 0 1 -21 9 -47 8 -27 17 -64 20 -83 3 -19 7
-42 10 -50 8 -22 17 -143 18 -230 0 -90 -8 -155 -29 -235 -8 -33 -17 -69 -20
-80 -3 -11 -9 -31 -14 -45 -5 -14 -24 -65 -41 -115 -37 -104 -34 -96 -96 -240
-87 -200 -321 -656 -408 -793 -14 -23 -26 -46 -26 -52 0 -5 -5 -10 -11 -10 -7
0 -8 7 -4 17 53 137 134 477 150 633 2 19 4 35 5 35 1 0 3 23 5 50 1 28 6 95
10 150 11 153 13 956 3 987 -10 28 -35 42 -85 47 -10 1 27 15 82 31 110 32
231 75 315 113 62 27 75 23 86 -26z m-2308 19 c43 -22 352 -126 375 -126 20
-1 18 -4 -13 -30 l-35 -29 2 -478 c1 -515 5 -604 29 -748 3 -16 7 -43 9 -60 4
-42 15 -102 31 -175 3 -14 7 -36 10 -49 3 -14 7 -28 9 -32 3 -4 7 -24 11 -45
3 -22 10 -47 15 -56 5 -10 8 -18 5 -18 -2 0 15 -56 38 -125 23 -69 41 -125 39
-125 -4 0 -43 63 -78 125 -104 184 -147 262 -165 299 -12 22 -25 48 -30 56
-10 16 -129 265 -173 360 -78 170 -176 447 -203 575 -35 161 -22 354 41 605 1
3 5 14 9 25 28 74 29 74 74 51z m617 -332 c11 -2 32 -6 48 -9 50 -9 138 -46
165 -70 26 -22 26 -24 27 -156 0 -74 -3 -145 -7 -159 -5 -14 -30 -39 -56 -56
-67 -44 -97 -53 -215 -61 l-78 -5 1 266 1 267 47 -7 c26 -4 56 -8 67 -10z
m1124 -250 l0 -265 -77 5 c-42 3 -90 8 -106 11 -53 10 -126 47 -149 74 -21 25
-22 35 -20 166 0 77 1 147 2 156 2 35 138 90 261 106 25 3 47 7 49 9 2 2 12 4
22 4 16 0 17 -20 18 -266z m-533 3 c0 -98 10 -90 -100 -88 -33 0 -62 4 -65 7
-3 3 -6 41 -7 84 -1 90 -7 86 106 84 l65 -1 1 -86z m85 -312 c25 -24 65 -53
88 -65 60 -30 180 -59 267 -64 40 -2 78 -7 83 -10 10 -7 9 -71 -4 -228 -3 -43
-8 -86 -9 -95 -6 -29 -16 -96 -21 -128 -6 -45 -24 -133 -36 -179 -6 -23 -13
-51 -15 -64 -15 -82 -119 -380 -180 -517 -10 -22 -18 -42 -19 -45 -3 -12 -108
-222 -145 -290 -96 -175 -164 -280 -181 -280 -11 0 -32 26 -58 71 -23 39 -41
73 -41 76 0 3 -9 18 -21 34 -11 16 -17 29 -13 29 4 0 0 8 -8 18 -9 9 -25 35
-36 57 -11 22 -50 97 -86 167 -105 203 -173 373 -235 583 -11 39 -22 81 -24
95 -3 14 -10 43 -16 66 -13 47 -40 200 -46 258 -3 21 -7 55 -10 75 -3 20 -7
63 -10 96 -2 33 -7 93 -10 133 -5 65 -4 72 12 73 196 5 356 52 425 126 18 19
42 38 53 43 11 5 72 9 135 8 l115 0 46 -43z"/>
<path d="M3285 2239 c-58 -16 -83 -103 -41 -145 64 -64 168 -9 152 80 -8 43
-67 77 -111 65z"/>
<path d="M3274 1881 c-84 -36 -54 -171 38 -171 45 0 89 49 86 95 -4 59 -69 99
-124 76z"/>
<path d="M3293 1531 c-56 -15 -84 -69 -63 -122 30 -72 130 -72 160 0 27 67
-30 139 -97 122z"/>
<path d="M3270 1167 c-51 -26 -62 -104 -21 -141 10 -9 35 -19 54 -23 31 -5 40
-1 68 26 27 28 31 37 26 68 -4 20 -14 45 -24 55 -24 24 -73 31 -103 15z"/>
<path d="M2285 5335 c-74 -18 -95 -29 -147 -74 -114 -101 -140 -289 -44 -320
17 -6 42 -10 55 -9 36 4 77 51 85 98 11 72 37 98 104 106 63 8 97 -26 121
-122 14 -53 41 -76 93 -80 36 -2 46 2 74 31 29 31 31 38 28 90 -12 182 -195
321 -369 280z"/>
<path d="M4171 5334 c-23 -6 -41 -10 -41 -8 0 9 -97 -57 -122 -83 -66 -70
-101 -196 -71 -256 18 -36 73 -60 117 -51 25 4 39 15 55 45 12 21 20 39 17 39
-10 0 17 66 37 87 22 25 74 39 105 29 33 -11 58 -39 72 -81 36 -111 41 -117
103 -121 171 -10 117 288 -67 375 -74 34 -145 43 -205 25z"/>
<path d="M3279 5166 c-2 -2 -24 -7 -49 -9 -101 -12 -194 -61 -267 -141 -61
-66 -87 -115 -111 -204 -25 -92 -17 -250 15 -332 3 -8 7 -19 8 -25 2 -5 16
-38 33 -72 106 -218 306 -351 453 -301 75 25 194 124 264 218 38 51 80 137 94
195 21 82 23 98 25 155 8 262 -165 482 -397 505 -27 3 -53 7 -57 10 -4 2 -9 3
-11 1z m109 -227 c51 -24 100 -73 125 -129 50 -107 22 -304 -56 -398 -64 -77
-117 -119 -157 -127 -62 -12 -195 121 -236 237 -12 35 -27 114 -27 143 1 108
42 199 115 254 56 42 167 51 236 20z"/>
</g>
</svg>
