<svg width="857" height="865" viewBox="0 0 857 865" fill="none" xmlns="http://www.w3.org/2000/svg">
<path d="M558.469 581.35L556.474 554.382L387.789 562.662V588.767C387.789 588.767 349.845 624.877 334.877 865H638.51C638.51 865 671.816 652.384 558.469 581.35Z" fill="#FF705B"/>
<path d="M387.788 588.686L558.469 581.35" stroke="black" stroke-width="3.55" stroke-miterlimit="10" stroke-linecap="round"/>
<path d="M422.658 699.416L457.635 713.655L476.351 864.919" stroke="black" stroke-width="5" stroke-miterlimit="10" stroke-linecap="round"/>
<path d="M203.381 529.032L249.981 375.315L352.46 413.744L303.27 561.07C298.885 574.133 289.536 584.945 277.243 591.17C264.951 597.396 250.703 598.535 237.578 594.34C224.453 590.146 213.505 580.956 207.101 568.755C200.697 556.555 199.351 542.325 203.354 529.14L203.381 529.032Z" fill="#A0D4FF"/>
<path d="M275.277 293.062C277.423 286.015 280.948 279.465 285.647 273.792C290.346 268.119 296.125 263.435 302.648 260.014C309.172 256.593 316.311 254.502 323.649 253.863C330.988 253.224 338.381 254.05 345.397 256.292C352.414 258.534 358.916 262.147 364.525 266.923C370.133 271.699 374.737 277.541 378.069 284.111C381.401 290.681 383.394 297.848 383.933 305.194C384.471 312.541 383.545 319.921 381.208 326.907L352.487 413.663L250.008 375.234L275.277 293.062Z" fill="#2C2BCA"/>
<path d="M282.532 517.49L165.464 295.543C165.464 295.543 168.161 255.415 101.523 253.042C100.633 253.042 99.716 252.907 98.8261 252.907H76.5774C74.5678 252.891 72.618 253.59 71.0766 254.879C69.5352 256.169 68.5026 257.965 68.1634 259.945C68.0042 261.033 68.0637 262.141 68.3384 263.204C68.6132 264.268 69.0975 265.267 69.7632 266.141C70.4288 267.015 71.2624 267.747 72.2148 268.295C73.1673 268.843 74.2196 269.195 75.3099 269.33L97.7743 272.513L67.2195 280.603L61.5023 282.706L19.8907 255.226C18.4727 254.209 16.7155 253.781 14.9887 254.033C13.2618 254.284 11.6998 255.196 10.631 256.575C9.56232 257.955 9.07012 259.695 9.258 261.43C9.44588 263.165 10.2992 264.76 11.6384 265.878C14.2004 268.036 18.3535 271.569 22.8571 275.452L13.661 270.058C12.1626 269.082 10.3378 268.741 8.58787 269.11C6.83798 269.479 5.30643 270.529 4.33013 272.027C3.35383 273.526 3.01276 275.35 3.38195 277.1C3.75115 278.85 4.80036 280.382 6.29878 281.358L14.3892 287.129L11.207 285.889C9.50812 285.183 7.62205 285.065 5.8484 285.553C4.07475 286.042 2.51522 287.109 1.41758 288.585C0.742947 289.556 0.293974 290.666 0.103538 291.833C-0.0868978 292.999 -0.0139921 294.194 0.316942 295.329C0.647875 296.464 1.22848 297.511 2.01619 298.392C2.80389 299.274 3.77877 299.968 4.86948 300.424L50.3376 319.464C58.1853 322.754 65.6824 324.857 74.9324 322.592L115.384 313.045L206.078 566.922L282.532 517.49Z" fill="#A0D4FF"/>
<path d="M234.476 426.392L256.158 467.465" stroke="#0A093D" stroke-width="2.5" stroke-miterlimit="10" stroke-linecap="round"/>
<path d="M366.404 254.363L322.877 257.599C322.877 257.599 259.88 343.088 387.789 562.581L556.474 554.301L569.176 317.792L548.357 250.642H472.685L366.404 254.363Z" fill="#2C2BCA"/>
<path d="M317.024 400.341C317.024 400.341 304.457 373.939 312.52 315.446" stroke="#090929" stroke-width="3.55" stroke-miterlimit="10" stroke-linecap="round"/>
<path d="M708.546 498.154L638.429 353.498L543.178 407.434L614.751 545.267C621.068 557.58 631.995 566.897 645.152 571.188C658.308 575.48 672.627 574.399 684.99 568.18C697.352 561.962 706.757 551.109 711.154 537.988C715.551 524.867 714.584 510.539 708.465 498.127L708.546 498.154Z" fill="#A0D4FF"/>
<path d="M600.7 276.315C597.503 269.655 593.01 263.7 587.485 258.796C581.96 253.892 575.513 250.138 568.521 247.753C561.529 245.368 554.131 244.401 546.761 244.907C539.391 245.413 532.195 247.383 525.595 250.701C518.994 254.019 513.121 258.62 508.318 264.233C503.516 269.846 499.88 276.36 497.622 283.395C495.365 290.429 494.532 297.843 495.172 305.202C495.813 312.562 497.913 319.721 501.35 326.26L543.259 407.461L638.51 353.524L600.7 276.315Z" fill="#2C2BCA"/>
<path d="M543.259 407.461L508.659 340.418" stroke="#090929" stroke-width="3.55" stroke-miterlimit="10" stroke-linecap="round"/>
<path d="M854.767 250.669C853.674 249.194 852.119 248.128 850.35 247.639C848.581 247.151 846.699 247.268 845.004 247.972L824.644 255.927L843.764 239.746C845.335 238.478 846.374 236.668 846.679 234.672C846.983 232.676 846.53 230.638 845.409 228.959C844.79 228.062 843.992 227.302 843.066 226.728C842.139 226.154 841.104 225.778 840.025 225.624C838.946 225.469 837.846 225.54 836.796 225.831C835.745 226.122 834.766 226.627 833.921 227.314L816.149 241.634L831.305 221.813C832.539 220.245 833.15 218.276 833.02 216.285C832.891 214.294 832.03 212.421 830.604 211.026C829.804 210.287 828.862 209.72 827.834 209.362C826.807 209.003 825.717 208.86 824.631 208.94C823.546 209.021 822.489 209.325 821.526 209.832C820.563 210.339 819.715 211.039 819.034 211.889L789.1 242.929L758.545 234.838L781.009 231.656C782.112 231.528 783.178 231.178 784.143 230.628C785.108 230.078 785.951 229.339 786.624 228.455C787.296 227.571 787.783 226.561 788.056 225.485C788.328 224.408 788.381 223.288 788.21 222.19C787.869 220.203 786.827 218.403 785.274 217.117C783.721 215.831 781.758 215.143 779.742 215.179H757.466C744.301 215.119 731.577 219.921 721.734 228.663L721.248 228.986C707.602 239.773 712.565 261.86 712.565 261.86L628.667 499.395L711.809 536.26L759.759 281.196H790.367C792.261 281.358 794.164 281.358 796.058 281.196H796.3C799.621 280.902 802.876 280.102 805.955 278.823L851.423 262.642C852.525 262.18 853.509 261.473 854.3 260.577C855.091 259.68 855.669 258.616 855.991 257.464C856.312 256.313 856.369 255.103 856.157 253.926C855.946 252.749 855.47 251.636 854.767 250.669V250.669Z" fill="#A0D4FF"/>
<path d="M661.19 400.341L643.067 463.581" stroke="#0A093D" stroke-width="2.5" stroke-miterlimit="10" stroke-linecap="round"/>
<path d="M363.031 58.4134C357.772 62.0001 322.579 71.1423 321.905 77.5337C321.905 77.5337 333.474 122.759 321.635 131.2C289.597 154.015 279.349 198.755 279.349 198.755C279.349 198.755 363.84 262.022 588.511 195.573C588.511 195.573 591.207 168.605 550.351 149.134C538.46 143.77 528.488 134.908 521.765 123.73C517.869 117.509 515.409 110.498 514.564 103.207C510.789 81.0396 449.598 -0.997151 363.031 58.4134Z" fill="black"/>
<path d="M378.511 192.202L382.233 250.776C383.5 271.353 391.914 285.376 412.167 283.974C429.454 282.76 449.923 268.926 450.947 251.612L440.646 159.705L378.511 192.202Z" fill="#A0D4FF"/>
<path d="M366.402 254.363L472.683 250.642C472.683 250.642 470.121 302.96 406.881 298.051C363.031 294.653 366.402 254.363 366.402 254.363Z" fill="#A0D4FF"/>
<path d="M381.586 240.448L449.572 173.971L377.999 186.188L381.586 240.448Z" fill="#090929"/>
<path d="M396.337 201.668C361.737 201.668 333.151 174.511 332.099 146.221L330.076 79.5295C329.448 62.485 335.472 45.8642 346.877 33.1815C358.281 20.4989 374.171 12.7488 391.186 11.5701V11.5701C427.377 9.06205 465.105 35.8413 467.64 72.1133L468.692 125.78C469.501 167.283 437.76 198.782 396.337 201.668Z" fill="#A0D4FF"/>
<path d="M355.562 116.422C355.604 117.633 355.286 118.829 354.648 119.859C354.01 120.889 353.08 121.706 351.977 122.207C350.874 122.709 349.647 122.872 348.452 122.675C347.256 122.479 346.146 121.932 345.261 121.104C344.376 120.276 343.757 119.204 343.482 118.024C343.207 116.844 343.288 115.609 343.716 114.475C344.143 113.342 344.897 112.36 345.883 111.655C346.868 110.95 348.041 110.554 349.252 110.516C350.871 110.465 352.444 111.058 353.627 112.165C354.81 113.272 355.506 114.803 355.562 116.422V116.422Z" fill="black"/>
<path d="M406.963 114.75C407.005 115.961 406.687 117.157 406.049 118.187C405.411 119.217 404.481 120.034 403.378 120.536C402.275 121.037 401.048 121.2 399.852 121.003C398.657 120.807 397.546 120.26 396.662 119.432C395.777 118.604 395.158 117.532 394.883 116.352C394.608 115.172 394.689 113.937 395.116 112.804C395.544 111.67 396.298 110.688 397.283 109.983C398.269 109.279 399.441 108.882 400.652 108.844C402.272 108.793 403.845 109.386 405.028 110.493C406.211 111.6 406.907 113.131 406.963 114.75V114.75Z" fill="black"/>
<path d="M412.599 0.108662C403.953 -0.333664 395.291 0.576221 386.926 2.80546C366.187 8.19907 328.944 23.7057 322.58 63.5105C320.449 74.001 321.906 77.5338 321.906 77.5338C321.906 77.5338 391.456 80.2306 432.475 60.8406C438.408 85.8939 443.855 101.293 468.612 125.78L490.672 92.7438L515.401 114.912C515.563 115.801 515.509 5.58317 412.599 0.108662Z" fill="black"/>
<path d="M360.418 98.7601C360.804 98.5284 361.114 98.1896 361.307 97.7864C361.5 97.3833 361.569 96.9339 361.504 96.4951C361.465 95.7891 361.183 95.1203 360.704 94.5998C360.225 94.0792 359.578 93.7382 358.871 93.6332C350.056 92.9867 338.603 98.1652 338.018 98.4217C337.728 98.5927 337.474 98.8183 337.272 99.0857C337.069 99.353 336.922 99.6568 336.838 99.9794C336.754 100.302 336.735 100.637 336.783 100.965C336.831 101.294 336.944 101.609 337.116 101.892C337.364 102.52 337.848 103.028 338.466 103.311C339.085 103.594 339.792 103.632 340.444 103.416C340.571 103.366 351.533 98.4309 359.285 98.9933C359.676 99.0271 360.071 98.946 360.418 98.7601V98.7601Z" fill="#020225"/>
<path d="M420.046 100.575C420.588 100.479 421.089 100.228 421.485 99.8521C421.882 99.4765 422.156 98.9937 422.274 98.4647C422.538 97.642 422.508 96.7555 422.188 95.9523C421.869 95.1491 421.28 94.4776 420.52 94.0491C410.743 89.4615 395.412 90.3685 394.632 90.4058C394.227 90.4741 393.838 90.6208 393.491 90.8375C393.143 91.0541 392.842 91.3363 392.605 91.6678C392.369 91.9993 392.201 92.3736 392.112 92.7691C392.024 93.1645 392.015 93.5734 392.088 93.9719C392.097 94.7969 392.426 95.5872 393.008 96.1808C393.591 96.7744 394.382 97.1264 395.219 97.1647C395.386 97.1626 410.051 96.3188 418.65 100.346C419.082 100.556 419.568 100.635 420.046 100.575V100.575Z" fill="#020225"/>
<path d="M456.82 652.62L455.04 585.01H451L452.85 655.07C452.87 655.63 453.11 656.16 453.53 656.53C453.9 656.86 454.38 657.03 454.86 657.03C454.93 657.03 454.99 657.03 455.06 657.02C482.3 654.29 478.71 593.85 478.04 585H473.99C474.49 591.56 477.96 646.97 456.82 652.62Z" fill="#090929"/>
<path d="M376.765 135.796C377.149 135.69 377.483 135.448 377.709 135.111C377.934 134.774 378.038 134.364 378.001 133.952C377.979 133.717 377.913 133.487 377.805 133.276C377.698 133.066 377.551 132.878 377.374 132.725C377.197 132.572 376.994 132.456 376.775 132.384C376.556 132.311 376.326 132.284 376.099 132.304C375.561 132.335 375.028 132.149 374.612 131.786C374.405 131.605 374.234 131.383 374.11 131.133C373.987 130.884 373.912 130.613 373.891 130.335C373.863 130.059 373.889 129.78 373.967 129.516C374.045 129.252 374.174 129.008 374.345 128.798C374.696 128.379 375.196 128.121 375.736 128.082C375.964 128.065 376.186 128 376.388 127.893C376.591 127.786 376.771 127.639 376.917 127.459C377.062 127.279 377.172 127.07 377.239 126.845C377.306 126.619 377.329 126.382 377.307 126.145C377.285 125.91 377.219 125.68 377.111 125.47C377.004 125.259 376.857 125.072 376.68 124.918C376.504 124.765 376.3 124.649 376.081 124.577C375.862 124.504 375.632 124.477 375.405 124.497C374.674 124.538 373.961 124.73 373.308 125.064C372.656 125.397 372.079 125.864 371.61 126.436C371.142 126.998 370.79 127.654 370.572 128.363C370.355 129.073 370.278 129.823 370.345 130.569C370.401 131.326 370.604 132.067 370.941 132.747C371.279 133.427 371.744 134.032 372.31 134.526C372.878 135.031 373.538 135.412 374.249 135.646C374.959 135.879 375.706 135.961 376.443 135.885C376.554 135.869 376.662 135.839 376.765 135.796Z" fill="#020225"/>
<path d="M391.887 151.006C379.816 150.513 375.629 158.761 375.448 159.09C375.117 159.759 375.071 160.529 375.319 161.232C375.568 161.936 376.09 162.514 376.772 162.84C377.454 163.16 378.237 163.204 378.951 162.962C379.666 162.721 380.254 162.213 380.59 161.549C380.745 161.264 383.801 155.713 392.959 156.644C393.333 156.682 393.711 156.646 394.07 156.54C394.43 156.435 394.765 156.26 395.055 156.027C395.346 155.794 395.587 155.507 395.764 155.182C395.941 154.857 396.051 154.501 396.088 154.134C396.157 153.394 395.927 152.657 395.447 152.081C394.967 151.506 394.276 151.138 393.523 151.058L391.887 151.006Z" fill="#020225"/>
<path d="M476.489 156.934C480.067 156.362 483.044 155.345 485.478 154C485.811 154.921 486 155.906 486 156.934C486 161.944 481.744 166 476.489 166C471.389 166 467.233 162.166 467 157.357C469.567 157.601 472.689 157.538 476.489 156.934Z" fill="white"/>
<path d="M476.768 148C481.059 148 484.688 150.664 486 154.373C483.489 155.771 480.443 156.827 476.768 157.422C472.865 158.049 469.647 158.115 467.023 157.862C467.011 157.719 467 157.565 467 157.422C467 152.216 471.371 148 476.768 148Z" fill="white"/>
<path d="M464.802 143.177C465.312 143.177 465.81 143.01 466.222 142.664L480.434 130.882C481.355 130.118 481.453 128.789 480.673 127.9C479.882 127.01 478.495 126.916 477.585 127.67L464.651 138.406C464.737 137.087 464.802 135.769 464.802 134.429C464.802 130.798 464.445 127.251 463.806 123.798C463.817 123.798 463.817 123.798 463.827 123.798C463.827 123.798 463.849 123.432 463.849 122.762C467.933 119.079 473.187 116.306 479.47 117.153C493.607 119.047 502.696 144.37 485.992 153.683C484.746 150.157 481.29 147.624 477.228 147.624C472.104 147.624 467.955 151.632 467.955 156.581C467.955 156.728 467.966 156.864 467.976 157C464.835 156.697 462.571 155.901 461 155.075C462.473 151.245 463.535 147.227 464.163 143.062C464.369 143.135 464.586 143.177 464.802 143.177Z" fill="#A0D4FF"/>
<line x1="478.64" y1="129.517" x2="465.517" y2="140.2" stroke="black" stroke-width="5" stroke-linecap="round"/>
</svg>
