<svg width="383" height="354" viewBox="0 0 383 354" fill="none" xmlns="http://www.w3.org/2000/svg">
<g clip-path="url(#clip0_651_3446)">
<path d="M296.381 130.929C296.381 130.929 298.057 115.609 294.62 109.535C287.717 97.3771 275.78 82.9933 278.996 79.0679C281.295 76.2601 294.103 81.1466 298.467 86.9142C299.563 80.734 295.361 43.8475 303.101 43.5113C310.841 43.1752 312.785 80.9262 312.785 80.9262C312.785 80.9262 314.41 44.2308 321.652 44.3921C328.894 44.5534 324.699 81.5302 324.699 81.5302C324.699 81.5302 333.197 47.0652 339.499 49.2373C345.802 51.4094 337.458 84.6268 337.458 84.6268C337.458 84.6268 349.188 55.7855 354.562 58.6048C359.936 61.4241 346.196 120.568 346.196 120.568L344.02 137.722L296.381 130.929Z" fill="#A0D4FF"/>
<path d="M312.041 100.761C311.811 100.671 311.607 100.524 311.449 100.334C311.291 100.145 311.183 99.9181 311.137 99.6759C310.34 96.73 308.688 94.0824 306.389 92.0659C304.089 90.0494 301.245 88.7541 298.214 88.3427C297.825 88.2755 297.479 88.0572 297.251 87.7358C297.023 87.4144 296.932 87.0162 296.998 86.6288C297.065 86.2414 297.283 85.8966 297.605 85.6701C297.926 85.4437 298.326 85.3542 298.714 85.4213C302.312 85.9599 305.677 87.5358 308.392 89.9552C311.108 92.3745 313.056 95.5314 313.997 99.0367C314.079 99.4138 314.008 99.8074 313.799 100.131C313.59 100.455 313.26 100.683 312.883 100.765C312.607 100.836 312.317 100.835 312.041 100.761Z" fill="#090929"/>
<path d="M312.579 88.9004C312.39 88.8276 312.217 88.7179 312.072 88.5779C311.926 88.4379 311.809 88.2703 311.729 88.085C311.648 87.9129 311.602 87.7266 311.595 87.5368C311.587 87.3471 311.617 87.1577 311.684 86.98C311.75 86.8022 311.852 86.6396 311.982 86.5016C312.112 86.3636 312.269 86.2531 312.443 86.1764C312.819 86.0061 321.289 82.5544 337.475 89.6692C337.651 89.7469 337.81 89.8584 337.943 89.9974C338.076 90.1364 338.18 90.3001 338.249 90.4791C338.318 90.6581 338.351 90.8489 338.347 91.0405C338.342 91.2321 338.299 91.4208 338.221 91.5958C338.147 91.7711 338.04 91.9299 337.903 92.0629C337.767 92.1959 337.606 92.3002 337.429 92.37C337.251 92.4397 337.062 92.4735 336.871 92.4691C336.68 92.4648 336.492 92.4225 336.318 92.3447C321.404 85.8308 313.673 88.8124 313.597 88.8465C313.275 88.9835 312.914 89.0025 312.579 88.9004Z" fill="#090929"/>
<path d="M24.3174 153.607C6.63468 127.084 3.50732 106.501 3.50732 106.501L10.785 94.3019L23.0022 86.7323C23.0022 86.7323 5.96247 49.8155 13.3863 47.0788C20.8101 44.3421 35.1901 82.0158 35.1901 82.0158C35.1901 82.0158 24.1712 42.1003 32.2673 39.8294C40.3634 37.5585 48.781 77.3284 52.0838 83.5006C55.8834 84.8107 60.852 92.5842 59.1568 102.512L69.4451 128.715L24.3174 153.607Z" fill="#A0D4FF"/>
<path d="M40.1585 104.026C39.2239 104.057 38.2935 103.891 37.4273 103.54C36.5612 103.189 35.7789 102.66 35.1314 101.988C34.1165 101.052 33.3783 99.8574 32.997 98.5332C32.6157 97.209 32.6059 95.806 32.9686 94.4766C34.3715 89.6437 40.6555 85.7424 50.5052 83.1803C50.6972 83.1364 50.8958 83.1305 51.09 83.163C51.2842 83.1956 51.4701 83.2659 51.637 83.37C51.8039 83.474 51.9486 83.6098 52.0628 83.7696C52.177 83.9294 52.2586 84.1101 52.3027 84.3012C52.3469 84.4924 52.3527 84.6904 52.32 84.8838C52.2874 85.0772 52.2169 85.2624 52.1124 85.4286C52.0079 85.5949 51.8714 85.739 51.711 85.8528C51.5506 85.9666 51.3693 86.0478 51.1774 86.0918C42.4091 88.2171 36.5635 91.6817 35.6283 95.3792C35.4121 96.2142 35.4345 97.0927 35.6927 97.9157C35.9509 98.7388 36.4347 99.4736 37.0896 100.037C39.0771 102.105 42.1168 101.173 46.5594 99.5134C50.3005 98.1159 54.1878 96.602 56.7598 99.1931C56.8996 99.3238 57.0112 99.4816 57.0874 99.6569C57.1635 99.8322 57.2028 100.021 57.2028 100.212C57.2028 100.403 57.1635 100.592 57.0874 100.767C57.0112 100.943 56.8996 101.1 56.7598 101.231C56.6265 101.367 56.4674 101.474 56.2917 101.548C56.1161 101.621 55.9275 101.659 55.7369 101.659C55.5464 101.659 55.3578 101.621 55.1821 101.548C55.0065 101.474 54.8474 101.367 54.714 101.231C53.4573 100.008 50.622 101.086 47.6116 102.192C45.2519 103.227 42.7305 103.847 40.1585 104.026Z" fill="#090929"/>
<path d="M9.70375 88.9158C8.41773 96.2526 29.4032 109.15 29.5493 98.5235C29.6954 87.8968 11.4574 78.9005 9.70375 88.9158Z" fill="#A0D4FF"/>
<path d="M25.662 104.026C21.7889 103.62 18.1203 102.092 15.1107 99.6298C13.2694 98.2614 7.39465 93.4576 8.24226 88.6829C8.35049 87.8083 8.63793 86.9652 9.08676 86.2057C9.5356 85.4463 10.1362 84.7869 10.8514 84.2682C11.5666 83.7496 12.3813 83.3828 13.2447 83.1907C14.1081 82.9985 15.0018 82.9851 15.8706 83.1512C22.7392 83.7626 31.0692 91.0121 30.9815 98.5235C31.0727 99.5167 30.8658 100.514 30.3871 101.39C29.9084 102.266 29.1793 102.981 28.2924 103.444C27.4761 103.848 26.5733 104.048 25.662 104.026ZM14.9063 86.0044C14.4484 85.9605 13.9863 86.0083 13.5473 86.1449C13.1083 86.2816 12.7012 86.5042 12.3499 86.7999C11.9986 87.0956 11.7102 87.4583 11.5017 87.8667C11.2932 88.2751 11.1687 88.7209 11.1358 89.1778C10.785 91.1867 13.1233 94.5058 16.9813 97.3007C20.8394 100.096 25.2819 101.755 27.1525 100.853C27.4156 100.853 28.1756 100.358 28.2048 98.4944C28.2048 92.0601 20.6933 86.4993 15.7538 86.0335L14.9063 86.0044Z" fill="#090929"/>
<path d="M1.52016 101.697C0.234138 109.034 21.2195 121.931 21.3365 111.305C21.4534 100.678 3.30305 91.6526 1.52016 101.697Z" fill="#A0D4FF"/>
<path d="M17.4778 116.749C13.6064 116.337 9.93979 114.809 6.92667 112.353C5.11455 110.984 -0.760123 106.18 0.0874805 101.406C0.191584 100.529 0.476341 99.6839 0.92396 98.9223C1.37158 98.1607 1.97235 97.4995 2.68861 96.9801C3.40487 96.4607 4.22109 96.0943 5.0862 95.904C5.9513 95.7137 6.84663 95.7035 7.71587 95.8741C14.5844 96.4855 22.885 103.735 22.7973 111.246C22.8911 112.236 22.6887 113.232 22.2154 114.108C21.7421 114.983 21.0191 115.7 20.1377 116.167C19.3095 116.567 18.3981 116.766 17.4778 116.749ZM6.78056 98.7855C6.32044 98.7375 5.85526 98.7821 5.41283 98.9169C4.97041 99.0516 4.55981 99.2736 4.2053 99.5697C3.85079 99.8658 3.55971 100.23 3.34938 100.64C3.13904 101.051 3.01376 101.499 2.981 101.959C2.63026 103.968 4.99771 107.287 8.82654 110.082C12.6554 112.877 17.1271 114.536 18.9685 113.634C19.2315 113.488 19.9916 113.11 20.0208 111.275C20.0208 104.841 12.5385 99.2804 7.59903 98.8146L6.78056 98.7855Z" fill="#090929"/>
<path d="M181.533 111.13C179.137 103.56 182.264 98.2906 204.915 97.5627C227.567 96.8349 263.371 96.0779 263.78 112.557C264.189 129.035 185.83 124.814 181.533 111.13Z" fill="#090929"/>
<path d="M148.798 114.624C125.709 117.535 58.1925 208.255 58.1925 208.255C58.1925 208.255 37.4701 285.727 72.8064 284.883C108.143 284.039 125.416 263.397 125.416 263.397C125.416 263.397 112.994 324.769 127.667 335.338C127.667 335.338 123.692 359.677 135.763 352.806C147.834 345.935 176.214 340.113 220.962 342.646C265.709 345.178 295.551 352.69 301.601 348.934C307.651 345.178 307.213 335.425 303.764 327.39C303.764 327.39 315.659 317.404 315.279 285.727C315.279 285.727 348.95 309.019 373.092 282.292C397.234 255.565 370.841 152.356 356.841 139.109C352.106 134.625 348.891 135.702 348.891 135.702C348.891 135.702 353.392 123.765 347.401 123.765C341.409 123.765 305.868 131.597 291.254 131.219C291.254 131.219 288.624 127.143 270.795 122.281C253.901 117.651 196.761 108.451 148.798 114.624Z" fill="#FF705B"/>
<path d="M242.941 119.66L241.509 96.602L205.033 80.298C205.033 80.298 206.348 105.045 206.552 113.284C207.225 139.749 241.597 138.352 242.941 119.66Z" fill="#A0D4FF"/>
<path d="M201 90C201 90 205.446 103.274 219.071 103.952C236.284 104.792 240 94.2632 240 94.2632L201 90Z" fill="#090929"/>
<path d="M191.792 105.977C160.489 105.977 209.095 149.386 221.02 149.939C232.945 150.492 211.141 105.977 191.792 105.977Z" fill="#2C2BCA"/>
<path d="M221.166 151.395H220.874C211.024 150.929 179.692 124.639 179.955 111.945C179.955 108.568 182.147 104.521 191.646 104.521C192.034 104.521 192.406 104.674 192.68 104.947C192.954 105.22 193.108 105.591 193.108 105.977C193.108 106.363 192.954 106.733 192.68 107.006C192.406 107.279 192.034 107.432 191.646 107.432C182.878 107.432 182.878 110.868 182.878 112.003C182.615 123.125 212.573 148.105 220.874 148.483C221.78 148.483 222.043 148.25 222.248 147.959C223.241 146.474 222.832 141.729 219.559 134.538C219.427 134.191 219.433 133.808 219.576 133.465C219.718 133.123 219.986 132.848 220.325 132.695C220.664 132.543 221.049 132.526 221.401 132.646C221.753 132.767 222.045 133.016 222.219 133.344C224.235 137.798 227.246 145.805 224.644 149.59C224.261 150.155 223.742 150.616 223.135 150.931C222.528 151.246 221.851 151.405 221.166 151.395Z" fill="#090929"/>
<path d="M251.008 105.307C282.34 105.307 241.1 149.386 229.321 149.939C217.542 150.492 231.834 105.307 251.008 105.307Z" fill="#2C2BCA"/>
<path d="M229.116 151.395C228.381 151.411 227.652 151.256 226.988 150.942C226.323 150.629 225.741 150.166 225.287 149.59C222.131 145.659 224.118 136.896 225.112 133.315C225.221 132.943 225.472 132.629 225.81 132.438C226.149 132.248 226.548 132.197 226.924 132.296C227.107 132.346 227.279 132.432 227.428 132.549C227.577 132.666 227.702 132.811 227.794 132.977C227.887 133.142 227.945 133.324 227.966 133.512C227.988 133.7 227.971 133.89 227.918 134.072C226.164 140.448 226.018 145.717 227.567 147.785C227.767 148.034 228.028 148.229 228.325 148.351C228.621 148.473 228.944 148.519 229.262 148.483C237.183 148.105 261.413 124.755 261.062 112.76C261.062 111.275 261.062 106.763 251.008 106.763C250.623 106.755 250.255 106.6 249.983 106.328C249.71 106.057 249.554 105.691 249.546 105.307C249.546 104.921 249.7 104.551 249.974 104.278C250.248 104.005 250.62 103.851 251.008 103.851C261.559 103.851 263.897 108.655 263.985 112.586C264.306 126.24 238.703 150.842 229.408 151.278L229.116 151.395Z" fill="#090929"/>
<path d="M70.8185 284.825C48.0793 284.33 1.19809 189.942 17.5072 151.424C17.5072 151.424 7.24822 151.89 8.73884 143.068C10.2295 134.246 63.7747 114.827 70.7602 117.273C77.7456 119.719 73.6829 128.482 74.0336 132.325C90.3135 146.504 98.0003 175.996 102.648 198.589" fill="#FF705B"/>
<path d="M19.5824 151.686C19.3116 151.689 19.0453 151.617 18.813 151.479C18.5808 151.34 18.3917 151.139 18.2671 150.9C18.0925 150.552 18.062 150.149 18.1822 149.779C18.3025 149.409 18.564 149.1 18.9102 148.92C20.2547 148.221 52.3467 131.917 69.4449 131.306C69.6368 131.298 69.8285 131.328 70.0088 131.394C70.1891 131.46 70.3545 131.561 70.4956 131.691C70.6368 131.821 70.7509 131.977 70.8314 132.151C70.9118 132.324 70.9573 132.512 70.9648 132.703C70.9726 132.897 70.9416 133.09 70.8735 133.272C70.8054 133.453 70.7014 133.619 70.5681 133.76C70.4347 133.901 70.2744 134.014 70.0966 134.093C69.9187 134.171 69.7269 134.214 69.5325 134.217C53.1065 134.8 20.5761 151.366 20.2253 151.511C20.0291 151.622 19.8081 151.682 19.5824 151.686Z" fill="#090929"/>
<path d="M102.56 200.044C102.223 200.044 101.897 199.929 101.636 199.716C101.375 199.504 101.195 199.209 101.128 198.88C96.3346 175.589 88.8231 147.231 72.9817 133.402C72.8456 133.269 72.7374 133.111 72.6636 132.936C72.5898 132.761 72.5518 132.573 72.5518 132.383C72.5518 132.193 72.5898 132.005 72.6636 131.831C72.7374 131.656 72.8456 131.497 72.9817 131.364C73.2403 131.075 73.6018 130.898 73.9894 130.871C74.377 130.844 74.76 130.969 75.0567 131.219C91.5704 145.601 99.2573 174.628 104.284 198.181C104.323 198.368 104.324 198.562 104.287 198.749C104.251 198.937 104.178 199.116 104.072 199.275C103.966 199.435 103.83 199.572 103.67 199.679C103.511 199.786 103.333 199.861 103.145 199.899L102.56 200.044Z" fill="#090929"/>
<path d="M125.504 264.853C125.119 264.816 124.763 264.631 124.512 264.337C124.261 264.044 124.135 263.665 124.159 263.28C126.359 239.931 131.263 216.914 138.773 194.687C138.835 194.505 138.933 194.338 139.062 194.195C139.191 194.051 139.347 193.935 139.522 193.854C139.696 193.772 139.886 193.727 140.079 193.72C140.271 193.713 140.464 193.745 140.644 193.814C141.008 193.945 141.305 194.216 141.469 194.565C141.634 194.914 141.652 195.314 141.521 195.677C134.029 217.65 129.125 240.414 126.907 263.513C126.878 263.869 126.72 264.202 126.461 264.449C126.202 264.696 125.862 264.839 125.504 264.853Z" fill="#090929"/>
<path d="M196.206 185.895C195.846 185.898 195.499 185.768 195.23 185.532C194.96 185.296 194.787 184.969 194.744 184.614C191.061 154.917 217.162 140.215 217.454 140.069C217.623 139.978 217.808 139.92 218 139.899C218.191 139.879 218.384 139.896 218.569 139.95C218.753 140.004 218.925 140.094 219.075 140.215C219.225 140.335 219.349 140.483 219.442 140.652C219.534 140.82 219.592 141.004 219.612 141.195C219.633 141.386 219.615 141.578 219.561 141.762C219.507 141.946 219.416 142.117 219.296 142.266C219.175 142.416 219.026 142.54 218.857 142.631C218.594 142.631 194.218 156.548 197.638 184.265C197.666 184.454 197.656 184.648 197.608 184.834C197.56 185.02 197.475 185.194 197.357 185.346C197.24 185.498 197.093 185.625 196.925 185.72C196.758 185.814 196.572 185.874 196.381 185.895H196.206Z" fill="#090929"/>
<path d="M237.68 207.701H237.388C237.198 207.667 237.017 207.594 236.855 207.488C236.694 207.382 236.556 207.245 236.45 207.085C236.343 206.924 236.271 206.744 236.236 206.555C236.201 206.366 236.205 206.171 236.248 205.984C240.544 184.497 228.21 145.339 228.093 144.844C228.034 144.661 228.013 144.467 228.029 144.275C228.046 144.084 228.101 143.897 228.191 143.726C228.281 143.556 228.403 143.405 228.552 143.282C228.701 143.159 228.873 143.066 229.058 143.01C229.43 142.9 229.83 142.938 230.174 143.118C230.518 143.297 230.778 143.603 230.899 143.971C231.396 145.601 243.554 184.206 239.112 206.45C239.063 206.794 238.892 207.11 238.629 207.34C238.366 207.57 238.029 207.698 237.68 207.701Z" fill="#090929"/>
<path d="M135.383 334.552C135.105 334.553 134.833 334.474 134.599 334.324C134.366 334.174 134.181 333.96 134.067 333.707C133.984 333.534 133.935 333.345 133.925 333.153C133.915 332.96 133.944 332.768 134.009 332.586C134.074 332.405 134.175 332.238 134.305 332.095C134.436 331.953 134.593 331.838 134.769 331.757C199.538 301.915 294.966 323.663 295.931 323.867C296.318 323.956 296.655 324.194 296.866 324.53C297.077 324.866 297.145 325.271 297.056 325.657C296.967 326.043 296.727 326.378 296.39 326.589C296.053 326.799 295.646 326.867 295.258 326.778C294.294 326.545 199.83 305.059 135.997 334.464C135.8 334.534 135.591 334.563 135.383 334.552Z" fill="#090929"/>
<path d="M148.389 318.859C148.06 318.855 147.741 318.743 147.483 318.539C147.256 318.373 147.084 318.142 146.99 317.877C146.896 317.613 146.885 317.326 146.957 317.054L161.045 260.689C161.101 260.459 161.213 260.245 161.371 260.068C161.529 259.89 161.728 259.754 161.951 259.67C226.866 235.069 274.331 259.496 274.799 259.67C274.991 259.769 275.159 259.909 275.291 260.08C275.422 260.251 275.514 260.449 275.559 260.66L286.11 313.386C286.152 313.628 286.133 313.876 286.057 314.109C285.98 314.343 285.848 314.554 285.672 314.725C285.49 314.892 285.269 315.012 285.029 315.073C284.789 315.134 284.538 315.134 284.298 315.074C199.392 292.773 149.558 318.335 149.061 318.597C148.865 318.744 148.633 318.835 148.389 318.859ZM163.704 262.116L150.523 314.725C162.214 309.717 209.446 293.006 282.778 311.668L272.753 262.028C267.171 259.408 223.066 239.931 163.704 262.116Z" fill="#090929"/>
<path d="M311.158 230.731C310.909 230.736 310.664 230.674 310.447 230.551C310.231 230.428 310.053 230.248 309.931 230.032C293.826 203.975 284.912 157.887 293.271 147.406C290.611 145.106 285.087 139.749 285.818 135.033C286.082 133.793 286.691 132.653 287.575 131.741C288.458 130.83 289.581 130.185 290.816 129.879C290.996 129.809 291.189 129.776 291.382 129.78C291.576 129.785 291.766 129.827 291.943 129.906C292.12 129.985 292.279 130.097 292.412 130.238C292.544 130.378 292.648 130.543 292.716 130.724C292.786 130.901 292.819 131.091 292.814 131.282C292.809 131.472 292.766 131.66 292.687 131.834C292.608 132.007 292.495 132.164 292.354 132.293C292.214 132.422 292.048 132.522 291.868 132.587C288.945 133.664 288.77 135.033 288.712 135.498C288.215 138.614 293.154 143.709 296.369 146.183C296.556 146.318 296.709 146.496 296.814 146.7C296.919 146.905 296.974 147.132 296.974 147.362C296.974 147.593 296.919 147.819 296.814 148.024C296.709 148.229 296.556 148.407 296.369 148.542C287.864 154.364 295.785 201.471 312.503 228.547C312.604 228.711 312.671 228.894 312.7 229.084C312.73 229.274 312.721 229.468 312.675 229.655C312.629 229.842 312.546 230.018 312.431 230.172C312.316 230.327 312.172 230.457 312.006 230.556C311.749 230.702 311.452 230.763 311.158 230.731Z" fill="#090929"/>
<path d="M315.367 287.183C315.177 287.187 314.987 287.153 314.81 287.083C314.633 287.013 314.472 286.909 314.336 286.776C314.2 286.643 314.091 286.484 314.018 286.309C313.944 286.134 313.906 285.946 313.906 285.756C313.906 285.436 313.906 254.08 309.785 241.678C309.665 241.311 309.696 240.912 309.871 240.568C310.047 240.224 310.352 239.963 310.72 239.843C311.088 239.732 311.486 239.767 311.829 239.94C312.172 240.114 312.435 240.413 312.561 240.775C316.682 253.614 316.829 284.446 316.829 285.727C316.829 286.113 316.675 286.484 316.401 286.757C316.126 287.03 315.755 287.183 315.367 287.183Z" fill="#090929"/>
<path d="M302.478 148.309C302.109 148.31 301.755 148.173 301.484 147.924C301.213 147.676 301.046 147.335 301.016 146.969C300.992 146.585 301.118 146.206 301.369 145.912C301.62 145.619 301.976 145.434 302.361 145.397C302.653 145.397 331.033 143.068 342.081 137.362C342.423 137.187 342.82 137.153 343.186 137.267C343.553 137.382 343.859 137.635 344.039 137.973C344.216 138.318 344.251 138.717 344.137 139.087C344.022 139.457 343.767 139.768 343.426 139.953C331.735 145.95 303.764 148.221 302.507 148.309H302.478Z" fill="#090929"/>
<path d="M223 100C243.987 100 261 83.2107 261 62.5C261 41.7893 243.987 25 223 25C202.013 25 185 41.7893 185 62.5C185 83.2107 202.013 100 223 100Z" fill="#A0D4FF"/>
<path d="M200.022 48.9806C199.779 49.0089 199.536 48.934 199.345 48.7726C199.154 48.6111 199.032 48.3763 199.006 48.1197C198.979 47.8632 199.05 47.6059 199.202 47.4046C199.355 47.2032 199.578 47.0742 199.821 47.046C200.187 47.046 208.685 45.1113 214.271 46.5043C214.514 46.5633 214.725 46.7218 214.857 46.9449C214.989 47.1681 215.032 47.4375 214.976 47.6941C214.92 47.9506 214.77 48.1733 214.559 48.3129C214.348 48.4526 214.093 48.498 213.85 48.4389C208.648 47.1621 200.278 48.9807 200.205 49L200.022 48.9806Z" fill="#090929"/>
<path d="M248.138 49H247.982C247.982 49 239.948 47.2587 235.082 48.8495C234.862 48.922 234.627 48.8837 234.429 48.7428C234.232 48.602 234.087 48.3699 234.026 48.0971C233.971 47.8209 234.004 47.5294 234.116 47.2818C234.229 47.0342 234.413 46.8491 234.632 46.7643C239.827 45.0446 247.947 46.7643 248.294 46.7643C248.518 46.8166 248.717 46.977 248.847 47.2105C248.977 47.4441 249.027 47.7319 248.986 48.0111C248.973 48.2792 248.878 48.5308 248.72 48.7146C248.562 48.8984 248.354 49.0005 248.138 49Z" fill="#090929"/>
<path d="M211.932 61.9991C211.797 61.9938 211.665 61.9616 211.542 61.9045C211.42 61.8474 211.31 61.7664 211.218 61.6662C211.127 61.5659 211.056 61.4485 211.009 61.3205C210.962 61.1925 210.941 61.0564 210.947 60.9201C210.963 60.5287 210.903 60.1379 210.769 59.7702C210.635 59.4024 210.431 59.0651 210.167 58.7777C209.904 58.4903 209.587 58.2584 209.234 58.0955C208.882 57.9325 208.501 57.8418 208.113 57.8285C207.726 57.8118 207.339 57.8728 206.975 58.008C206.612 58.1431 206.278 58.3498 205.993 58.616C205.709 58.8822 205.48 59.2027 205.318 59.559C205.157 59.9153 205.067 60.3004 205.054 60.6919C205.055 60.83 205.027 60.9667 204.972 61.0932C204.917 61.2198 204.837 61.3336 204.737 61.4272C204.637 61.5209 204.518 61.5924 204.389 61.6373C204.26 61.6822 204.123 61.6994 203.986 61.6879C203.852 61.6825 203.719 61.6504 203.597 61.5933C203.474 61.5361 203.364 61.4551 203.272 61.3549C203.181 61.2547 203.11 61.1372 203.063 61.0092C203.017 60.8812 202.995 60.7452 203.001 60.6089C203.116 59.3159 203.718 58.117 204.683 57.2599C205.648 56.4029 206.902 55.9532 208.186 56.0039C209.47 56.0545 210.685 56.6015 211.581 57.5319C212.477 58.4623 212.985 59.705 213 61.0031C212.995 61.1394 212.963 61.2733 212.906 61.3972C212.85 61.521 212.77 61.6323 212.671 61.7249C212.571 61.8174 212.455 61.8892 212.328 61.9363C212.202 61.9833 212.067 62.0047 211.932 61.9991Z" fill="#090929"/>
<path d="M227.262 73.9999C226.443 74.0059 225.652 73.6302 225.051 72.9488C224.576 72.4109 224.242 71.7124 224.09 70.9417C223.939 70.1711 223.978 69.3628 224.202 68.6192C224.426 67.8756 224.825 67.23 225.348 66.764C225.871 66.2981 226.495 66.0327 227.142 66.0015C227.23 65.9949 227.319 66.0102 227.402 66.0466C227.486 66.083 227.562 66.1398 227.627 66.2134C227.693 66.2871 227.745 66.3761 227.781 66.4752C227.817 66.5742 227.837 66.6813 227.839 66.7899C227.842 66.8977 227.828 67.0054 227.798 67.1067C227.768 67.208 227.721 67.301 227.661 67.3803C227.602 67.4597 227.53 67.5238 227.45 67.569C227.37 67.6142 227.283 67.6397 227.195 67.6439C226.685 67.6718 226.204 67.9429 225.855 68.3994C225.516 68.8436 225.333 69.4336 225.346 70.0418C225.365 70.6677 225.587 71.2584 225.962 71.6842C226.141 71.8915 226.351 72.0534 226.581 72.1606C226.811 72.2677 227.056 72.3179 227.302 72.3083C227.479 72.3037 227.651 72.3832 227.781 72.5302C227.911 72.6772 227.989 72.8803 227.999 73.0966C228.003 73.2045 227.989 73.3122 227.959 73.4135C227.928 73.5148 227.882 73.6078 227.822 73.6871C227.762 73.7664 227.691 73.8305 227.611 73.8758C227.531 73.921 227.444 73.9464 227.356 73.9507L227.262 73.9999Z" fill="#090929"/>
<path d="M245.018 63.9971C244.896 63.9911 244.777 63.9545 244.667 63.8894C244.557 63.8244 244.457 63.7322 244.375 63.6181C244.293 63.504 244.229 63.3703 244.187 63.2246C244.145 63.0788 244.126 62.924 244.131 62.7689C244.141 62.3222 244.082 61.8773 243.957 61.4598C243.832 61.0423 243.645 60.6603 243.404 60.3357C243.164 60.011 242.876 59.7501 242.557 59.5677C242.238 59.3854 241.894 59.2853 241.545 59.273C240.863 59.2695 240.205 59.5893 239.697 60.1706C239.44 60.4722 239.232 60.8365 239.086 61.2421C238.94 61.6477 238.859 62.0864 238.847 62.5327C238.847 62.8459 238.75 63.1463 238.577 63.3678C238.404 63.5893 238.169 63.7137 237.924 63.7137C237.679 63.7137 237.444 63.5893 237.271 63.3678C237.097 63.1463 237 62.8459 237 62.5327C237.018 61.7776 237.155 61.035 237.403 60.3491C237.65 59.6633 238.003 59.0483 238.441 58.5408C238.872 58.0217 239.381 57.6184 239.936 57.3547C240.491 57.091 241.082 56.9723 241.674 57.0054C242.866 57.0669 243.991 57.7305 244.802 58.8508C245.612 59.9711 246.042 61.4566 245.997 62.9815C245.965 63.2779 245.846 63.5476 245.664 63.7361C245.482 63.9246 245.251 64.0179 245.018 63.9971Z" fill="#090929"/>
<path d="M221.992 89.9746H221.85C215.027 88.5803 214.05 82.5169 214.014 82.2634C213.993 82.1247 213.995 81.9824 214.021 81.8447C214.046 81.707 214.094 81.5766 214.161 81.4608C214.229 81.3451 214.315 81.2463 214.415 81.1701C214.515 81.094 214.626 81.0419 214.743 81.017C214.859 80.992 214.979 80.9946 215.095 81.0246C215.211 81.0546 215.321 81.1115 215.418 81.1919C215.515 81.2723 215.598 81.3748 215.662 81.4934C215.726 81.612 215.77 81.7444 215.791 81.8832C215.791 82.0944 216.644 86.7423 222.188 87.8831C222.424 87.9083 222.641 88.0438 222.793 88.2597C222.944 88.4756 223.018 88.7543 222.996 89.0345C222.975 89.3146 222.861 89.5733 222.68 89.7536C222.498 89.9338 222.264 90.0209 222.028 89.9957L221.992 89.9746Z" fill="#090929"/>
<path d="M210.966 81.9953C210.834 81.9921 210.704 81.9725 210.584 81.9378C210.464 81.9031 210.356 81.8539 210.267 81.793C210.177 81.7321 210.107 81.6607 210.062 81.5829C210.016 81.5051 209.995 81.4224 210.001 81.3396C210.006 80.8382 210.189 80.3439 210.537 79.8925C210.885 79.441 211.388 79.0437 212.011 78.7294C213.54 78.1009 215.397 77.8661 217.196 78.0737C217.325 78.0903 217.448 78.1226 217.557 78.169C217.667 78.2153 217.761 78.2748 217.833 78.3438C217.906 78.4129 217.957 78.4903 217.982 78.5716C218.007 78.6529 218.006 78.7366 217.98 78.8177C217.958 78.8992 217.911 78.977 217.839 79.0464C217.768 79.1159 217.675 79.1755 217.566 79.2215C217.457 79.2676 217.334 79.2992 217.205 79.3143C217.075 79.3294 216.942 79.3278 216.814 79.3095C215.581 79.1702 214.309 79.3181 213.237 79.7256C212.862 79.9366 212.565 80.1954 212.364 80.4848C212.163 80.7741 212.063 81.0871 212.071 81.4027C212.066 81.4884 212.033 81.5727 211.974 81.65C211.915 81.7274 211.83 81.7961 211.726 81.8519C211.622 81.9076 211.501 81.9492 211.37 81.9739C211.239 81.9986 211.101 82.0059 210.966 81.9953Z" fill="#090929"/>
<path d="M187.01 58.7807C187.01 58.7807 178.915 52.0319 173.49 56.568C168.065 61.104 171.653 76.6668 182.81 72.2045C188.796 69.8074 189 66.2486 189 66.2486L187.01 58.7807Z" fill="#A0D4FF"/>
<path d="M183.103 64H182.923L174.746 62.1365C174.507 62.0832 174.296 61.9205 174.159 61.6842C174.022 61.4479 173.971 61.1574 174.016 60.8766C174.062 60.5958 174.2 60.3476 174.401 60.1868C174.602 60.026 174.849 59.9656 175.088 60.0189L183.265 61.8612C183.5 61.9176 183.707 62.0799 183.842 62.3134C183.976 62.5469 184.028 62.833 183.985 63.1106C183.951 63.3575 183.844 63.5823 183.683 63.7451C183.521 63.9079 183.316 63.9982 183.103 64Z" fill="#090929"/>
<path d="M259.99 58.7807C259.99 58.7807 268.085 52.0319 273.51 56.568C278.935 61.104 275.347 76.6668 264.19 72.2045C258.204 69.8074 258 66.2486 258 66.2486L259.99 58.7807Z" fill="#A0D4FF"/>
<path d="M260.718 66.9576C260.552 66.9577 260.391 66.8734 260.262 66.7191C260.133 66.5647 260.045 66.3498 260.012 66.1106C259.978 65.833 260.019 65.5469 260.127 65.3134C260.234 65.0799 260.4 64.9176 260.588 64.8612L267.13 63.0189C267.321 62.9656 267.519 63.026 267.679 63.1868C267.84 63.3477 267.951 63.5958 267.987 63.8766C268.023 64.1574 267.982 64.4479 267.873 64.6842C267.763 64.9204 267.595 65.0832 267.404 65.1365L260.862 67L260.718 66.9576Z" fill="#090929"/>
</g>
<path d="M264.155 49.0015C268.359 48.1369 272.095 45.7271 274.637 42.2401C277.178 38.7531 278.345 34.4375 277.911 30.1312C277.477 25.8249 275.472 21.835 272.285 18.9363C269.099 16.0375 264.959 14.4366 260.669 14.4444C258.388 14.4394 256.13 14.8951 254.027 15.7844C253.71 12.4181 252.429 9.21769 250.34 6.57278C248.252 3.92786 245.447 1.95261 242.265 0.887537C239.084 -0.177534 235.665 -0.286472 232.424 0.573988C229.182 1.43445 226.259 3.22718 224.009 5.7339C221.76 3.22718 218.836 1.43445 215.595 0.573988C212.354 -0.286472 208.934 -0.177534 205.753 0.887537C202.572 1.95261 199.767 3.92786 197.678 6.57278C195.59 9.21769 194.309 12.4181 193.991 15.7844C191.888 14.8951 189.63 14.4394 187.35 14.4444C185.074 14.4378 182.819 14.8844 180.714 15.7586C178.61 16.6328 176.696 17.9174 175.085 19.5389C173.473 21.1603 172.194 23.0867 171.322 25.2077C170.449 27.3286 170 29.6024 170 31.8988C170.096 35.471 171.135 38.9527 173.008 41.9853C174.882 45.018 177.523 47.4919 180.659 49.1522C181.174 49.1522 184.893 63.1057 186.271 60.7271C188.545 56.8242 190.77 45.2158 190.77 45.2158C190.77 45.2158 218.663 39.3697 219.211 27.5436C219.211 27.5436 224.574 35.1987 230.949 34.2439C234.77 33.7167 238.34 32.0214 241.177 29.3862C241.177 29.3862 248.681 43.7752 255.439 45.0148C260.934 52.8374 258.627 60.7606 259.988 60.2413C262.761 59.2363 263.01 49.2192 264.155 49.0015Z" fill="#2C2BCA"/>
<defs>
<clipPath id="clip0_651_3446">
<rect width="383" height="351" fill="white" transform="translate(0 3)"/>
</clipPath>
</defs>
</svg>
