<?xml version="1.0" encoding="utf-8"?>
<!-- Generator: Adobe Illustrator 26.1.0, SVG Export Plug-In . SVG Version: 6.00 Build 0)  -->
<svg version="1.1" id="Layer_1" xmlns="http://www.w3.org/2000/svg" xmlns:xlink="http://www.w3.org/1999/xlink" x="0px" y="0px"
	 viewBox="0 0 431 421" style="enable-background:new 0 0 431 421;" xml:space="preserve">
<style type="text/css">
	.st0{fill:#BFD2EF;}
	.st1{fill:#5980C2;}
	.st2{fill:#5291E0;}
	.st3{fill:#FFFFFF;}
	.st4{fill:#EFEFEF;}
</style>
<g>
	<path class="st0" d="M35.6,5h364.3c13.8,0,25,11.2,25,25v345.6c0,13.8-11.2,25-25,25H35.6c-13.8,0-25-11.2-25-25V30
		C10.6,16.2,21.8,5,35.6,5z"/>
</g>
<g>
	<path class="st1" d="M27,223.8c0.1-0.2,0.1-0.4,0.2-0.7c8.5-7.1,17.1-14.2,25.5-21.4c27.7-23.5,55.3-47.1,82.9-70.7
		c1.9-1.7,2.9-1,4.4,0.4c10.2,10.3,20.4,20.5,30.6,30.7c0.9,0.9,1.5,2.1,2.6,3.6c23.6-25.8,46.4-50.8,69.4-76
		c4.1,3.9,10,9.6,17.2,16.3c98.2,91.5,153.6,123.5,148.3,134.9c-2.8,6.1-23.2,6.9-100.1-16.4c5.2,0.8,10.6,2,10.6,3.4
		c0,2.4-16.2,4.3-21.7,4.9c-56.5,6.5-173.3-7.7-264.3-9C30,223.8,27.8,223.8,27,223.8z"/>
</g>
<g>
	<path class="st2" d="M399.9,414.6H35.6c-13.8,0-25-11.2-25-25V215.7h414.3v173.9C424.9,403.4,413.7,414.6,399.9,414.6z"/>
</g>
<g>
	<path class="st3" d="M149.3,301.6c0,19.8-14.9,32.1-38.6,32.1H92.8v24.5H72.2v-88.9h38.5C134.4,269.3,149.3,281.6,149.3,301.6z
		 M128.4,301.6c0-9.8-6.3-15.5-18.9-15.5H92.8v30.9h16.8C122.1,316.9,128.4,311.2,128.4,301.6z"/>
	<path class="st3" d="M255.5,269.3v88.9h-16.9l-44.3-54v54H174v-88.9h17l44.2,54v-54H255.5z"/>
	<path class="st3" d="M346.8,312.3h18.8v36.1c-9.8,7.4-23.2,11.3-35.9,11.3c-27.9,0-48.5-19.2-48.5-46c0-26.8,20.6-46,48.9-46
		c15.6,0,28.6,5.3,37.2,15.4l-13.2,12.2c-6.5-6.9-14-10-23-10c-17.3,0-29.1,11.6-29.1,28.4c0,16.6,11.8,28.4,28.8,28.4
		c5.6,0,10.8-1,16-3.8V312.3z"/>
</g>
<g>
	<path class="st4" d="M367.3,65.7c-0.6,13.2-10.2,22.5-22.6,22.4C331.3,88,322.2,78,322.2,65.7c0-13.1,9.9-22.7,22.6-22.5
		C357.9,43.3,366.7,53,367.3,65.7z"/>
</g>
</svg>
